<mxfile host="Electron" modified="2024-02-01T10:09:05.288Z" agent="Mozilla/5.0 (Windows NT 10.0; Win64; x64) AppleWebKit/537.36 (KHTML, like Gecko) draw.io/21.7.5 Chrome/114.0.5735.289 Electron/25.8.1 Safari/537.36" etag="YA5vKavtVe95DTzDG5t7" version="21.7.5" type="device">
  <diagram name="第 1 页" id="thmXOs0bS-AK35Q5o_RJ">
    <mxGraphModel dx="1436" dy="614" grid="0" gridSize="10" guides="1" tooltips="1" connect="1" arrows="1" fold="1" page="0" pageScale="1" pageWidth="827" pageHeight="1169" math="0" shadow="0">
      <root>
        <mxCell id="0" />
        <mxCell id="1" parent="0" />
        <mxCell id="fXdW1Djls__v9O5UNU6k-1" value="" style="shape=image;verticalLabelPosition=bottom;labelBackgroundColor=default;verticalAlign=top;aspect=fixed;imageAspect=0;image=data:image/png,iVBORw0KGgoAAAANSUhEUgAAAV8AAAC8CAYAAADfEq0ZAAAgAElEQVR4nOy9abBl2VXn91tr73POvffN7+XLzJqrpCqhAQmEGGyp3Q2B3eF2QDfu9uz+5PAQ2OF2EOHoDw7bEXa0HY5wBA1tWkTTGLCNG5pJgBpkxgYESAg0IAkhlSprzPm9fOMdz9l7L3/Y5w6ZlZVVQlmVKer+M068fO9O5+6zz9prr/Vf/yVmZiyxxBJLLPGGQu/1CSyxxBJLvBmxNL5LLLHEEvcAS+O7xBJLLHEPsDS+SyyxxFcFWzhY+LnEneHv9OB4FPClJyUDBACRN+K0lnhzIlHXgV6vZDisKYoCESGlBIDq0le4V5DWokYzFEgWEBFEPal9TrKEFyUJqAEksn+XkPb/9jXg7y1yEGKMdDqe4bCmLMuv+L2KO1jYOxrfwWCAjB0xRiwJIoIRv+ITWGKJV8d8wjvnGAyGqOpNxnfx/0u8sRDLDli0RKesCE0NIhiOSWgoCnfz9WmttbaXVVoTnY3v/evBqerM+IoIZgmRNQaDAePxmBi/svl3dnfzFR+7o/GNMSLklUAk3wgi9//KtcTXNlRdO/Ftdkx/X3q/rxPslnGV2xuZSjx1XYMlyrKkCZHCCYVzNE2Ddw5g5g1P7ay0Hq/cx4YXmM23KUQU5+YLy92cf3c0vqo6izMI0p7UMqKzxBuDRQ9k8fclXge8bGxvP9bjZkJVlIgIk7rGOUenKLPhVYclw2Tx1TnsYKatQb+/r+HiQn/rfMvG9+4tHnc0vtOTmRrdu235l1jidh6WyNzgYoq2uy3j5TfEEq8TbvWEW5RFh2SGJUPUo0BoalJIiFNEXLavMxuV3ye111Dv9eWbzrdX+H4qObyKpoVwV/aAVeUVX/cXwasa3/zhgrZhh+XkX+L1REqJlGweO7T5/6deyRL3BkmUkATxnhAChZJzQAZVVZFSIrbmQS0n3trfFn7e3zH7GGObSJyHvGJ8fRb9OxpfM4M21jFNtC0n/xJ3FVNPovVInHOoCip5ahqL8bfl3LtXSJKZCuY8k2g43yGkiDPDKYzHY9S77PkuQC3NXn9f4FU81+nOPseoDdHU5rryke4i3+COZ7L4odNjiSVeb5jdnPhY7rbuDySE2pSf+oVf4uOf+jzBlzTJSGaI09uEJNMr/P/+xWKSd/FveUd2d7/Dqy5Hy63eEm8ITMEUS/KynMxy/t0LKKAk0ZnXaqJMxPHHn/0in3/2RSZAUocJoJI9Y0ntLiah1lLMZnH9+98A387JfL0cz/tkL7DEEkvc7zCBUYQxnoPBhAaIQDRIKPFlq2ZmN4gZ+jVgeN9oLI3vEku8ibDoyX4lMJQoynASmOC4djwgaPZ84bXuTpYGeBFL47vEEkvcFulWe2rKYBKIWnDYHxOMWYLNZP6cRdz8Fktzs4jlaCxxf2AaK5R0P1ef/qWFzPQXMlIbt4V5CD6JMBiOMFWGdWRYcxP9dFYUc7v86F3kx/5lwXJEllhiiVfErXZ0OB6BOAzh+LTVb2BqcG8xJ6atSyxME3hLzLEcjSXuLWQxG/4a/r7E3cVXOM6TySRTsQROTk5aNtStMd+XG9qXhTDud7wB8+81VbgtscQS9wdmoVW4vXF4tSICm6qOtcUP07/L7V8rpJkMpAGTJtIYIMrpoE+0Hq3gWaaW3XJOhgdra9vu08V0vi6keex6+pjNwyhTgcy7hddkfM1sVvOcLNzFj19iiSkWRXQWJP2WGfIZxHQeT5Vp9V/roZkiC8bzVuMsybec25hfY9kbNQVMSebQmWmZx3unZcIGmAjHown4EkM5Ojkmcg58AUlQiUh7TiaZfqbmEAwh4Cxi95izPR0/a02fkNq/pfzgQpxFRHHtaxKAtuI6d+lc7vg+qtqWe7biGEst1SVeZ8QYZ9VEy8q2W3Hz/SfWxlJtWgSREMvG5HYmzlrv9FZxmyT5sSTMXjsNHAjz5ydgUgcMpSgKjg5PMOeoU14GQry19nZ6Xu2r7wNVMxObebfZq325CZwWjYBlLfN2Tt5t3NHz7XQ6+Fa9Pev6wv1Sor3EX07UdUNVOdbX129bWXQ3Jf2+ZrGwFYbWcLb3pUsL3p3Mnj6LubpbXhcXDNGtjy98HI2CcxDrho2VVXqr64ybhtUNYSWsUjmQ2Ju9/mVvI13u/sb9L4L2HIybFqmpDGaTEuIk7/STkepI0XFsyBpaONxdpOLc0fgOh0MYj7PVt6zwLvdcE26Jv+zwfoPT09PbEvffzN5wYmpQFZd86/lmT67RgJLwM+M79zqz8Z1Fdxd+Lpb95t+z8bRsYkwwycUVQRxD12V42qdTVnQ6Pfb29jg5gSb00RAoRFHTWz4HIMzDHdwsvPNGI0kkj59DTFFLJJkWn0DSbOMcrWFuEugag9NT1Ls3rpPFFCIy6y6wDD0scVdxa4LmFkGTW5NAqvf25r2nEAg611nQdtscBUQduQ4t4CzNDPV0+VLJTF6b3fK6wOttY7wiaMqNE9Qyr9faijgVRTW3FuuUFZtr61x9/iIAzhVISjh1WMpmSw0Qmxl9XTT694jzm6RVKGvPxy064qKYKBBJMSJiCIaqIK4d89jqmd+l839NYupLScklXj/c7MnmhX4x3HDzfHsze745LzTd1ze5O4S18odJ2scFMyG6xE2+ruUYcRJr/2Jg8+Y+OdlkOcFpillOk2WD3f6zTDXrdDbY2lznmZNTYsi2qFCIsZm1C8qXKbbGN+s7iAnWfs69gLXfJW8Fpt/VSAKxFeqX6eKeGkQV1MHCfMwOwd05/zsa3ywqvKhv+eae/Eu8DrhFz3cqpm4zYujLjfObFTniF9CZWQTFkUxxeLLHmbfPTRsHFstxXNcGhZ3dLgRxMzJfIev33srP7Y+GbG6dZ2tjndBMGA4a1lZc23ABsED2qmmZKm03CJNZOOTeWpB5Rw0BoqZ5QhCQpIgZzjQbZkszidP8hDco5ptSWigfXBrdJV5/3E4/erngzzGtJpuzEKamch63zbSw9i+SnWXfyjuaZAO82GNNrG3pLnHOnEBnCbsk5C24waSp6XYr1lY6FKqc9Eec6a4QiZRiWMsjdqR2r3yf6ZndQscLOpfrF5vKYFpLmVsouNasV/yGiqkv9XyXeEPQ6vnSbqXhZkH1JeZIQEyCuJIU2666LmFMiMQFbljCiSIxULqEj4HCsk+LBURzEsxaKpO25LIcL1ZMpiZ03stsNBpRVCUb6z1UjKPjUwKCqkfEcBYpxNAU0NZ5c64gWav3e09GLEMXFi1TIYrS4ImuJLXD5iVBaFAMpwIpYK1kZkh3J9Y7O5+7+m5LLLHE6wv1JBTnO4wnEVdWVN0O4/EILRxJU9bVTYZXh6ZI6ZWmacAp4hyxqSm8kkKYOVcqHjNpG2DmJF7U+U5EDZrGaJqGlV6XzbWClGoOBqdEVZLKrP9ZDDXee5xzNHWc6f1OmRr3dPhazzw0CXxJLRVjK/BlN8fLY8Q5xQximC4eoK4imdzVdkhL47vEEl8jSAJNSIiWmHgMByIMxyOqXpcQQmY+OMWJ4WLEYmJcB8x3GJsyqhOubXbpvGA230dbnHq4051u25GCREKYTBosJta6HTZXwauxf3JM47OhThiNgainiTlBVxQFWC5SFn/vmSqihoqh3jFs4Nc/+gk+8jt/xLgB1GEiLeXMYepwzhECTJqAyd1VY1ga3yWW+BqC80KMDSEkym6HcWxAlVg3eO8JCUwcpOzFOl9iZZcvXTvk+cMxoVqhwTGlq6oqoa0mFHELYZ6EWVsunAzUMRzXeFE6laMsoLfS4fj0hAA5Fqqe5Asa7eTtPB5QYmhQVeqmuef6DmIQUyKKkHzBJz73NB/7zJ8R1BNx1ABFxTDBhDw2RQHe+7seAlsa3yXuDyz1fF8VuYgi0nGgRCZNjZYFyeXQgIWEL7vEJMRgJBNG4hi6Dj/0U7/CD/zkL3FkjoE5knpiMKylVmWalbYdy/N1cJbQFHP7dPEMJg0iQrco0AQba6scnZwg0iZFxTNKJTcaY0DJyBTnPKXzJKspynvv+cYYUVUaS8QCDiaR/UEgOQhSYGWXG+OaT3/pORrfpTGlaRIWA8VdPv2l8V1iia8xhBQJ6hkm5crxKZPkcFpiEVKIkIxep4OIMmoCpwGuDxouHk/4vU9+EbdaZSEdzZ6uqraVcDm5JiI584/hLCFJiCKctnKSvU4XEmxtrnN6fIwIeFWiCaEo+YEf/Un+2Yc/wsQV1CFhKaAKKTX3euhwriCSi0fGCW4MhhxNAicjqEUYW8HHPvPn/MTPfphLBwOcr/BewRpSnMxV4e4ClsZ3iXuLpZ7va4cpAQiuy0BKfvm3P84//JH/l1iukvA4UQoBSQ3UNRIjZVly6eo1Gku4Toff+tgn2DuBKA7nCizNKX3JpqIzlgV6SChZ5yAa9McTkiTWVroocGZzi8HRCQTQBGaOAfDc/gkX9o6IHUedAg7DqWUjfK+JZ1IQk2BO6Y8DEwGpKvZPhkSDxgnXTiacxJLTiVInIZnhNeLV7uqcXBrfJVq81qmgszp4yBGCxShBkq9B4ex7gNm4SSJJetmYvfK4KnUykodnLl/lytGAUYRmSsuLiUJdjtdKLsO4fPkyWOC7vvtvcP3wkE9+/kuYr5iEloWbQpvVdzfVEIhpjgOTuxSP6wkKVIXiDNZ7PcbjMXVDLvlwjhsDGEvJ89cOGNTgigpTITUJL5mpcTNjoG1RjycuNPe8ta3Ry8bGdDZ+LBSN3Hn+ZdaHZPoCByd9kpQkKbl07TqpyMUpl/cOoVzlRn+COY85YSKeGk+kJOFf/hntOcxSlfLyApWXn80dsCgsvLyp/pJgWkn2suuZb4LppJf2b0l0VnoJOZmTLNe7mxoWs5aAAMFaIRfhth7CbW+mKbf3tf79dcb8+9/++GqRjYvOtHmTNJg2WGuApfUQxTRXryXQomz1cQ2HUDklJrh07SLJKXXKxhenMy82KgSgCca1y1fY6ggfeN+DPPrII/zGv/w9jiMEVyIkCrLYTGRa1BJxUgAltQnBFajCeDiAFOl1oAA2VjqYFBz3I1E9Y2D/uE9QTx0qbhxmDztEAy1IFBg+833VYa0cWzRPkIKgBUGz0XJm+GStBnFaWOzTTAoyH7kALEtD6qw4ZDrOs+vajrdzuXahScJg0EDqkqLLwvBATHDj6JBJTIxiIDphbNDXFf7BD/0Yv/uJz5Jclb+Tm2pOR6zdKUzPy9CZDscrYen5vhkhryTtNy8hX8zs3lptJmKEliPqnJtxRb1feM87drFdQi0L4yyOkgmElKi6HVITkGSUvmA8HpMieFcSDCYRTsaBYUgEKTkZNuCLmxpZiioBQwvl4sWrPHR2h8rgr3/7X+Pw8JhPf+FpJqLQdh9WBAtxfp1Tq+orLi+oBqGugURVgrPEme0tMM/BySlJC6IoRyenoAWiJZcuX89G03mQInNrSahEUlPjnOCcUjoPFlujOi9Jng9MqycubeXd4qjJwuJoraGevWbBALcesoiRLJIQBqMxKSngOTg6Imkuyd4/OkWLgsFoSExZ+2EQHRdv9Ll444SRKeILUoJgCROXvftZCYkuiLTfYQ689umyxF8mvFxUO0/6mZB0exOKLFQ4WkTSmEqzUVD1hChEy7X9sW7mLVdmujg3bwvvd0xv7lc6vnq0Y2GCmEeSb+UhPZjH8AzHNWW3BBIpNnS8oxBPCIb5kuBKXroxZBhKknQYjgJOc5EELJRjq2PQwOVr+zz+yKP4BO96aofdrXU+8SefInkles+kydfNt8wHaQ1uIrbXLusbjEYjOqXHt5oR29vbREvsHxySow4Fh4eHWZbAOy5dvTLV7wGgcIZPNS7VeJ+w1IA1hPqUFY34MMK1nXKiOIK6VoVtPu5RskdpIjddEyWzM5zlThP5/DOmhlmIqBho3sMcHh/jBNbWVtg7OiIAxwMYjhrUFUwmTTueeQcxqiPXTvs0CqIFOi3L1lyQHM1mRclKoLA7Jxjv/7thibuPr2A7L8mQNLfShRdimBDqMTEavqzyttiMqvQwW/EXY17LEmG4TdjOpBWcyYI4YtJ6iS5XpJFDDRFPdBVRKxpTgsJLVw8IdEk4xnWiSYaptAmyrESIKpf2TqmT8OgDj+AD9IBv/cZv4Jnnnuf6yYTaBFdWIAlLCRaCTq2C8Ox0R6MRK90eFnNThZWVFVzp2D84oLEc5jg+PqZbFqyvr3Lj8CCHohBSCqgqVeuhB3GM1TMSRateLvrAcGZTzbVs2MyxqE08DZdZe37z/8O0U8bUe87Pbx0Kme8KVBVxwunpgE7pOX/2HAeHpwSBqzdOSK6gCYkQQvsaGE0atOwybCLJZcqaWaatRbMcHlLfnmfKKm6vEqZaGt83GWaJihZJFo+UJ1L7mFnM8aw2Jog4YjPBOaEoClJKOfuejPF4SIxhPqFm2z6btca6O57jVwt9TUeS2x9fPeYJtuwRtp7dQoIlt+3KzzNfMErCr330Ezz90nXGMW+Dr1w/BN8h4RmOJjTJQBwLdgYT5dLV66COB86fpTAoI7znHU+SRPjcF7/MxAR8BYCk2ArHtELrMt/Oi0A9ntDrdrJKmihl6dna3uDa3vU2vgxHB8fsbG9x/sFzXL52JXfKcDqTph01kXEqGbg1htUqf/zll9hvhGFQ1LXnsRjyan/ajCeRvUqRHCc3hCiO2Iq+J2RhKLMRTkAQIchiaCBrE3erkrNntjk6PqEB9o6GBClogMFolHcRCqf9EQHH6WCStR5sAtKQNGTdZINiYX6YvPp8vx/uhiXuOW6THJvW9CO4qciKKFL2iK3AiKrS1BFxSqfXza8zm4UzptPclpSxFtM2E2nmxQF5oVrwzGKM+LIgidKIcmqOn/uN3+Ujv/9HuG6BCFy+ep3u6gqQZR7R1vBY3qmoekISLl+9jisqdrdWKcXwKfLI+R3O7p7nU5/9PBQFw9CQ2vj9fFHImItrZc+3WxV4BxabTDc7s82Va1dzgwoHBwcHbG9ucO78Ga7vX8sVd2j2xJ3HfIfUW+P6KPG/ffD/4YM/9Qv85h99mlj1aCQL+ywi6wADTMXO8zgKESFmp4FseG3xObKQIG37tk2V3izlGT8YDFhf6bCzsUZ/OGZYw/XDU6J4eqtrjEYjIEfh+uOGiHLSH7QhFkE0Ei3zqr05NEreQeQPXdhB3B5L4/smxSslAxaTa5nulGO+CZgkZWglE1cxrgNewBc6256llG6hSL063eaNR3pNxzQmfutxVz5fbNbIMcs/TjtJRNQS3gn1eEJEGEvJcwenHEiXP31xj9MxhAAHe5d54pEHMBrG9Qhx3OTVJZRkwsWLl3nw/FkKD15yHLJXwjvf/jZeePEie4dDTDtZ4Wvh+xlxYY4oqY359jpVu35kT/bs2bMcHp8yanLY4eTkhM31VR44f5YQavZvHBESs3DKWCo+/aWL/M//8J/w3EEf3TrHZ567yMTDIOZOGzKz/ulmI9pCLAvkuFYCctodI6HzHZfN9Ytdyj/FEq71fk3gpH/K5mqHMzsbmCh7R3Bp/4C1rR3W1zeZtEUlCRjXDWjJcNxkLXU1THPpdU7ZZebPzZ+/9HyXeFW028wW0y3itGWUmdFEYxSU//vnf5UbI8NVPUIIFC63rwkJtBVOkYUqIIO7tF3/2sfiKEyjqTZLSE6ZANnzdUXmvQYvPH/tgLpY5TjAhcuHHA1hMDjlybc8ihBpmglNnL+zqRBTTppeu3yFxx58MFe+WUAsEOuGb33f+4jR+MznvkB0SmOCK3zbtWFx2++yx5hyF4tep0QieK94VbY310kpcXQC/WEOTWxurHL+7A5l5Xnx8mWSOHxRMqwDtcKv/vbv0u2t8V9+7/fy9e95N8+88BzDAK4suYmhMBupafhj/uiUCjn3iAU1mYVdbjLMTPu16YzJY0w934qdjRXEFewdnnJ0fMrOmbOoKpPJBFCiwWBS05hRx8QwwKQxMI8j7w5vbfYqprdtRvpK82GJNxNeIRQgIvM24qqIGNESruzyhecu8vuf/TKfffYa9ZTh0EzwLXdyUXdEZ16kTNsxvir15g2BRZzOf05pSt5J5tcy9fhfH57vDDINQWRe6NwAg3MuaxA4zzjAlb0DiqoiScmnn77EpcO8HX7g3DZl4Rj0+3jJ1y5aQL0QnWPvsE9oJjx4/gwqCSegEnGWOH+m5LGHHuRzf/YF6gi4ksbARAgh4EQz/cwUSwoF9IcDulWHwoHFiKXEud1dlMTlGyccnOTvcGZzg52N3Lni+v4RoR099Y4ocOPGDd715BM8vANvfXCbnmu4dPlq9pBnyDH26a5g6unSRJwJKgUhOZJ0sOgRcXgRithQpojGQKGOFBUoEYrMBjFFXEG07KVvrfQ4swVN03DaH3J9b5/d3V263YrRYIAW+X4YDEcEVSbi6E/A+RUsKIUrMIsEiQSXQxtiik8J/yqJ5qXxXQKYb6un6laLClciQgCOxoGBrvL8/ilBfN5KAsSAtjqzmbs6b3OTXubJ3Fs4l5kEIkJd1zOPpWmaNtH1xkIWReRRwrRVgmSP0xewd/Ua57e3eOLxx/n8My9x4eoBUeHc7gq9siCOx8Qc+UG9YxQjwXteunIFrOGhc7t4daSUn+RVoIH3vuudPP/iRUZNLtIIQLKAbxtGptSqlUlWQRvXNd1eh9gkfNtQd3drHTNj/+CEg5MBANtba/Qq2NpYY+/GQU7GRcPEUQcYDPpsrlSsCrzrLY8QR31eeOlFomQf99bwzrQRqDMo2n5qdWPgfBZB9w6HEZsRrr2eSQrGyTPWHmOpGONyoYcoIRmDUZ7X672KlQJ6vR4vvXSJejJmbbXL2kqPEGpizA2MR/UEUY85x8kwgPls0GNElKx/3Dq+0w5A4VXW6vvnrljiDcFiVFBIs4l+aznr7PlmbX4ZDk4mNL7Lhct7RCUT9C3XRc3bTS0iF3PM5uB9kHhLJojm+GNRdmhCgqn04iz8cqfjq0VmNsyoZdmsMGU9qMwrwKbJof0rF3nizCrv/bq38uL+MV944TpVb4W1FVhfWWHY71P5TH9KgDllaPDClSt4ER59cBuxlrGCYiS6Crvb6wDcOD7BXOb2ThejzBnW2UI8aTKrZaXbg1YDWCyyvV7SKztcvr7P3uERyQK7W2s4g0fOP8CLL13ElFlV5MnpACXwwNYaOoEzvZIHz+7yxae/TFxI9knr7dotk1KdUDcTXFVmrq8GUpwQ44iq42lIjBFGRYdLo8j/9MEf55//5h8y0oJaHKYFmNI/HUEytla7VA7W1ta4cOEClmrOn9lipfKMhoNM8lEYDSetUXWcnPSnwQxSim2VW+Zoe3WIQW2RWHZfbSYs8WbDrSbyZZ7GLS3bTSAIHA1HRAqu7R3TCEQREMeUvGYm8zJQSwtJqvtnmkUyVatJMfNiNWfiQ8g81NeVDmet4WUeF5dFzrVpbrmT8v/NhP5pYjI44dEza7zrLQ+RUuCTf/oZzu2eoSqg8J5QZ06wqs98W/VEhWeef4FHH3kAT6aGzXY2llkEvbKkqEpOR2Myo6r1GlMiJhD1iMvjMxxnTmtVVXjvc0fzmCiAM9ub7N045PBkQKfwrHZykuuBs7scHJ0waQDniCYcnZ6CelZXerh2frz1LW/hhYtXmFibKLzF4C4a4CYEyqqiiTVNrHEkvEugiWFoiK6iLla4EYQf/qkPceHGkAvXj6gVzGtOSjrHYDzGzFjvdXLByOY6J8eHOIuc312jLJTRKDMbDBiOR3l8ojAZjhABkYWKQM187WZS4wslFRUnS893iUW8EvtALPM5HQ5Sq27lfFsppCSFk+GIFGpOT0/pjyG6gml7mExvagMOt3or1hLj77Hnm2Tu+TpfMp40iC/QIpftTg3zzRVtdzts0oYYWiL+1JvOxQBZfpHU9v015cbhESlEHj+/wyO7cH6jw0YpPPrAOaihVxaEZpINtri2w0XJeAIXL13hqbc+jqSIppiTQK7I4jsibG2sMp5M6A8HuaAxWVu1JSTN8dnpbmY8qjGEqqpQnbcW0gjnd3a5cXjEjaNjNjY2KAQ6Ag/snsXMuHajj6gQYmL/8JQkjrX1DVTBCzz+2FMMJ4mXrh7OtB2mi2Duo7Ew/r5k0nKdu6VCHOKlzvq8VYe+67IXHD/807/Ihf0+urbLcZ0yGyRm7xUTBoMBkoz1tS7O4MzOBkqkILKzBiuVJ8WGOkJtMJmM2Fxbh5gI4xFIIkoAp8R23MQSVeGYhIahU/pSvNpMWGKJOaZKWIuwNp512h9SekdoRly7cUyY8SaFlMCLzuhT8ApCOvcUmhcUdUxCxJW5kmk8meB8Ttq8ofQ4CS3lzFrWQyDGBl9oZhmYcPnqHiZw/txZug7e+cguvTjgoY0e3mB9tcvp6Qk4sjBO217o0pUbjMcTHn3kISqvWAy5hY5BSoZaotspMRX6gxFOc0BiGnsW54ltKElVGU4mJDydTocQsgqaqFEq7GxvcnR8ypXre2xsruUW8hEeeeA8ZsKVq5nvK85x3B8SEmxvb+IAGnjysSdwruDLz70wK5bIh58Z4alzQMxb/0IddV1TliXjYKRyhdNUcOHaIT/4Iz/BMxee429/z9/kkUcfBjMKAbU2wSlwdHyKiLC5uooz2NncRCyx0anoFdBrqzXHkybTLCcTtnc2ERH6wzGNJcK0z7FJznGI0RCwsmScPJ/8/JfuePmXxvdNiNsZl1k92kKSjYXfEzk7/PADZykVXrp4kUCutWehGwLW1t3LlGp+fyGlRN0EnC84Pu2DOnzVyYmYGGeVeNOKtvz7bQRd/oLQWZih9XQlEDWQJIJEnCQcmTJlAi9evEq5tkFnvYNF+LZ3PMp6OOKJc1usFdCrPMNhn2jTMFBJE+C5Z1+kU1Y89ujDkGqcVyQZKURKXxDqhm63i3OO8XiMhTQLH9UhtQUJ87kwGteA0uuu5HLzZC3fNnu4TX5fUw0AACAASURBVBO4cXjA1tZWDqtE2N7sURQV1/ZuEFuNh9PBCFeUmXesUKTEmdWKnY11nn/+eZJAUJdVzqQgSkHuq2w4Ih2naEikIIj2GEwcY1YY+g4/+5GP8v0/9KOM+iP+8//43+cDX3+eM0UiHO3DJMxoYSZwejrAOcdKr0Ai7GxvIzFwbneLQqFTOZTEcDJGJdPS1tbWKKsux4MRDZ6kJcFKTApMAkkbGkskVxFV+ZNP/emd58JXPZteJ7ymm/Y229i5YVnYLt4HiZ77CTfFeFsSe0vogbZCTWwh9isucx2Hpzz20Dk6VcH1/cMZKV81U5TqFNseXVleJH9WSxEizeJ5SbJ+62vZ0t9tKVNVxZzntIF/8P0f5Dc+/kkGaZ5smqFlILwWXVaYz9dp6fBN0pG8fD5PdxOp1fPNvyvRFYwTNFaSHFw/PGRre5vSQ2mJb37H43zff/p3edfjDxLHZEMaEpaYibug8OzzL3Du3AOsd6uW87ognEQujimd4n3BcduNoiExEc9Jo5wmpdaKKEKwlA20pFnM1yyiGBbhzPYWqsZkMmJ7cxOL0CmzcV1d7XFwcIQUUCe4duOInZ2d3Nmibug4owDe8vgTvPjci7nYQ3U2fnbLHIkxJ/uca73iYgWpKn7+X3yUP/jYp/jWb/4W/v5/871809seoaewWioWRnhRHEJsY+2j0YDCK1WmNnNmvUelgd2NLoXlcI6qMh7VJGA4HNLpdOj0uowm4zYRV7QdnwWZLlQuM1aOTgLPXnjxznPx1afV3cUr1cq/jFNpzEWTF47F54MxFaOe8wLzZ4g5xFw7ue22gtVvRjjLYzfd7k71UKdQJDMYWtEQVInWEs3HA9bXupzb3eLSletg5FgigUaNVGibTJonSZSIkm8Yk5zECRGQkpAcimNKEFbVNhmUX5tEb/I478blk2QYnutjZc9W+P/+5Iv0Xe4CDHWu7BIhNRG1nFCcVY61BRGLTSDTVKqwHdcgCStc7paQPB5HkRykiGieh+Z8y6lV0DbBJUItFUPpcrWfGCnUApeuXeahh3bx0fBpQmmBxx/epaOBUiKr3RVCI8TYjrvmrhPPv/ACjz32GAXgYl4ArdX8bWJAo1AorHfXGA2H4BONgyMr+R9/4Ef48Q/9OmMnNNohRJjUQ8QSnW6VhdclEVNNksiZ3Q3EakoSW+sbeAepyRWQD57d5caNGzmmrnAyGNJb38ADnkgKE0iJtzz+VsajxJW9Y0RLNDVoqHFtheUkxhyHVpe1ImLuLUchfOHZa/zhxz7O+977bv7Dv/Ud7JRGJwXKBFVV0B8PMac0ZjmBaFkAaGdniybk0MmDGxXd0OfBrR6ltGGHZFnfgcwDrqqC7lpBf3CcxzpmLq9Gw5LitJzN4z/9zOfRZLdOv5tw33q+t8OtCZtpGaK2Qslq0yxyam/aOZS7VR76tYtp9Q+0RLNFR08WjNxUkDvGNqGm9PuGA9ZXOpw7c4b9/f08vtOmiwuDK7P3XPxzTpwES1hRMBDHxeMJA1fS+C4TKajjvBjj9Vgn1fLWOolwMqkZa8m1fuCZiyeMkrXdHIQUG6qypPCeGOoZ/1dwC7zlxVsny75M56AtdIbI1YH1jDUQoxEMUtnlxrBhfxBo3BqTtELju/zy7/wR/93//oN8/EtXuXQEw7rh/O5ZaCJdHC4FCjEkNShGp9PDUMajCJr1ZS/v7TFuxjzx+KNYSFTtZ4vkljiqgpEZEr3eKqNxQ0yQxHM4DBwH5Q//9Et88kv7nEQIhaM/qomW6JYlKcasQuaEwhkrXdjsFZQSObOxjku042Fsb21wfHCYNR4c3Dg6YmNjA4u5tZDTXFb94PmcnLt0dY+6CXgVVBKzLhu+xJAZSyXL8Fbs9QM/8wsfYmdjg+/5N7+TysClGmchE/iKrDrWxBxKsSSowumgT9Xt4JxArNnsFvzdv/M3ef83voeuQLfMybImJCYBhoMB3U7FarfHeDxElVnFXafMu7hh3RC1YJLgs5//Mx59+JE7z8e7PL9fFfM6+elWKONl2qkLde/T46YtaKt/yoJXrJY9OyWRJJIkZyFdEjTdfvv3ZsJsPFGMErMCy0J+macoOuMrmgqBSFIhqXBydEKJY2tlhcceOs/x8THHQyNpjg2KgaZp0YDMWLFRphVu7fVxjokp//KzX+a//+CP8/0/9Us8O0yMih6x6OTn3UqGk6lEyd0JHzlgMs6KVcNJ4OOf/BxJu7lDQQhZrzY2WDPBWUMKDThP02oPYH62QCwQ8lCMSgUXIs4iRiBoIJYOcyVGRVF2iVpyYgU/9ku/xv/w/T/OC0fKpPJ89rkTfuGjf0J/dZsf+dCH+eQzlwlROb9zllJ9O8fbctZWerHX6wBZXMfIoYunv3wBr/DkE4+DpQVxHIFWDD9qQxSjt77B8emIlDxCyfFxn9AIZXeTf/ahX+VEYNKBG8NIUa3ncAIRp3mXk0LEJzi72qMII85tbaA2FxI/e/Ysg8GAwcAIAU5PT9jZ3myZNYYRMBrO7HYRH7l47RJJBfGCugTEtiVS7qBSTDtRSMEY+M3f/QOu7+/xH/ytf4vdVTerKpuWEHfKCknCaNJk0fNWJOh40KdaWSVK9lS7An/lve/loc0NmCR6vVWiKINJoA5QqGO9u8Jqb4Xjoz5Nk9vJpzBmOOyjZYFUHfoUPHvlgAsvvsQ3fMO77zgP70vPd6rROTW0c6Pbxg6l9dQWWoVkzzbl/OO0/fUM04zpG/YV7lssSu9lM5SR2g4AyRZjn+0Yi6Pf70NKbPY6PHz+HACXrl0nIAQkeztGm3C7mSNsU3oVSl0HxHs+/fRzTMpVPv3cRf6X/+OD/PGfX6DfpJzAm0XQAAm3727wF8Lcs5+MhjiERx99nM9+7s/pN1CbA/Ut7Soiluh2uyDWVlJ5psv3LAxm+Xynkpwp5uXDYViqiRoRB5M6ZFHupiFEI4hw5WjAUSz5Rz/2z3npGvzsL/wKm2vrfN/f+y/odio+/MsfQiVx7swZSs9M43dmSEl0ux2MmCU9BfDwpQsXOLOzzeYaeE2EUM9YLDmZlxA1IpHeapfT/jAz4ID+6ZhOp8d3f/d3c9rv8xM//WF+/fe+wHPPvUCv9HjJoaaUEiShECgFHju7RU8S270KF2PbWso4s7WFiLB3eMTJqaEmrK+s4pzLIZyU8CJ0C9jZXGNvbw8tHE0zQYl5W5+yclir5QgimHj6Dfzu73+MD3zgA3zdEw/i6gmOVtZUcrl7t8qL07DOYQuc0iToj8asbm6110vQpsE3NVpPKA1WOh0sOfqThv4IisJTeKXX7VJPJqhAjJkJUpSOJiZq84xw/MRP/xy7Z3d4/7e96zXMxjcQr1QjP48DM9MWmIoh3666aC63oQvPa0MPTJMLORYMzHqLvZntb2o924SbhWry9Yht1j3HxwGIUDDvjjAYD4nUbKxWnNvZoCgKLl+5mqX8pjqyzMMXeuvniuTPdSUJeO7Z53nX17+b//b7/ms21nf48K/8BpRlZlrOElapFdeO3I0rl+UHczPIyWiECvwr3/Yt9EdDPvel5xhbMRNpSc4xSYnxeIIulFrfFB9fMMA5S5/7qUnrwYslnEJqS4bVO7xr9RUEru0d8MQ73sXhaMw/+sf/hMMrF/nP/u3v4m2r8H3/0d9h04aslzVndx1NzEZHRLLAfetdTgXsJ01NBIYNXLq2z+OPPoKk3AuN1nOcFlhoMrwJzmCl22E0HuSEn8HJSZ9mOOQ9b9/me77rO3n6y1/gI7/6yxxceY6nHt5FWq++aMuLPeBS4APf9G6+69vfT9cZZRuCcQg729uYGTcOjjk4GSDiWFtZzfPDPJjDqeINHjm/w/UrV/O1CjFzx9sdssdwQk6YOc8EeP7iVcx5vu5tT1JJpEPMi6Zk795SpFtVKI5RXRM0V9mNxxMmkwmbm9u5WCIkCkkU1tAVcovMVqdh1MDpKC943crR7Xap6xrIIQnnBVQZNQ0Ujg99+LfZO+rz7/27f5uuv/N8fJWH33hMEzWLP2/yWMVyzSW0dKZEmukILNKxU2sNprHMJeMB2h3EbMvcaqVKQsyhEkAyx5QEKkoTIkHhaNDHVFhfreh0oNutuHZtD1EHSXO1T8o8yvluxHKgbzG2jPLSxX3CeMLXP/Uk57fgnU8+ycc+9jFGAVZbetesEGG28N4dqle0bMQm4waLiXc8dZYHz5/h45/4FN/ynicIUfFiJDxFt0uIEyChDlJqEGk7LYiSWm9+6gAEVai69OuGHg6VPB9jilRtt48m1LhOjxuHA9QVvP3tb+Ovvv9f5ed+7J/yb3z7t/Lux89AMp46u8J/8u98N/3JKa6ONHVNpyogxflCIIlOJ7cbGk3GROD64ZjT0ZjHH30YTYZawKsjWNZW8GKkaZUbidVe5u0Oayg9nJwcUbrEVgf+9fd/He97x9/DCWyudFlz4MbD3IqHbFxjCkgMvOOtD/O2xx7CpwbvhNhE1Atb6x1EhGuHx6Qyd6w4s7VNSm2eVQos5YacD+2e5c++8EVGw8RaUUGYtDzjvMCYGd6VjELEHHz5mWdQB0+95VFCPaTStuxZJM+WFFmpcpPQ4WSMkXvkjSY1KcJKt5c7ZpGLThxAzOGJjvc4UQajMeM6a16sr62yejokxsjJaWB1vaKOE6IZrtrgU194kU/88af5jn/tr/LUIzuUNnf+bod7YHynRrCtYLlVbtCmyY25sWx91/z8aZ+qaVhBEkbKvRZawzL1vJLNQxex/Zy51NybEfPvng1vOzksByAMI0lDXrhyrFbaBouHJ2OKaoWyzFVJ58+e48rlazOKk84dZmDKqmDmKMZWv7YW4cKFC3Ss5uvO79AZwRNnt/i9yYTRxEideTXc1GbnLr9f/bYlJwhzK/RRXWdtghX4hnc+yUc/+gcc9hNrqxV1mFD7ihdfuMgDu9usd0uIo6zmlWpMlCjFLOSQy68LavFcuHyDiy++xF//5vfSQUlNg8MgBWIIVN4zTsLB6YA6NOyuVnzTU12+8e//V2x2BVIfMaPSDu9/91M0TYMnETRLTSqGiszKt1d7PcyM0+GAKHBl7wYhwkMPnqPShISYx1IcSYQGsl4DEYewurpKNON4PGR7s8fJ8Ij11ZJOgMISGyuKxyglMe73c3KpDZ+oQuk9kgKhGaMp08ss5bo0SZGqdGxsb3Hp+j7aXSNJYmu7JKWsGdKSa/AkHjt/nhSM63tHnHtwCyPnbaYyTSZCSAZFRRPh6S9/kbc8+nBmTriSJDWCYVju5yZGp8q0uMm4IQCCcnTSxyusdTsL5xwJscZZRASqAnpVh0F/Qn8wIqVEp+NZXanwXjgZDTi/uQFJ0apiVMPP/+KvsLO5xXd957dSxoauC8Ar6zvcdzHfxaTYYnfXqQjJLMLbVgRlRfvMT8rks8V3mDIfbq4Pf7NCDRyh5d2GvHAJ5C3ydIyVWqBxBWNVkvdEgdFoQq/bzdvoBh46/wD7+/s0EZK5Vvs3teGdNhW1MOhT+ll0yoUXn2d7fZUHd2DFwdZKj7IsuXTl2s3CKu0CnJNcd6mNjxpNgvEkq5h1HLzzqceIMXLxynXqZJgrGSl8/4/+JB/5nY8RtSC1Mdxp2MwkU6em5deRklo8H/6tP+Bn/sVvctQkGilpguC0IpqgReamNgYHByeUvuDhnXXcBHZWhMJGFJrwEnPGvqmpNKFNTSm5vxnTMu7W++10PIgxmNQkhaP+CBHH1toqhROQmLmxboGmKTLrENGtsmd6OhoRNIvsrG9sUAp0Uk3PGqowQuo+q2VBig2imjs5ACnWeCe42FBqfu9ZF2SLYDnpdv3gmKPhkMJBt5pSEBOqmo92QceXXN47YGJCjWCumOUVTLMyWYhGnYwr167x6IMP0CnyXZ5MsgeWYrv/EkrvEIuzeLk45ejkGCfK1loPTQksZGfOCVL4/F5NHpsYjdFokpNynYL11S6xGdHEwDgYiGcShBevn3J0MuRvfMdfowuseYNmdOep+NXP5q8M09jr7ARuYT3kv00pOzmoP9UWFYMUc+ZRLKEpUaogMeBFW3WhvD2VBcM95WG+2SHk5AapyQkXmRL9wYuHJJhWjKh46XjM5166ygDFFAanAzZ6q7iUoz7nz+0SQuDwdESdDO8zLzLrAQvBHEkya2JaohrNmCThC89e4MmnHoeUPeWts9s0ljg6OW71ZjN1yyxP7hABLeftzL/acRAYjWt6vR4a4ZHzZ4kYl6/voc7RoDxzbcTIr/D83gljcmks1naaUEeMuYeYti3Doyh7R5HPPfMSY9flxYMjRg5iUdHg275gnpGBacHhwQnSRM5vVFSpRm2MaMwXxFxebKDd0wV8ChRpkj062sSTtW3cnWM4mhCAq9f2KDoVG+tdrMnbdu8z1cym3R9SpDSPNMZGr4eSOOoPaAyOhmNWNjZzAY0D2saXUnhqMkd5KrIvkmOylrI28lSEf0rZI0W8wO7OFldvHHLj+JStzVU0QaEBlUAKDYlIIrJxZgOKDs9evkYQiFoQMIIYyXty43pDvOPpC88RLfHut78NafvOmeRzU81x+BgjnU6Jc8pklOUuQyR3JU6B9ZUOTnN8eBIacI7szhnmoNur6Pf7jEYTLCZ6Fax0KlQsJ6B9XhSSOD73xacxlPe87a2UsUHjGP8qDt994/kutmqZtqMpyxInSqhjGyOS3JsqhFkiweI08wwW48uqi4BW2Z6ZitKbGRbivMeaJKImgsTc/VZKhlaxP1J+4Md/mv/zp3+JWGUt39OjI3Y3NrKmqsCZnS1ijFw9OEDLkhDSrEgiIcSiYCKeWhx4196UBc++dIVJMJ566q2o5Ijp+voqrqzY27+BpOxRuXYxjZZFXu4G8p7IcGIMJ2O63QpnUHphbXWDg6NjQoJGhSuHJ4wouHhwTHIQ2kq/JmYdi9JXFGjuyusdIcKnP/9FgnSo1XPt8JhhglodR5PE//qD/5hnruyRfEkUODkd0as6lC7RcQFnAU2pnadtwrJloJhYGyayXKjRGrhMIYNOp8NgUhMFjk5P2VrfyOwTmS6G+ftnjnO7m2hlLVdWukBiNA5E4PRkyMrKWl4wZztNiIl2j/nyHcjMeZI8B5JAaBqMRKFZx6FJxsVLV1hbWaVQUIs59astFU4FUdjYOcP+8SGBXDACmdJlcWrUHU2IPPP8C5jzPLi7mwtJXF4QVbP9SJLlOYvSY6nOehRtGHI4GqOSZiXEZjFfQ4So2TsGKEtPHRqGozGF87lir6ooVDkZnBCNVoBI+NKFZ3ngoQdZKaHT7shfrajrja9w4xaVooVHhAQWqUpPDJZL+ywTrJ0vUfGICIX3zIkzJd51iY3hFidFa3inBt2nfLy5ow85RolmzypnwBOmEESpyw6jQvm/fvG3uHQC+yPH1WNjnGA0PGGlo9DuYM+d2QEHl6/v0Ui+mR0uL4AmHI0in376WaIvGCfLeg8oX372GsgKTzz2ePZwJVIWOfZ4cNQn4UktlxXaoJFTrN2mfnWJ05S3ThiDwSmdlR5Kjvnt7J7h0tUruS24waWrB9R49o9POakhqSdqiZQ9mqjQGC4aEgMxRoLBx//4M5x/6GHUea7duIF4iB6evrrHMzcG/MmXXiBILmXeOzxifWs7K4RZQpPhwnSeJtQC2oaGkmS+dGwpgFPvTiTTN7q9Hv1xZjsc7O2zu7M9Y0OISLtjyF501ER0Qg1EVVbWeiRJnPRHxACj0wk769uzkmTJcZXs5Ez1PriVBjpnZs8XBqPQ/NrdnTPEGNnfP2BncweXwMeIS/maWhvGSQ7OPXCWy1eukKMWTY7BNhOKFJAQshC+c3zxwvM8+dTb6XU9FYaFEVUx7b5hGA7EU3YqogXqSZbNFLKug/dKVYFZwNrwR4ptLr/9nlW3ZDSecDoc0ClLKgcrlYAZ4/GYYJnBcnB8zPMvvsA73/U2Km84ifMwyKvcjfcFpqdpZpno7j2+LEBzPXYdIrEtkZzUWd5OXIdBLBinEuc7sxkxS8aZzmJ0+qZOtGXkYpUcF7OWz6cGqBK8p5/g137v8/z5sy/wDe/7NqJ6nn7hClbk5onra5kiJMlYXYFur2T/6CDTq5wnJaiqiiTKr/3+x/nhn/wZ9gdjUlEQzGXNgWcvcnb3ATa6noKAtwZrGna3dzg6OgEUs2wAbcF1yET7r/4CansDDicDqqrKJdIGu2e2ub63R0h553/lylV8u9W9ejAgiieao06CFmVuFYPgXIW4iucvH3Bl/zof+CvfxubGKlevXkUKGBk8d32fprve6spKbqVzdMT2mZ18UsmwNE9u5oTnlF5nZH89F+Qu6k9YAtHs+Y7qhibmstkzmxs3VzLS6nVMKxctF8eYg+r/Z+9Ng+zIsvu+310y8221V2HvBnrn7EMOR5weDpfZ2OSYpDiiSIqLKS6WwnZYCvub7fAn26EPCodDirBkyyGGKJmyKFKyxQhJFilyuIiLyOnZ2JytZ7qnVwCFQi2o5b2Xy73HH87N914VCkCTQPegCZyIajRQr+rly7x58tz/+Z//P1dni/2DkuEQTAyszM+RGYvEZqZqVtW6w+upHS2ZHlOI6hJirT4+JUZWV5bxYpAQWZzXY7Ot+H5LeRTd7Z47e5rNq1fYH9X4XAWPjHFkWaGNwqzD3qjk1Vcv8sC5s3hAmhIrjU4jElW8KNH/skyHKMqqSvg87A+HdDq56kGZRkeYJ5x3XX/G6FreL0eMxhWdTgePni9nLPsHB4iFUgzPPvcCMTa89YnHQGokNmnHdnM+w9ch+R4ezZzyfvXLe08IQTvIEqmDYH2OyTIdDjDg8iI1OLpcGkaujIUGmygmKj133EPnvrYDRBuUojfRIHUgOZXkXNra59/9xq/y6GPn+csf/yYyK7x8aZ3NXSjrhsFgoBxKhNzB6uIcV65cQamxKpY9Kisa47i4Nab0c7y4sUOFRzoZByN4+eVLPP7QYxQWihDIQk1hhZMry2xe2aAGGsvEnh7AGcFIOJYf/qcLXXvWWJqqppPl6muGVvLD4ZCdoW6aNi5f5tTKCmC5fHWbKEoti8YljDujDjAOnlENT3/2s3Q6Ge942zJry312NjcZlVr5Pn95g93G8eLGHqWBMsC13X2Wl1YRQTV4TY7YTLfsTqgt1Io9YKNP18kh0Si+ip1Ma+V5TlkLwxE0dcXKwgIuYe2acEy6bjFdc0mebgEPdPIOw1HJtf2GzApz3Uz7VghiAtHqg89GScMTcWag5jAU4ZzDpCGMdoBiZSGn4y25iSzNzevPmunuy6CMCh+EM8sLdDPP+pXt1HQrKCVjWDUE46iwfPGrL+Ct421PPI4j4I16reTeat+BVh9Gt7q+WzAsxwqTGxVGHwwGkPQwdHcQscbg0IeEQ5PvqKwZlmN6vR4IZBYGvQ47e7sEp1q/n/n8F1ldWeTsqUHSTQaMh1vAZXdN5dtGCAHnfRK+FsRbqhgZNwHjPBhD3eiF2K3h7/z8P+NffOJ3GUeb3HMT88Ecbu4FO60j7uUIyKRTroxePUkBePHlVzHS8IPf/xRFhHMnV3jhxVc5qMC4jH6/O5mscgKn11a1wvMoS8BaojXYHF7Z2qX2XV7e2KI2hoMKLm5uMRru8tjDD2AjCbOPZNaxtDDP3vCAvXEk0Yz1GG3L0U5X7zYV6iKKk1ZVRSfPJv2A02uriAgXN7YZR9i9ts1jj5zHZzkbV3e0yjQG55TTW4rQuIIm9xwE+MNPfopvevc76Xt48NQy6+vrGA9jgYtXtxCXc2XngGsl7I5gPB6zsjDApG26CviYmenOxO6Rlnapn19akaIZy6ZOp8NoXLJ1TYXYl5cWkmuFYuZYHbCwAi5aXLQJUoi4CAuDOfZGJZt7QyIwmOsB+nmjU5ZBKyRj0rWfns9p4rWpGdgKY7VRZLDQ75HFwPJ8v+X80WD1+EhYfGw4e2IFh+Grr15hs4J/9/uf5asb+8igz4HkDAX+8DOfp5fnnD+1iNRjQj2i0ykoyzFGBIfR8W5R3LXT7TMal5Mhm+FwyGCuh8QZAa+oP2fU8whroFv0qOvA/v6Qbreg1aDq9ToMxyMCen2ff/EVHnvkITIDzhj1kRN7aOd2XNxFyVc/mXF60eumwfgMkwBtk3mG1VghiaJDdDnr+xXPbu7y5as7lLlj3LSShnqDtthyK98X7P1BCysOxX0NJJUtEgf3yuWL+DhkrW/oG3ji/FkuXrrC1Z0K6x2DQU8n4BKWd/bkSYb7B+zvR4K1ROswWcbOULi8uc9YPC+8fJnGgsnhhVdeotMVzp5dIEhIEooFZTQsry5jbeTK9lVqA1hBEk7UTmbR/nkbESWZQR6MGfR6E1bMqbU1vHO8sr7NxXWgqXn84QssLa1w+dI6Ca0hNBVFkVFjODCWF66O+Vt/9x9gjOPb3vfNdAROr8wRQuTilQaxcOnyFU6uncSK49VLFZvbFRkNa0sdctNgqNJ4d0qQYnDRkwWvGLAEjCkRWzJlUuuDyUTodrvsj8Zc3dzGEjm1ujaTnO3EGqjtqTgLRGUPOQv9fo/NgxFX94bUCIuLi2q2KZYoGTF6wGkzME4hgqnrx+wJrnXEP0EPyliC06tLWBpWFrtY0xAIBITQHltoyCSwstDDFzmf/tKL/I//+z/n//7Np/lb//AX+Z0vXGRYGP7xr/wOz3zpOT720Y/QM1AYyHNHWZZkmaqK6eescVYblr7TZ1hWkOiBe8MDHbBIDUWX5upbW3lvLTZAv9NFGmF7Z4esU0xaJp1+h4O6pASefeEqB+PAO976FmyjuwMTbdoZ3Hyx/imT72EpSMMMo9ZMv6bQwnF6qNOJJR3NVFxEq1T1hYpRJ4qsd4zqhuByvvzSJf7b/+lv88KVLfbLQCnwzJe/gunO8ermDsFC9DquOPlYZqZiSAvlPvQwjUYagkRVuvKw7K6FDgAAIABJREFUv7/P2vw8fWcoBE6vLlLWwtdeukTdNMzPz+tovYAJQSssa9navoaxjsYIpcA4BIYxIC7j0pVNMDAK8NLFS+Q5LC/lytE2OjKKBFaXFjE2snlth0p0XFxSJxrAvBaO7y2qYi24FHMdVw3dTh+btpJrC57cOLZ2D3jx4jo+M6wuz7G2usTGxgag23BvHaNxRWktz3z1Bf6X/+3vYazlv/rrP8ODqz18I5w7sUpjhK29Ia9eViWzJ9/7HmysePXSFbb2dsmcsDjXwbTdeZSnbgAb7WR0ecrQacAkbrbozs44hR46nQQb7B5gBBYXe1P9B2tolefaXYvS/lKyt7q9PhiNkpdbZH7eJp1aR4w2jZjLhMlw6JS3xyyHZQMmdLQoFAJnF3t0w5DVfo43AdBGomun0SRiDWRETi0v8crLX8Mby4/+2I+xeOIk/+if/hI/93/9Cp/99NN871Mf4oNPvhPX1BgiTRXwPps0+yDNQ+rHJcsyyjQSbIz2L7KsSJVueri3D3rCRMWuk3cJIuztHZBlDmvBOa2kd/YDtYFPfuoZOnnBow88QNcbXa9Gdwf+Fsn3lhNubbfUGacapE5HHI2IanqGANZgvKOJOu8esWTWU5YlUqjlRyyHeO+0ckpau5p4EzHfjpWq0uJaXl1KsRmVM/zqHz7DtpvnE5/+Mj/0AxcwEb76/HNIbGjKyLURdLMCk7YciispPVt5vxmIUkvuZXF1aw0hRJxNDZ7USW8Erm5tsTC3nKrMyPnzZxEDf/z5L2CMpTfo6UBLggrOnFgjBsOl9S3eemIJwdJYy6tb6zQIZ86eYf3VLzFuILfw0iuXePj8hTS6rB19EwKFhROLA2JTsb65SZPm6g2qqKbuD4I1TnmvN7x+18MSs3+LxhKdsD+uidaRdzs4o9oEBZ7Ta6u8dPESlfdEF1heNZw5ucgffPFp1VaPjiANYnJq4/iFX/p/OHlqlZ/+8R/lgcUcqSPBwerKCrURXtncoD8MNLXw1sdP89tFZGNzg7rqEgisri7T1LVS1mxbNZHoT4kBIBbVttB7xYidDA3VMWCw9Hsd6gouXr5Kf66Hy1G7HYQoASLkWUZslP4VUVlGMRbjYDCYY/jqJUbX9lic76E9WEsMyrd2evppZqppoX0opCSb/h0DQQzGaUWbWcGGyHsfO0PYPMPpXoapa6XNGYMJNd4YDI4YhZzAD3z4W/naxQ2+/UNP0kR4x7kf5Jd++V/y5c9/hg9/y3v5ge94D1loVF0NVYxrqoB1niApH4meA2uh3+tQ7e8SBWyA6mDEwmBBPxMGb3QH0MQam+WMmwZcrs1jhKqp6ff7is8L9AdLbL0y4uJVeOaZP+GD730XS4XBNmOib2gS08TJzQuGm343RlVpap+aSi5XMN0nEnXuHc4akIiECqFWTCxA5Tr8q1//Dzx/9RqN79DEoORrEya/s/19SgIXjHGqg9roPHw0ns29mk9/6SuMfYf/+MXn2WlgaOFLzz/P8sI8Ems2NrepolbUdsJy0CfsvZxsj4ZWB0wGVkIQ2lbWcDhkcWkZqbWyPXNigTxzXL16hcw7uhm6oI2A1CzMzeN9zs72LnWERkCc5eKlDQovvO0bHiEIXL46Zq+Eja1tzpw+SW6UvSBJXzc3hm5hWVlcYHd3lzpMsfqWuC/xOGv62ZCZP2/8ujpOp53y3BOlJjQlFlhdXWVzZ5fL6xusLS/RK2BloYczwuX1LaJ1eJeBcby8vs24qfm2J7+ZE8s5pqzIpVEh7qJDd7DIq1e2eeXyBv3ugLUFuPDAKb728svsVwGXebIsm1LGaDUJrh8ISlp9U/qktRMUWB2FuzRBuHLlKgvLC2SOCTPEGkkKZKJVprWENPUZREXYe70eVdlwbWub+UEfb1W3wRmLS1WzEJIc6eGzO7v71bOfBjqsS/zcCi8V73ziAj/7Yz+ER0VyxKYmoFUxfmtUzDSLNe969AF+4ENPUoxKFkLkgT787I98nL/5Mz/Jj3zvRylkjA16zdTZwk6q1ZYRFSbQBxTeUdcV1kJd62h0Jy8Sq0HF8rVSF6WyGeWa93sdtYI3hk6ngzU6d9Ltdtk/qPn3v/4prAS+6zs/QAbYJGOpo/Fy3fDY0bhp8nVOEyFACDWxqSgMdJ3BxgakJoaaUI/IQk3PC5kNNFIxtp7nd8b88m9/ll/+7U9R5T0an1E1JUZqGhkitqToePLMYQK46KliIFi1xB4fjHGZ4w8++TTRRL77Y9/DThn5wqsj/uTlA/bE8S3vey+5FdavXCIvvFJ0TAUTjYL2BLT0nXs7nLG4xDW11uKcI3c5VQlXrm6yuLKM82j3OcK5MyeRMGah39MOsDM4K1gH/X5Ov9/n1VdfxXq0UVpBtTumGyve+egFDJb17QOeu7hLSeThB8/hQoMRISYt4ZC0mOd7XbaubkAEb3XttZOL5pY8QXPk6/jIXU5ZloS6plsUGOewmQcHaydXWd/c4sUXX+bs2klsCQ+ePYeEyPrWVWpRcfNGIi+98gpNU/H4hXPYqsJKQ+YglEPlDZ88w+WrW1y+fIWV1SU6mdrtXNrY4fKVbQbzy2SZ1rPaIQ+qGyx20ihum8azn/HQ1jpNkg0GAwLC5SvrLM1rRSchTjDM9qsdzCDEhJ8HJAhLC4tUoeHq9hb9fl95vbFSbDfKxLPNHj2vhxQH9ctY3cK3cJFzBpFIbGpM6rs0Vod7gpWkoicYaTBS0TUBXw/Jx3usuMigGZMPDzjlar7x4bN0nSHUjRZmTZUeKkpXC02Fc27yQLPW4hIb5OBAm4njJlILLAzUZdlaHZ5pz3PhMzLn0+i18talqRl0igmYOuhlWGn44jOf4cMf/BaW5jzeqEM0mAmUep0u9ZG4KezQ7/fJMk8ME94xAOM60Mm6KvRnFAexDYRYYr2jEM/YwPrzJWU2x2e++gojB4v9OXzdoVcozaSudXzY2wzopdn/hFNXkf6iZSPAJ5/+LE88dJ6PfeQxPvGJ3+czX/gyJ06u0hjPR77zIX7zX48pyxFFH+b6XfLYReey0jSPscT2hCht8p4Nk7ZOEnWNNEDt4VoAZzOWl5cZDGDB5uzX8JZHzvO1rz3HytwcJxag01iIBZLBPnD+wXNsbW3RXwAbdXFeXb/C2eUBb3vUUUfh4pVt5hcXEDxve+IhlnrgZI60CaIxylc9f+4cX/rqVykyvWG6Pod0Y7nUGDs6nn6rmK09goESsBuGbpGzurzE/MDiKTDAAxfOY/0zjKuGR85fYKkP2YN9HIZru/vMLzm89IgGXnjlEktLSzx2YYEuYEZKW+vN5ew5OHv6DJ/64osMZZe3P36BpR689fHH+M2nn+PFVy/x9gdP0+vAXN4hjxnkDmkgT5+zSmWRO3L/ShDwhiJGamcpBRbmF8nznLqpuHD+Aeb7KhWZTxoySehIUNgh4cWNgX2B5eVlIsLG5hZPfsNbmB/AIBR0DK18rvKhbTqfM/fQ0SpdvfAgNFCnYRCXsozItGpW7FgmTTyXIAyx7QPGTb0E05ReHXW90s8UhCkyuoWODLfaIbXRpqwLQuMsYwdLC4uIgW4Prl4TsrzL4uIigx70TEFOhnNWxX6aiHhHYWCtXNLpOeNYWZpnaaDn8tTyPB2p6PY6/OD3PMlyDn7sVIBdkRd8vPU07U2T7/7+Ps64SWmP0fFE2+lx6Vpga2/E//cb/56nPvJhHlgYkBGpwxhcj6FkfPnZ57BFwcF4xG/81uf42JPvoo8wvLZHZtvxSNHpKOfUqE+CKiVVQjPq8vTXLrG9tcNf/J7vwe7DO976Vv7os59jbmHAhYcfwkVYGRRcWr/M9l4khJI8llr9QsLIUpNQWvzwHo20C9Biwys8RKS0BRcvDxnXNf25Pvv7EMsRjc15cG2RLJYsdDzXtgNBxojUmKLPMHrm5+f4whe+wPY1TRqNg0tXLrKytkQ5hNW1kzz34ssMrmwy15/HRjjY3seZVJFFR/QZY5fT7XbZ3LlGFaAZjxCpdaR1ZtNirD32M90oZqcpg7GULmNza4NQDrExsnetwZuGoeswGAyomgbnVHO2HumNPdfr8NKLL3Jt75swAuMIz37tRR548DzXtgPDekjXOdU5oOHA9Vns9hnuXqOONWdW3kG5B0sDpXBtXttlbu4M5QEM6z2qUKnjbRCK1BRrrFbAbuIKoXVUDDVYTUIm7zOWHETSPRopnOPgWgDTMA71BKpxAhIafOYIMRLFUhpP7TpIDBiXTXQ49ncjJo6ppCYEp+O2UqON6+OffCa9TwgKqRijWh5gJ9CitVY1RJj6KepDQa+SSEScTXRThSQz51U3N/PKV3Y6/UoT8M4wPrDUdUme50QCjU1Ox0GpgAe2IMbI7rV99sawtbs/MX4djaBphmRSaS+kbujkHcpGGFtPrARparI8w0rk2nZDz0KnqejVuzz15JOYg0B5UBLFUDY10Wkl79MHXF1buOHavGkmavE2SJw/o5qlu3Xk4m7D3/3H/4Lf+txX+OSzLzKyGWX0YHKCaDW8eXWdkysLPProw/zuJz9D5eEg5gQ/T2VyyqjiKwFhXDeIGHqdDlXZIC6jxPEf/vBTDBaXeOujF/A1fPPbnsDVY/Z3tnns/AOYMZxdW2b98sbMtI1hlnHRWgzdw2lXQ+yEU2pNsqNxgDVsbl0jz3o6gYTgrcHFyPnTKxTNAcuDLrlVrNYZXahE4dTaCZoQ2NzeIzo4KGFn9xon1lYgwrlz51i/cpVXX7nEhQfOp2mm5FCATLBJI7C2tkYTDNt7ikc2qWniDBjrcT6/zROg+OVwOMQ7R7eTQ2zUCgdYXezQzRw+Bs6cWEUqyCOcP3uGq5s7jBvtZeyNarav7XDhwgW8MxSZ6o0AOAQbKs6dXMXFBtuUnD25jI1w5oQOP2Tesjw3p8T+qM1hEwWfsPDE85jABVEMUUwSyfFpO60gQGyEwmeEWOMsnFhbSsI7AWIDQZvgLdOjaZpJd987i3NWBwiApmlYSte/3TlOWRKHucU3iixT7nQIAaIOY3iv+HaW+MJ6P+qXxNSdEUMwjiZGTJaplobPqKPg84w6BqqmZjweE0Mgz9zkmFuvvGn/aCZ3Reh2OmAdVQ3XdoeIsaqDnD5OC8dYa1UoXQJ5ZuklXnvTNHTzgtwapK541xOP81e+76M89eQ3Mu+FOB4jTZ0g2pY1cWv96Zt+12KmOFGaZKlswaWdkr//87/M5sgi3WXWd0dEB+I83uepooGr6y9x/tQ83/Tut3B5e49PP7/Hrodta9iJHZqixxBLzAqidUQD9cGIzHtiVrAPfObLz/KWd7+DXh96Dt750DwnM8HtbvKuhx9k3sLZlRV2dvYpG4iqQw+S0Srlg8GIua9shiY1EWUsTBSgjGN9Q0VtlhfnkZBErE3gzHzBux97iAdOrWgzyOlUkzbeDGtrJwDLpY1LCHDtQG1yTpxYwzpVP9vfvsbWxlUunDuHhCSaIzow66xWPjEGlpdX8FmHi+u7WJeDKHXHiA6HNBGuW7Ktlc+NviZhk3tyznBUAtDNC63GbMRJw5yHBxZ7DEzFicUuHacWOYuDOS5vbKtpo4WvPfcVREoevnAGqXWkNcuyia25F8O5tRXy2JA7w9raKoiOpq4u9umahrXFeVxI4jWpwWOtpXWVPspVB92qB0nXDSE2Nc4YBr0+mTV4azixvJSadlNh8dnk4qzHJm2PGCOEyFy/i7o2K8dXFQTjzEhymgxMP3f8+dWip67VLqkVRorSQGwwEiaTq62MacTqFJjJVLbTZIjtUEVHtAWNeMQWDMtIIMPnPfKsM0mIEqJOKTrdnVvvJtoOk6OSSDcvMHgORjAaq1j63Nxcarjpg0UNNg3e+EMiPS5Jk/U63YR7OworPPWt76EIe8hoj453mPSgOEy/vY3kKygrobXODsZRS84/+ef/L/ujET/9n/00Z86c4dLFdfRBF/VJZCz7w4ada1d56NQS73vXBXr9Dr/xW7/Nv/q1P+K/+5//Dv/r//nzfO3qPgdkVC5HnHYVc59pdRIClza3wRgunDtLrMA0Nf0I73/7I1xY6vLYqTl8AyvLSxwMS0Y1066wzHJ+W4Wz61oG91y08o7W2sQvVTff4agk73boZI5cWfg4A1mM/PWf+FE++IH3E6tKK4yE/2XWsLK8RCRwdWePUuDK5i51sKwuLuECXDh9CiMVmdScPbUGpA5zCOryK6pmklnL8tIiMcDFS1dojKex6gqrOOIduHJiiALjsgHjcLkaNYoETDOmE+Hxkws8fmKehRx8rHF1wwOnTzFu4NK2ECy88NIrZNZw+uQKRe6pxmVy881QIX/D2lxGJ1bMFYaVeR0JtgIPn1khC0NOzA/IBZxJWsWpQ6+J6RjGw8zHnyTUqDzpftfiJUA1ZqHfwSOTrXwrNhVjJEhMyfvw75nrdxLPVpgb9Kd6wRMFNFGo4rgG0hEYz3s/qdjb4m0CffhEvCWm4Z448Q6cNBnbn4kQIxNdB4cj1g0xBN1dWGV0xKhiO84dSbppvXhrKbIc4zLKCobjihCEbs8SJUzuBWBSQbefP8sgKzKM0R25S4yv2DTE8T5zmSGzAOrxR9LmeK0aMrfeidvEwTOWaDN2DmpeefUy3/Wd7+Phk/Dgyhybr7yAC+Ax5NZS1zWXNq9iXMappUXmDHzHe97By89/iT/4vd/m4SceYWP/gL/99/4PPvfiyxxYQ2O9iotIMudzjsvr62QhcH5tjUIiRSjpxCE/9NS38d//Fz/LvNHKZGVlhaqJbO8Mie2zJxosDmMTViZmRjzj3g2XKoNGmsm1RQxXt3eYn58nQ2lmoFvgPFb0TIRqrE4OM11ziYHFeYP3jlcvb1IZWL+6B+I5vXyCXoQzK3PkMsJzwPkHV1QSUVIVlkjuDrV8WZnvsrgwx+/87u+xMxZKcqLvUDWJ4C/TJuprjxZ+0pBoqCqFuPIOjGNNsAFPoAgjfup7P8R/81d/kG4YYesxHRN57KGHGNaRT/zB05QWnn3xFR5++GEKB00dybJCoYHEywUViT+zWPDI2RVcgCyAD/DQyQG9sMephR6OJJWKw2Y5TQyTz2eZbs/1b23z2EwrNtHk283BhpKTi3N0LJgw3fC2PZVJ9euyNL6cHsRGKDLoevCxYXlxgaqq0iCGAatjzzgPk2M5fE5n/70dzpj8v6idaDu2q2ykkIaL0/U0zUSPwUlyoRAhM2BCg41qyOnbcXimEIiITJLm5IqnIRJjDM7o+HXTRKo6cnAwIssyvAfjpjRGsIRGLYuaOp1roCgyotT0chXuCtIgflq8tEMVGiYVfKTPcvO1evMhi7SQotGnUDSWr774CkHgsQvn6Do4s7bEHw/32d8f0ZvrEEKg6HR5+eJzNAHOnzxJH/jI+7+Zh06t8OBD5xkMcra2Ar/wi/+Mn/sn/5Sf+vEf4cnHHgEbaBrwWUYtsLG1Se4MK3N9HBWZgUCNdR6XgZGasXEsLy8iImztbGNO9iYLLUblkkbTJh2TDBLvXd6vVmipiYIOXIiF7Z0dFhYXtVkhWpUYsfgoMBlsiJi06ExKmN44vundb+eTn36GD3zku7i8vQs+Z6mfkwms9GC16+h3C+ZysLHFxEwy1tTjctLgxfOjP/xx/v4/+If8m1/7BD/8vR+mCtDNdJuZOzvpQdxOlGVJp9PRCtAqJCVRyBEyF2iqEheNTkgRObm0wPd89CP869/6XR6+8CAvr2/zwW99NDWJDCFC5pJmsc1xIvgY+Okf+QF6gw4dKcki5C7jw3/hnTx2apG1uQ621oo5AE3ZkHUyYggT0ZrrKyOdgTNGPdKczwgSyZxlMTecWZ5PrJDWo41DuGPEJnEZi3cWoqWMEe8tXROJsaRXaAEVo8FKa8qjv0ysOdLf/NPfS9OKXqt8S+u8mNTIiAk2jbRejYd5xKS1eZi2dJgBkx4GUeUKcq8iN+MqUpY1eZ4UzeqpH55DP2sdA9a5VFlDr7AcWGHQM9imSc+clFPkOObN7Dm5DZ5va5GCcdQiRGv42ssvkxUFZ04uYyt48NwZxMDlrS0qDFF00u3VKzt0BkuszM+RVxWne45v/YaHeLhrWBpXPD7v+Bv/6U+wsrTK7//R04yCEGymhH/nCAZefPklFpcGDPqJZzxDMyoS19hIYGllGesdGxvrukgkqgqTUXtsY0QV+G/Bu7sXwifedi2NWo1jccDm9haLy6nZIjOLJylGueSCYEJDhlWx7tjQMw1Pfcf7CdHzb379U6zvDVk+dQoHuCrQB77zvW/n2979DQxMxIuyUFoXZV1fEScBLxVPPHCCj37nt/M7v/cf+dKLmwSbUQZDZg11dXNbltcShsh4tM+gX+ikXWrOStTz4k2km9sEt6lGQC8TPvz+d3P+5Bq/+Mu/grgejz782ASn9d4TpUEI1CFgjSePFY+cWeX0YpdeHNOLIzr1HstZ5F2PPIgNJZmz2kjMcqx3WnnJLFNZk0g0E4R0wvPNsizxdWtMEzi3Ms+Fk8s3qbamW+t2uCmEACHSsXBirmC56+h5Em7aevhNq83j00WqeG/wdRgb1ge+9l8MNpppMzwl3EMqhwmakBs4mGsmP7KzaYV6jFEcO0aKIkOMun0cDEfqYIIm3Nb0dRYb16euRaqaXgYd2+DTNZk1ZNDP59ODsklDXaQxktcAKtzsm8Yki5SW4mHg+Zde5uTpM8zllhxYXlxCjOOVy5fVqDb31AEurW+wduKUUgJjg4z2KUyNaw7ImgPyAItdeOsT38Czz79ILZZxE9WzqQ4YB5cvX+bcmZOT+WvtAlvdnokS040Reh1Lr9dha2uL2I5PioDV7a1alMZ7uN6dRtuQCFr4IMZR1jAeD1lY7E+wwsnrk4hKK87tjFWCPlA4i63HnFqc5zu+/QN86tOf5Nlnn2VtbUW5jjZQEPj+j36Ipz7wPrJ6hBNVvZqIcLd8USJeAn0LP/zxD3Dq9AP8o1/4RfZLbZLFRJa/3WlFY/Wz9nKfbM8NJk57AzqdNR1yQBqoR6x04Cc+/p9gQ0UYj3j8wdP4Wh9IMdSYqHbqLV5oARMqYjkiSw8vLwEbSqiH2FhDVPucJkaMsRPGxGwc/bTWeoIY6jok55CGfmb4m3/tp/j4d3/wUPIVzFTbOkWVcHtvLJm3OAth3HByrmClsGSJeSHRYcj0epsp8+L2w6bd5xHo4ki0OhER1ETzSIV59EharV7MYewXE+kWHcSoaer+aEi/30+OITph2YrqaOJV1oSIUDjHSjdjuZfhUONYhUX0V2tDLTX0mdqhSfrebbEdWl2HgAVXcFDCxcsbnH/gAjZAYWGu73XK6fIlAiSsBdbX1zlz9pQqUzmL6+RUROpMYGApwz6C8La3P0GIkT9+9ivE3CMmQ2JGVcLB3pBzJ05gggqaiHE6MMH0pvWJqL26ssTm5lUwVhW2mFksUWawmXs7BYdQa6XpHGIMUdTNFRNZmp8/co6OuUHStJOINsxsFDKBD33re1jqGUwz5NTKAiINmYu4EOBgRJdARsDJ9QlG30kZB6Y+oBB46rs/ysG45OLlK9SiWFzLJridaBDG1YhO7lUCMKiCmDOOIEqlLGNUJT3rwBgyG8nGI95ydsBf/fh385FveSdLGfSoMM0YJw3ORCRW+nBLD3+fZ+RFQYgWYzOiWDouJ7cO7wx1qJJ8ZkBCIM+yJDY1rRZlUvm110/PQZZlmqylJoz2WfCQ13WSijy8HZ5d8Tq1alQova5AGgonPPWBv8CPft9TuFiDpEmttIU2ratFYmHM6m8fW5HORHv8yn5FG6nGTwS6gpmKdR1mB7TnID0JZWYttucGphKcTD9zTGO+ra1V0ckxWMZ1w95wRG/QxzSqHtfaLE0wZFC9tRDJDZxd6vGWcydwoVaxdokc8p1MzX3dJ0wx++Pslo7GLWpjxeUiaqJ48dJl6nLMwxfOYQPYAJ1MDfI2NjYJqK7rtYMDxuWQM2treJMutGhnsglCEwSfgbOBxy+cYq7o8rk//gKNQBCLOM+ljWs0wXBidQ0rkihOTAYy1CRPtxU0kVNra6xf3SAIGOuUuiYy4RMaCfj7kpJgp5VBjBCtZWN7B28dSwv9Q/Pobf0w23mPMS1qZ6mbhtzl9DLLah8+9m3voVPucG6phycgteL0HZ/0OhKWfL2riL6nk0DXBLpeqT3OZoxGpQ7ghETwv40hGZUWdRyMarJOlip6O8FJMapfYL3TTrvewUCksBE3Knn/Ox7lx7//I/j6gEJqPEFhh6gYpQm1VvdWqKqKpgmJUZLRREtVNRMerPMGMQHrkouv2MmWfFLJzYSRREcTQ1XXFLlXMXipmPOCq8eHK9+2ek/J+9A5T0yJzBq8BJ548CRvfegcmag9PQkfJuk6tPDD7XBOWoXDqfJhOk7atTYzBDTzGcS0yXaqknijKcfW923mXVXHwcCoKtkfj+j1+0iETFTvYjZaj7w8z6Ep+aGnPsJ//dd+CGlUCgEON31lJsG2jtvmyGe4UbwmVTNjtKnw3PNfpZsbHjp3go4TQqwhZJw6ucLn/+TLNAK+8Dz/7PNYgTNrq9g64GOEWJH7jCgdnfNGcKYhqzzve9s7ePqzn2NUQ24N0cNXX72M+JyzJ85omW9I3l4o1mX0SeyahiwrWFtdZf9TB+yNaopOjrM1IalvGYlEUSU2MXJbN/CbPay1Wv2G5PTsdeJKJLC6uISZvQ0M+ImjhC44770mQm/BF9QiNKMhGZGPve+dzJuab3zsLD3A4JCgN91erap1OS7ddpqAg5luLx1AU+EFVhfnCXXJaH+PEIRadJggkX3/TNGa0e+NG87254iScD+SiaKJBBGcOB0QQKE2ESFzVvFgKmwQOiZCqLHWU4cGawyZ1QdMEyNZ5vVDWUVwmwasL9T1A21uWW9p6jEGR2EzYhVx1k5NLlOiUubY0Yh7AAAgAElEQVSDfga9H7W+rusalwsd5xjtbNPPu4yRNAJsj4ForO4AoyKyzmq7y0ikb4UQxjQ2R5JXImIRqbTSNSAzabJNWZMk+JoQielDV90e9O8tje6wqNDhKvfmMYv5KiQm1hAlua7kiucPRyX75YhOv4cXsBFCMl7Q0WtVRMsyRz0uyZwDKcmagn7HMRrt0fGHU2Yw2phzYjBYLRSTkuKtzsnNG26SthTWUEZ4+eI68/MDVha94lyhJkd46OwZdnd32dkXSuDl9U2EmrNnFpWojCEzIHUDTSCzmVatoWKQwdufeJTRaMxzL1wieqgFrmxt433OqRPz2DS5og0OiCEQgm5FjRGchflBH4C9/RFV2prNEs0Vs3qtF/PPb8Q0mO+sVjI1cG1vl9A0LM4XafFMV43MJAIxU9UoYIJvemuYyx2+HvLB976b5dxiQpMaR5rYvPdkvtBfauLk5tWuvFZaYox2oQPMdS3eCTt7O/jCTBT2bk+PWaumcVmTdzsTypY6ZivdyRtLXVZkTsn77QRVjA3OCF5qMqkJdTXlw6IwQB21ieWcoanLtjFObFRAJhoITUycW62wvPeaBJswIfS3t6Vhdocwg0nLVKw8BlRoppPRQgSTpCsti2B6BibTalapcXVdIyFOXCiYVL568FOXZLltpknrymGYOUbTPhKP/93tGbn+uuvqmq2Yp+/BITHzLNOfH1WlOphk+cTqXgWAVEtC9WZqMIJ3BhsDhTG4GKjLEZ1ucYy2SIJUEvxBGuZ6LZZXN81EOknTEIHaKb/x/EMPQlQpwsxl5DFyZm0VZzwX17cYR7i0sctgoU9egDhLgyM2hsJ6kBqkxJqIkQZkzOOPnSfvzSXrbT2qjUuXObWypvqmJmhVlEYmnUvcY2lhEeHEiRNYgctX1nHeY5OWKDQEabCuQG5d6P+5D4nJOysqiT5E2NjeYmVlZbJobGq6aVWSCPEz+K9xYGLCfI3eTLFuVIksiWpPsD4TcEbHaE2YNvMk/b72fUAr02AdwUJeQOYte6N9qiA6tspRuILrsMJpt/zI5267/QLleEiWdyBTiUmxCmUZVF0vcxkqHyDJF0xx6oAkex4B76lFdw8GtTPHKGSm0FfqgovFG5uqugZjNdF44zX/BIsVbfSou3B7c8eJQLlWZfrlMKohIZI+kwOTq9+Z0QbbLHQ01dyNTBKx6Bh+iEJmVTmuTuO9aisVsNQY24q8GzB6fm7OZrh1tMyGSQ2dfr41vRSTviavnxrgtudEP4NH8DOYuK4nl77vTA7i0qQddLpdtnd2MAJzgwFNTE28Ge46qA65iaLshSTHaZLCnuLtM1wUmWFntH52k+O/TbbD7ITKpY0RB6OSh88/iBcoMoMJARcCJ5ZWEGt5af0qV6/BF7/yAufPnMQL1OUBoE/4qmpUACPNs+c+g1CTOXjLW57gC1/5MkOBkVFh6FMnT5I5KLxJs++W6YxaSgZJ7KeT69x/WYe0ZdYRTEl2JVPL+nu98rWQJPOMRIyD3d1dNRQ0bSV6BLO6AcPgaPNBb6zDXd/Zm/5w4tRrcRTfCxiMwvkMBn0OxiPd+h+TeF9rtBtlwVKWabCgKCZKfamOR6RdHQkYMajo96Eu/7ShMnuDTRPSjXabxzSnZpJOexxHf/7683b0w02Fo/40u4IbHb++5/RYb/x5Xp847v0OVe4z/z61r59ixSZplrSUvFbrIc9zdnZ2sIJOvBlDnLFkOpbJMUnq7YvMdQ+bQ9dHbnb9r49btOMMYhxBIi++/BJGhLecP48rR7imxEqJkcjcQpfe8gmev3iFn/v5fwkh8pc/9jEGVAxcIDMVIdT4TsG4FjA5EgwuQMcYYl3ylrc+ys5wn1/7w2fYKOHasOLEiRPUo1HSSHXHHq5NY5bdogO0VJrrP8qsQMi9HtORT60KNjc3WVpauvH8352Gaq77fTNk+fbiGRgMBhwcHEy2u3fCAmo0GmFwdLvF5P1uvjamlc79uNsiHlsYGGNo4tQOSAS63T6bm5uAGmDOXu7p/XDkdx1Zp3e6bLvlPjyISvG9+spFBr0uJ5fm6cgY0/IMjSFG5ft+4U+eoWctP/Mjf4nTiz3MeAfjVGgD4ynrhmAt3nlMI0gTESf0e55vfsfDPP35x/m3v/pbDJscYxwn107Q73XImoZhNcZnxXXH1564orAQhbKuDlFH2tfcn684HBMMN8De3gHLCzPSd2JhspVX3PCNCochBvAWep2c/YNdolGLcQk1t5sIx62oTqej925aG0crn/tef2+esG2TkWnDrQVmlaWhI8bleAsngbl+90jyTR396b9MdyOv4zq4OeabsB7rPFeubrCyvIyPgcxEsMrRA4tp4LEHT1FUu3z0fe/iW952kqw8oJ+sUqIYxcCSj31EE7rJcrz3lHv79GPkp/7i93F6eZVf+7e/ho2BB86eYDjeJxLI8pyQDFCmT6m0NRKhbUKqDYhehLaL6dAhiztDEn9zx/Qpr7h5OVYfvn6/P4EAjl1wf0ps77XG0fcySbvAofY2e3sHWGvS5NLtv/+4KgFLURSJCzr73u4eZ4G/GeLmV0gSTU+1F5RxA0nq0gg2Rvrdzk1zwQxifmcO+QZxC7aDEK3a921t7bC8vIwhEioVua6Txl7Hwfvf/gR/5WMf5C995H3Y0Zh+binHY+pgiNZPGEKZs1RViRioYmA4Khl0CuYksuLhP/+JH2a145nzgdU5KHLPuK4Qe3jCplW6asVBvFUCeVWlyhd7+PUzKk33eui0IERjGFUlAnSKQp2Ev26YuJ2hU2lFvji/wN7BSMn5M/Y5txPjsa6PXtFJkon318WbLcxMH+Foz0DDTvDe9mFeZDneWJyN9DpmAjVJmgUwxDccXLo57GAdTbSMGtjb22N1dQWfZ4RgEZMBNoldBx45Oc9jp96Nj0OIFUEMvsgZNYJxnsL5pCHbkPmWmmHwpoNpIpTX6GcFDwz6/I2f/Dh7WztkIWrVk0zurHcQmkMwggpDG4zRp9ss5mtmSDP3Q2O2sxvFUFYVxli6eTal6MxisJCEie5MgpptYWgXf5aPqjxUb/WNB4MBTRMZjaGbnE9u94IejEZJIrA7aToejdlqXMxrI8zfj7sjJrQ4/UuiOlq63S6IkFtDNweCmnhKVPbycQ/269CIOxw3Tb7GGKogHIzHlGXJ4uKiOn+mvZp2FsERaOoSbyM2jfGKsQRsEpk2xJYyoi5MOj2DBesIdUU/d0QJ9E3JE+eWyB84QazHWBPwPqeKQoz1ZCJl9snl0OPIvFcrDzMdO2xfK8JkKu5eDiFgjSWKTkqFkLiQ3h6TZF4fvDca9e2aHpSdLPL2GJyBTu6xzrM/HLM8l6FeQn/2Y4rGMK5qMJZukU0Wv46eu7Sm/owf6n68/mFiy0878vdpRNOyNZLOBjrn0ut0IDRkmSX3QKNFm4hRls8hTYg3hhV1y+Rrfcaly5fI85wTq8tI0up0oo6jYqcjpxG9h2SG9mJCgydRxEyi7ZiIk1ZnV0eHK1GdTyNjcmNwoSEHfIyTxGmMmYjsGOcIImTOUIWAWOh0iqk4yQxGqJqfOgJ6ryv6+om3FmA9o7ImhMCg150m35QMpxoBr0cSvgGp3hiImnwX5uYJEjkYjTHz+R25fsNxRdNE+t0CEqVKFbCmcaNC989Kdbsfdy5uPVEXk1+jFhoxJhsjp+p984OOGr1aHfHWIRL9OZWffeOevjdN71WjAxZbO7uEumJ1eWX6g5KEUGjAtGIplmBUKrA9S6048qRBNoOvGWECDARjaGzLM2wFlaNOXEmS2ms9yJh2pxXz1aeb9566rrWqbrep+iJ9v/tlzaGnu4ikBqUh9/4NA2lulMTaAQZjwMZIp6Osl/3hGLFpwus2L+G4rLBeNREcR1kOLXe8XaNxpsl4b/PD74qYXAtz/N+Z3uMmcbRt+m6eeZwJDDoZE/kHo/KaLa/9jc4PN11RxhjEKg80yz0LczqNYxKZPo3oMCVjOwSH+tbbiSW0SbpD0USCIenItqHygo3x1CYjkoFkiTjORESjxSNnSc06Gji9eVrM97i4z3TQmMA1NlnqVDXGOIosSw23r3/zyQKIMD83IGLZ2du7Y3DAcDikKLp4mxo3aQ2p28KdeY/78caGSTmh3RXrmLXCnyZRzxRmEuZ7PWw8zPtvR6ev0+SBNEGXxOnv8Pq4RfJ1YODq1iary0tauKaGjCbGNKI33a9O/ne2cdOKZ7Tc0sk00HUScgppTJTUsKo7O4MHzp60FoZozf46WU6Zkm87az37RLt/b2lIuhjGGMqxnq9O7nXi7difeP0S8uH3S5Ny6MN9vj8gIuwdjNSB5jYzsGAYlRWdTif1KszkPY9/OH99uM734xYxY1tkbkJ/tAl6MDHSLXIkBvpFPnMplc87u4t+I+OW2g4xwsbGJqdWV5K6mCS1JTvBR2YFM1obmjYnRwwhvS62s+AwqYDbxKrixoKVZF9iDMFCY8ykeXZUGBqYbBFjTOImda15XFpuaHvTHj8Nc69FKwYTUaxdea+RLHOvQQzkDTx/JlIUBms9o1F57NTinyVGZU2321VRnYT3TrnjtwJe7q+fr3fEW0JPM7rDRvfimMigk+EkMugUWLT3ASRYwk2m4eBGDJc7n5hvDTsI7F3bZXlxEZderUMS+qdWnuaQFQgcX6K3+Is55q1Na1OjkuyTeXoxlmDcoRN+vWZnwnUKT12HyZCF/nz6mfuwwyRkgoGrnxlAkefXnyMz+8C6g4nnJg9Bk/jcRiLWQtHtsj88uGNvPR6PKbq9G9LM4H6KvfvjxmyEoy4WQlD7+E4BsW0sz+prGGxibR0Xh/PYnc0hNxfWsbC3N6aua1aWFpnMpyViumojtQeoE2/BKFQwfZ2iwVaUXjT5Skm7rYQNDcaUYEowNdZUWlFHnzDkqYAGHJ9M8zynrCuCHH8D3W+4AUSMVegmCIyrBms9ee5pz9rRyuL1HLE8Gkcf2nNzc+q0YVVV7HZjVFaHRXVk6sZ8P94M8doan5p0p+up0+lgjDCYU+nZGKe2Yje3SNIq+vWIm36SRiwb29uIgaXFhfS8OaLOdOjOnEmO7eKe+a4m6tZAL042ebYFZ9vfcaTaOnpDHuqWtwwIA97lNFWtFXZqKsnMMdxvqKSFBon2h1LzrMf76x9oh8/bHeQ+zuB003ecDlqAwaQHe6/X4+DgIEFJh4/vqE3L0fQZjZ140MX0XlVVqYZu6oYfTr6zxzD7//fj7ouE1R+56GoXbw71hTzCwEX61Cx2PLmRBJFCYqXpLr79mcnCj+qeMh0LuqOf4KY838bmXNrZpxLDydUVshhwMSRsUBfotGk2bdZYiUmeLh7i5elN38rnTZsrypYwgMOKS/YlLSYTJz/fjg2GEPDOEaOo8lq04JKv1bhUWxhraZox3mbK85XYTnbc0yHWIUG3Yohaafd6A5oashkMP7yOhaC6M8wkONPahuslMkx3R4vz8zz/wgvESFojyYsvuca22reTZSY6CRmCT2smYYDp95fjmn63R2gixoJ1BUECVpobVr+q2dtKLN5Pxl/PsEegolS+pe8pSaCuGrz3CBBiIHORc33L//Bf/iSn19awIblzSGKhJulIkZjW5dH+kklJGO4k8nDz8WLn2di+Bs6zuDAHEq5T1z/EkpzBfPU47XUHe6R2Ofza9AJ7g9fAYbZD+3fVedDkSzTM+iwerbzv5fQbjf7HWq8UHCNUVYN3uZ70cD0Ht6XxzBo63pFjAcBiTcPsVZlNbgbodHLG4/Gxz81DVY9Y1L7lGNxPLFiFWeq6nngAGlFnDmenRPtZ9E/aJH8fBX5Txey0mohgYmAus2QLfTKpj/2Z2ST+RsXN2Q4GNjfWWZwb0O3e/bNheZ4TRajT+Z1N0vcxPQ0RUR83BIylLEuK4hipzuv+4c6yRY6CGIfAKzMdtpgfzFGWJU3z2rHn6+REU4SgybcoMqxTXHDafDT3m7J/DuIoFbVl96js7PXr/OsZt6CaCdvb25w8eZJQ3b0JrMVo8uRmUTWafe/W4/16hZUpm6CNqqom5+1wTJPtG6NtO9tMbY8T+v0uEmpGo7HyzttXHz2mpCdy9IE7Jd6ry4kQlOd7KM9Ox9BhWv2bIzu5+/HmiTbhOqdrpmmaZAN098TNJSUxXNveYWV5kRCbG1Jz3uhoq5S2UdKqXWXeI9ZQV82h192vaKahUnsNWIcYXZR54SffOz5ej+s+07SdHNzM6LkxmBgZ9Do459jd3UWMO4K5Xv87Wtfdo6EWQqUqmhWdidygtZYorbLV7O7uuM98H+99M0Rb7YbWeDdd57utGLvpaqrrhr29PRbn5ikyf1clsUNbS6vVUp57jLHqZnEXHevdGhFDVY3pZPlN+rjx65Jy2gfn3KCPM7Cztz+j1dHSE6+P6cAEhyAFUI6vxdDt5JAKidkbcpZofz/NvjmjLcpaXH+2+HpTJd+r2ztI07C2vIyzt57/eaPiKC/TRFGrkEwxXzXRvN6X635CbhenmzSwxuNx4vjq9Z1u52OiA75+cTPqn4kBa4T5QR9io15urVu1mWkMJvfkoywEY9U8VUNH1kdlhUigKDL919bo8zWMl85SFu/H3Ruznnxttdv+W+sFeLfETdkOVzc3ybxXKclGqVrHiU+8kXGd2WEUsEo1ynKHiKFRWbPJS/T1928dSA03ZwmiDaymGpNnbqqb8QYdx3GJV8WrzcyEoko/htBQ1hVN0m5uwx4zTGNwOgJPyx9nIl1a1zUiQp55fFoShxJvC2XRrpb7XN83WzjnJkm2zRNTI827KwfcdFUdHIywFub6PZgBr7+eMeu8G2NMAumCQch9hhid348w1a1l2uW/18Mb1THVqkAr3263IM6IzCsP95idzuvg4aYxTXezW0QL9LoG7wzXdveSrCTcbNlOvPuiJB+vJO5vLQejIc4IvU4+YTrc7MY8hC6bN6rxeD9uJ46bWLxb+z43vZt29/cgCp3ck1lDlIa7qftrjJnQjxwG71W450ZdzbvxArzRMZGUNJaqIVWC2URo5MY/eOcS72RwxsQjv1cmTbe28lXn2ZyyLFO1PvtIiNj0ZeTw3ua6ab1U+UJrpmg4bKo625C5e9b4/fjzGze9o3Z29ykyRzdXDM3Eu4eq0VYh05tHKLKcgFBWNTqxcr9UORptZRixVI2euzzPp9jYDAP36zGOPVX704RqgLlBj92DfVXTu8XPH8b5Y4IRHFHUQkgk0C1ylc+Uw5W2ued9Tu7HGxk3hx1GQ+bn5/EGYlPfdd3CKQShTZe8UFPPcVW/oWIwb9ZQs1Ehz7UBdcPr+3rBDbf6vUYx6IXBHHt7e5MR88nD4dBrdUR0OqAx3Wq2WtJlWWIEio6d7gBSA/L6t76/S7ofr2/cAnbYZ2F+oI2JELF3WfJtw4puZQuv28mqbLixSNy9HW2CjQJVqdvwwmdIaK3ZzbGtyVYI/05HbKVJOZxMdUAiYmJgMNdnb/cAsSQt6WOOr/3zutFimTQSy3GN85bMMlHbO/Q7RA5V+/cT8P14PeOmGeratWv0+yrBdjc2q47OcKsguDtkJWSO/Hmvhw4hqNB8WTcglqIojvEy4wbjxHdoHdxkVFnkcBXe63QZjkea/A9Vy4d/x2xSPq6KH1UlWZbhLIdcUY6+9r763f14I+IWbIchg0FfLVcMyF1muz574/z/7b17jGXXdd75W3vvc869VV39INlkN9mi1CRF0pJpiqItRZQsWZFl2IkVJ7HGNhzLBsZOMhMETpA/giAYYGaAcYLJDCZAAsRJDEcTBwPJj9ixIyeyrYclM5RpvRiJkkXZovhsssl+sboe956z917zx97ncaurq0mxml0tng8o3Kq6955z7r37rrPOWt/6PtFI4SQ5IXdZ3IgLsGW0GKCqqo6Q3uIVCUAXCe7D84CRVJNumobUclhMwbd6ay3wvwf/D6Syw2QyueBx6f6LvGDZZhJvxIhdwI7BN4TAylLKfNsa2qWtZi4/OtJ0/v60QdgYEGIan+XCWf0RPSKZ90qgrBzGSie52en3qgG0E7HfXa2D4Xa2crLp5T/F4JwjBM1BeUu0HYw/GI0LpPqkdiedI0vtm4GORQRVTFsbzvKU25VXRorZiMuBHYcsQt1w4MABVGOeFvIIxa6qW30rkEwLihGMKJF+AGSpKpltrCXHUWvAS7LitJJs0u3eK5+8khBjiCFgrXB+4zyFNVSlIfoZ1mnmxQIxBaMgyd1XtK2jx5dZ++11fJM85VCyMVPHDISgiHGoFYrpFGMMs7lnZUIeDd4ipt3G4xApraMOHmsshoiqZP73nGoySZS13JQj+kTMzycaFb9trXfhBD56AX77QRdLbR0LhlZuNDsc72L4uOSmlpaWukvSVPe98mlkRzPb8n8hcThDCHiNxBgJIRBCyApHr+7AC+lqpg1YMUaihsx2iERfszjVlc0Kd9nHbfuh5dgdn1EoiwneR0KApX3LRNJAyCIWm2sAGj1RPZrCbn+3pDJLVVVYm3oYxhgMgsSU/bZDOa1mcX+SiX1DcAy8rwr0V0zalcF2u++1s4EmcOjgwZSrxL1aR108JuccTdNgjKUoqiSwboQY45am0qsT1lqsTUO6s82auk5W6s65PdFUdc7hfT+bb0zy36rruhuS2AldUG1fi0nKD1FgbW2NwplccdDkjpFLFAbF7sn1PeKyQg3bUR6H/aQUO8CY3eWB71h2sNZwww3Xsm8FlsIBKkn9mivOoVU6O3lLdlMGZjZ9UVWV6RSWTEEZQbTKIVq54uIUVxiqUJAyQWMS0+HgQcs+a6li0b0/NqbPubHpktstGr5+y2g3Y/M6av922moHG5xNn5m1IBUc3H+AqqooXMnBg44iOoqYh5K3lh0UxEKTXGJwgFMQl048h6+9jv37YH9YZqKabIuGa0KmJFEh018h5ON9ua99xB7E1gl6FvVjQghUlWHfvn0459jN8/OOwVd9wAisrSoxrLMRPYkHeuUyJCNpCiuKQSXZzafgWzGzFc45Njc3mc1AwhzbxM70Uwmv+ikmMcpcCmZuyurqKt7XzOdwPsyoY51LAiYH30gwyXrS5VqP6vY84BeLtmRkNebgm2q+NjNpxFpW9q2wvrFGLQXr8wpCpK5rnj99irPXTKjinCJmNbO2+abpc9XoMcZQqwGJFAIzLThfTjl79gXqumb1PJiwwTw2eWU4jBpUA2LaGrdsCb6t9+CIqxpby0Zbst5+0jPkvlJEdYXV1dWkbfMSB44OH1656H07Bt/ppEzTbU2NIsSoyC6n3i8VqYsdaF1425FYJdVmXGHY3NwkxiSmjGr26DIgsIcmpK8IYoxEiV33v5omVweNqWmpefggAnSCJH3da1d1z3KAHMJ7j2mdijWgMTKdVFhbsL45T8F/eFzdtjLjAZuOUgSyBpq1BcGn0+/ydJoesSC6tPOiuPLFmBGvNIaKaM65VKrLrJndwo7r6uCBFRxgsz3LXqgJXgpVVeG9H9QMe1V77/2VPrwrDium8+KdzWZpwIILNZJbJB6t7OLldstU2H4ttQu87TE4kaTTTDL7vNgWhxiqWDUxEDSyOVeCj0zKomOqLSioGYMZUNguHOgY8W2Fi9R6297Q8Kd7yi73jHZcXStL00ThIu45IeKLwTlH7T0xcMFZai9IYu4JaCqY18F3vFeDXOQz3v0AtM2Spx0wFmxXjyb/t5oUaIS6CQtbWSx/mcG2AIm9mLZYfExBdlKWuNYoW4SI6bPsbsHIGHhfxbhYIrLb2HGFHTq4HwkhdYKt3SMqYe0ZK2dQuuiDW1UVs9mMFGd7JXtg/EKRzt7GWbzC5sacySQF3xgjBmH7JbGbcpIMso6hTXu6FRFStSh/ZjEwKR1iHWubm5cse7R1Omtt5qanfWzOalQMS5OK0ITF6cj8HBmWXEZ8e+IiGW+LoVVVSgQuX8zbsea7b7qEkSw2ki8D91LDYbsR2ERV8gtZbycYM1LNgNzNNdAEnzq4W7QUEhK31eygpXDZjk3a40nNUmvA2ZJ5V3boBzW25wz3vF1RiCrUmetdliVGUuMwqKLZ4VguWExteszI7R1xWbBjSnNg/0pa/Fmmj22k9/YaiqLogm8fbBenVl7taEdv5/M5VVUBLNjzXOxd2l2WS5v5DizjWdSXII+zO+mvaFoMR357pbNcqrjAuw9m84agwqQqsUieWEtZUJcBp0i77dFeqIE2YsTLw8413+UlTKb07CnIlnyny860a7i15csFsZiRRN9BFeraZyH1Sz16sUSw68ci2n2GWz8jm6tLk8kSs/nikEVs3TcGl5JdE62VhhBLzCcagGlZXbCet0pJjvyGEa8ELhF8pxh04Ie1x4IwsPUllGVJjJGm2TqRd3kDyNWEtnxUN02aAITcWN0Ol9O37cJ9GcnTM0QsyZsvBd8J83kDXdb64o5PjYAIm7MaEcukKpBWtIdBwBZd2G6XWWdHjREjdhs7rtz9+1ZoG1t9INsrAWz7b0Trz1XXdVKqGnA4x8w3oVP5quvEdhAGNutXBtsph7V1X6JSTifbaDtsj+3W6nw+R0S6Mkt7AuqdL/K+hg5x0mbQY/QdsfvYmee7fz8mW2nvSW2HbVKSoigwxnSXmYsCGeOXCOiuYFLwTT3XCzjcWcdWtssGLyO28iqNgjFCVU7ZmNWDB+7ctV78vIXNOtnGV1XVy0iSA7VpA+9wAztvf8SIl4sdV9e+5QkQoaPibLNIX2Fo13luhVdjChQ5SlgriFh8M1Tn2sb6W+K2XewoAyUvWdzGdtuRwU8Pk7ezZXRx+FiJnU5uv48L99NpFnc/sfu58NgvfF77WtvnJ9Z2kslrmobSVRdhO3Rb5fJ85gsajQv3iABGssB5srgviqITfx+WBBIliC2i5z1TQpNsb27CKpPCXcS5In/ug2NJumjmgmrQFbMAACAASURBVOMbMWI3sGPwLTRgke6yTK+0KI20l4UK6jDqSDR5j8nCLO1lZfqiGkQFcCAua0KQ63iadFs7ofAc/MQSTSb6kxo2qoKz0kkVttsR2gkw0zntks3MFbu4PyKiERfAxJD9yJRAyAaOBpM5B0ogGotah0rWpFAwQbGqWA0Ii8L2UdJx9YLgObh3rzXrW6ggtmA+V1BleboPoxBizCPFJr9v6TUhPv3k1/ayP8IcLLULlmbw0x5jpollCVANsG9liY35ei6RSHcStpIkIQ0+ndAyV9mKYLICsTGwsbFBUVicZWHG3MS0xqOCZt2P1hOwxZXUMhnx7YsdV9VwAQb2xmV7XMhGt2aWSuEsoltHiRdreQvYQvbHWGofCCLMonJq3fPU6VU21RKs6zJjo+12063RNhBfuIsFmxvTa8YmV11D7VOGFmNSoBVru3Fo1UT6N8Z0ddmtGXXK2NpAS2eLPvCHyENtBjVC0JiE5UUoM883HVP/+P7A8+BBd99uBaLFzH/Y7JL8vgQViIn3a63Fe08zSMKNku4fsF2QdNIT7elzMabMt3OxGHwgF7icjKWGEa8QXvRKs1l0+kojkf6l1xzImabky8xp4ZDo+5qviaANRuc4AlbbLNfmTMeRMt5cB/UN5dIStTrC5AC//on/xv/57z7ERjllZsoUeNtLf6XLNKH/v8EDAcRjNeYsNYnWeIn4djJPLdZUOFekYQdrwDpqHyiNpRCDFYdzjnmYo9YQxBJJP0EMwfT7t5pU3lxMEpAmB6ogBi+OxqTMXlW7BtSkrDqq2Z6p6ecrrL4uC1VVEEKD96G7b6Fum37rfu9s40mOREP/thEj9gJ2DL57tUklC1nmIL/TSJVrerVvCF0syReO6ukcE8QkOcMcuUQjgscaYb6xiYpjpsJTL8w5FwqePVuDqQaPbS9G8+Xz0O2hq+fmDHQ4N4CAMYgYRBUNqanU1JvE6PEhJJGXGJLsog80TehE4Vs5zbbM0CN2e0AG9+TMPmXLPS92lqfFytJd1OPucn/y7X4vRuWyg2Da6jTP6vlFNZm3P3mkmvFsttGVpEaM2AvYMfguOMHukayoDbptZTUOBFYMUGZHhpn3RGPwLGZHKkqQSBAIZnjJHhAaKvEsVRUShbqBZ85scN4bnnn29GI0UuluWlHwSLpcjjmTjt19idakIrkuaztbJlGPoaHAs1QIQqSwBmcjMcwwNjWb5k0gqE3bzp14gYVSR8z7iCJ46QOuUShiGliImbM9b2qiKlVRdFWGfkDhwmhodJtL9G8BF06KXdjMa6cTezPNyNKkRESYbSbN4Y7FkptzvVJZuCD7NSYpuE2r4uW/gBEjdgmXCL7tbU/XuqLQvvMsAxPFrv6rBlsUKMJm43Pma1LQk+3n9IYlA0MkNA1+tokxBlvAqfNrNFjOrK4TsrekWXhGDrxiUDG0F7t9sGr/nwKnGpum76JghSwIDjJZ5symp3FTzgdho1GMLRHS44uiWhSCz5l2u5/FlpW5kJWhaSowBSmhrj0ihrJ0XbC98PPdTkrycjAftt9mu+ZijF3WulnPEbG5SZmwVf4vXXW0gvtp2bTymSNG7BW8qJpvWtSt6tOVRj7kfFnfNq7Q9GUrKodH2GxizrJyFVYTi4HcAbfRYFQSE4DYOzgYKApLVM/J0xspc3YFjz7xOJCyR9FUyPDiCFLmH0eQPgO3GrBtUCOVOJQCxGHEIVGQABqFzWg4IxUf+dxX+YVf+jCPrUZm5QFqOwFT0szmCDabX0bUpPKJ0fTjNGJiYiiYroHYsjKGZZHYUbg2c028KsqOy71wdTNoPEUuA8VwG6pfV7kdZuISsUaYViUQmc1q4uCMsF1CMAzEiiHGseY7Yu/hksH3Sk8+bUW6fDeAEk1IoTVndUbBuORY0DQN2taGszttm6kCXRaYtmS6xp1i8CEF3OdPn8Jay2RpylMnnkGKTusrZbODWBUzm6Dj5WaqVjptpewbkieUZBoUUZNWUTlh3cAnv/infPXpU/yzX/wgf/j5r7AeC+qsa9DM56kplylrfXNP6di72iqRZfrclvcNcjYZhSbLKhalw1zQuBri8peb0vVML37UqpoNywaTqkQ0NUS9Jjpa95yB60BPh+yHgqJCaOaUzrK3dPlGvJpxyYabiIDsJeffHG7aWi09h1YUnEmykiE0aEzGh04M2g6JGKEJqe5pNOdz1pAqr44QLWoLGgxnVs8TQ8Mdt9/GydNn2AygpiBEg1iLswK+waE4FI0eMEm421QoBU1MWsjEmLmnIBpI4t0B61Jz8Mx5OHl2nXe86/u5/tgt/NrvfpxP/slDBFtkNqzgUEwQrCY3CmsNdahRo6iJqAkI6YTUMh9s7DPh9uTjY2BeN0SB0hXZwSGXMS7zEE03xLLwafZIer79ycBohBBZnlYogdls1pXBYowDCp5ZKD+0DiZeoShgfX2dpaWly/raRox4KbjKSI2mKw+0zazU2W8nuJL8pbNCM9/MeaxSOpNEWrLOg7VCjB4lDTCkMqhFTIlxJT4qHjh1+izLRcmdx19LDMrJ0+s0KkhR0DQNdV3jXDKA9PNZmp6KSllOaIISVChcRfQ1xkLj58ncMXiKyiFW2JzPMc7x+OOPQ1Te9Ibv4O/8rR9m6cAh/vzpZ/EizJs6Ua3ydtqTYu0bbOFQIzSx9bLLVel2PLYd8MBjSOaSrrTMm5rglf3LE4g++d0N3mUk5nz6MuGifNos8ahm4eRfFBYL6aSROdbDicthZg/9eyQizH36O31WI0bsDVxlwTehtY3PfwGK1cSpJcByVRDrGaIRFaFpGqxRClE0NhgrKes0iZOrsU711Jw1CRYVOH36DNcsldx67HpUladOnERtYisYYyiKgkYhGstkMqGpZ0k3wAdUwDiLhgbJWgKmrJhHT1lVrG2sgVHKSQmx5slHHuFwKbzxiKOYw003HuWbJ54lOojOMKvn2MKASWyNhoAawdiSoA5MRYglXioCBUFs7w5BwNJgaJjXMwSYZZ2ENEQWB9oOFw+3V6Lkn04lQlWmBtvGfDYo98ROGGeIIf9Xgfk8vf+TqnzFjnvEiEvhqgy+0NO2Bv/BEKgMlCY5FzRiaUzBXCwqkp1xDSGENDEVAs4YnBFs9vuK6rEuVRNXV1e5/tABrllJUpXPPPc8UZMDRBBh3Su1nXLeO9a8QDHp/MCMKDE0WJuy0tpOeOr0Ks++sIYvCopqiaCGjToSTcHTTz/NzTcdoVRYtnDsxpt4/tQZzm9GvHWY6ZT1oGzi8OWUWi3iptSxN5ZsPeoS/U23nKQADM4mutW8CUwmS+mkIOxJydBUTkilpaIAY2G2mcbGt2I7WqTG5Fo9q+dAHNkOI/YUrrLgm6qWpptSk67JldwM0pju8vIy5zdq5gbOimXNTKmlwpVTCOBsQR0FrCM0IU2EZdqXwaMamAc488I5rr9uP8sV7L/2ICeeO5mkXpwQipKmXOJXP3o//+v/80usMmUDh7EW38woiRQS8d7jrWNNLP/8gx/i3/76b3F2HvHq8MEhkwOsNo5HTzzDa265JVUMIhy+5loKW3LyudOIrVgNyqlZ5POPPsvZWLFpV2hMhY+GpaqkNEqo17DMEeYgPksmGiIFQadEkgX73MOsbnBlQWGla0peEpfNTmdwHaMXeqgpsavlz+p5OrkMu52ZrUFUIiFz/FLZIgqdIM+kHMsOI/YOrrrVKKSmVqfJIB5lS5ZnSmbqmJfwL//Nb7AsgZ//wI8h0WPcEptNTTCWwjqmCE2ocyPIYwUCkbqB86vrHNq/D2fg8OHDPPP0ExgHm7WhMcLXHn+Gjz/4EBqFT/7xF/nBd95DHQNFURKCIq4gFkpjJnz2K49z4nyDnl/jnDesWENZGFYb+No3HseLcuttr0NixIrhtTcexsTAiRPPcvORw5iq5Df/0+/x2Ye+SlFUvPVNb+Q9930PRw8u02iD+prJpKIJniFDoWVbmDzsUTcBW6YhD2uTgFCb8RpjuJwT5G2jrW+Wto2+fvIOwoL/XifqpL2V0HakjPYxbbOt3w/M5nNEGalmI/YUXnzmexEJxlcSkmfFErMhaSNEHMFIHiowhAimqFj3hmfW4EtPneKhJ09x4nzDTArWo+PEas2v/v6nOG8sG+rwUmKrKVGlCxCrL2wSIxw+dBAC3HzTMc69sM65DZgbxxrCb/yXj7Jy4DA3H389n7z/M6x7WI9C46Z4s8S6N2yIpXaGTzzwJ8hkP01xkC/86WMEsTQ+goVHH3uCSWm5+ei1OGZUzDlyyFBKw5lTp1EL6x6+/PUnuOG1r+eOu97MA59/iA//1u/ksoojuimbjYJajJpOPQx6hTOV1oUa1tbWWFlZSdRfHdC86GlfCRcKGO3uZ7pFeEhkYbintfgRheXp0kLN98UM/qgqs9kcVWU6nV6eFzFixLeAq6zsAGlgQDvTRBWDxH7yzRko3JTNaPnMQ88w14pGKh784lfYBGpn+e2PfZqPPfgQH3vwy8zFQVmxUTeoLbIUpOX0uXOUtuS6g4cogWNHj+CbwGMn16gdfPQTf8TJkyf50b/2l/nB976b9dmc//bZh6ComMc00KHOQVHx5Uce48knn+RH3vc+9u3bz59/45tEA2QL928+9jg3H7uJ0iolIL7GADfedD3fePJxagPPnY2c3/R899338JM/9k7e97738cg3n+DL33yCmS2ZSYUWy9SmopH2dZhOKtMbw9xaZsby9HOrfPMbf86BpRI0doyCKw6JC5NrSVQt5oZlqrvXdY1qm0W3GXNPlUtI/5esf9E0yfutKIqO09yNjuxIY94D78mIb1u86OAbO5rXlUZihtY24g1IlKTrm8dsJaQv2XqjfPFLj/D6193O7a+7jT/+ky/gHTz5/IzPPvxnNNUB/uCBz1Ebw1wVLQoasQRT4rXk9JlVQggcue5ajIej1x7EGMPvP/A5fvHf/wGf+uQDvP3ee3nT8RXuOl5y87Ej/NH9n2GtBpxFmQOeRuGP7n+Qg0sF9951hDccv5HH/uyrzHxkruAjPP3ks9xy83FKFUwQilwNOnLTER4/9SxzB19/9HHEK3ff9lrcJrztzXdy6NqD/Obv/QHnDcyt4elzNQ9+9VFmxYRNAZzLl/CCtxXrpuTJTfjXH/oNlieWn/iRv0RJIIYGZ2yfgbZmlgzZwbsotNO5RORR8czTBmg0pn9rngt0ZGYKTCcldT3LGsmOqIJTwcSwaJgZ0j5CCEQD67NNrDNMygIkDeUMY247ILO9UBH9Vd9eOEGN+LbBXoim3wLaL61iNQ1StJmwcWDLgrNnz/Lcs09z93fcyn3fcw+rm+s8/OgZfu/+z2CWVnj/+3+MF86t8ckHPs+GODaN5ckzm5xrSnwBz51+gbJ0LJVQinLTQeHafSWPfOVLrJ47xXvfeR8/+oPvZkXAbDb80Pd/H+dWX+Azn3uI9QBzKfG24uvfPMmjjz7GfW99K/sdfNedtzOfz/n60yeZFfDw158hxsgdx49jAzgSW0Ji4PrDh5kFOLMKD//pIxy+9iA3HDTss7Ak8J7vfRfPPneah79xiq8/tc4v/It/zS/92n/kgYe/xsxNWIuCl5JoJmwEw6bCL/+HX2V1dZWf+6mf5IaVCYSGqkijy5jMr5VeAGc36WWdiln6K4kD5f8Nhy2iLPJ1kYgFJkXJfD7PleJeeMdkwX/d8jxrLZFkFOp9zbQqXvrrGQPuiMuEq6rhpp10jKEMuTapBjWeIIo3kbkBUxbEZoOlouDt9xzBCZip4Xf/8FM89vgJ3v62+7jv7kN8+f6b+PgDn+dNb7uXj3/sC3z605/me+69hx/96+/i9Pk1rrv2EKI1FQ1ST/hHf/OniUXBylJJJR4Xa0w9Y6WacOfrj3Lbrbfw27/7MR7+6mN83zvezhe/9EU+96WH2Lc05d33vQUX4I5bj7E2j3z5qdMceN1RPvKJj3PwmhVuOXYTlYQ0OmygiIGbj95E9BNOnJzz1JMn+O43vBarDaU0GD/hbXffxe9/6gH+8+/8V1bPrbFy8FquXTnK//eRj3Ldsddw9NAyUkBdwx8/9BU++rFPcv78Gj/3U3+D2268BlPPsRLRkAKM95Fk9dCjfcd7IZ/dPl+nPSxMvXVZbHsWSPucTJZY35gtjnWjIG2y3E63WVCfpuWA8xubGITppAAGPnAjRlxBXHWZb8jKYUnDIAuY54knSOW/wgr7nHLHa67lUAFH98O999zFk48/gbPKe95xD3Yd/sp7vpf55gb/xz/9RT716T/i0HXXc//nHubR5+DZ0y+w/8AhXGGw6pmawA37So7uc+xjxiRsMNGGiVHqjTVKVX72p3+MH3nfD/HcyZP88gf/A1/7+p/xve94C//LP/p5DlYwCbBSwh2338Z//9o3+MgnHuK5U8/z/r/2wywVYEINBAyBQuDIdTfgdcKDn3+Y8xvr3HL8ZqyJEGpsrDk0hR94132cPfkErzl8kL//P3+AD/z4j6ON8qEP/0fOnlf+6x9+kX/2L/4Nv/brv8U1+1f4ez/7M9z9+tdQ+MDUCYWRdHkeoZos5ctvaJfG5c77un1dKJ+Ws3DT6XC09vFDycmUGfcDJUO2Q+0T3e70mXMcWFlmYq/CBT/i2xZXVebb1uZC5uQm/VpICl8m6TgoHJyWsH6Wv/DGd3BI5rAJ9931nXz2/gd5+5u/m9etQNUo+248yJ3Hj/Lokyf4qZ/4q9x2x3H+t//73/OR//Ipzq7O+I5bX09QR6NJ3FwAqWvKwiKadIPrGCisYHSdQ0XJD3zPG/m+u9/IV7/2KK+79RhLB4QinGdSJ3WGqBV33XoLH/7YAzx14gTv/e43cffrX8NySOWTiCcAVgL7l0qWVg7x0MN/ypK1HD9+HN8Epm4JUObzGe94y51cc8Bw+7HjTAGzDH/7r/51fuU3fpN/8gv/F0rg1te9lp/96R/gu24/zkSUggYnkdjUqAFri6wE5y8Q1+ky38sGQfNQNIDJlLGFR4ggESZlRd0EfCQPUses7ZvKT52QTmy7EwYcPHvyea6/7nCvf3xZX8+IES8OV1Xwhb47HQAjAylIDdgINio3LFccXrLcd9cdTHwNMXLnjdfyd//Gj3PbzTcybTwu1JRW+B9/4keQoqRCmUV477vexn/66KeIEVaWlgkeJjbVCq1GNNSYmBpZTaOos9jCEP0aThoqVZZcxb1vvIWgDZU0KDUFBmctSOSu48f4rTjnhuuP8D/80LupIoR6E2c8QRVjLTHTq246dpSTX32EW48e4toDDhcdGmtsUAqJqDa86Y6bqXygMA3NzHDvna/l7HvezdnZJnff81285ugytoapBpw2xHoTUxRMphUbm5uUZUmIiuTBhPxOpwYmYMknucvmb5b1KLZD3qfSullAXSvY1IjrpDNRjBiMGKIPKVu2Bh/g+TNneOsb78i2SmMNd8TewFUXfI2mSbZgYhK7VJMn3iKOyIoJvPUNt/Hm7/x77LOGovFYLIWFN732RpYKIcw3sBOHj4ED1qB+jcp49pXLvPctt/OZT9/P+fV1jh0+SFsmjH6TshRsqcxm60yqFUKwzD0UDgyGMoKJnuAjS8UUyoJ5vUbhLIilaQLWbHDbkRXe/xffwp3f8Qb2h0BFUjeLCkYMYhwECB6OHd3PI1+fc+fNtyFzUKeoWlyMGFWMFbwNYGHmNzBliZOK73/HmxKpQANxY40lJ4ifU7qC4ATva0KMiLOsz2uqaor3HpGUhdpWvKatv2ovoblbPTghBfVhE2wrE6F314DlaUXEMJsHWMr3tQMVmlqEPeshTT+ePR+ZbdbccP1hTHZyHgbgS7pzjIaaIy4Trr6VJQPt3pZeBoDJdLOapUK5pjQUscGpTZek9Yx9NmLqTSaFoZ7NMUSmps0IPTpbZ0ngJ/7KX2QS13jdDQcJ83RJu1QWqA+E7LFW10knwjpBQ0yUJ404VaxEDIHY1DgVJAgxprHkwkEpDX/5nW/hzqPXUMUGRyRGnwYhVAl1g1FYKuGmQ1OWdY07bz7CioNSI8QaI2AFNHi0iYgK1iWVrxhn2LCBma8x0Zp9TqHewFkl+NRwKqqyK+NUVUXTzDGmraX3Ep3pvTbd4MZuoHV6bilnQxPS7mMWQU3S5EANRjT52GGYN2HBvqnV823HpAtjEeNoonL23AuoGA4d2E8x1htG7CFcVZlvq7+bmmy57aawoPGrIQnFhJCzNUPAoKKptmgNTYw4V0LMotziiOpQ43AxcM/tN/Pm//0fYjVSaMCqgA9YLDE4LAaDITaBwoCKz0dgiBJQ6/DSpGMVi4kBbESJ+BgQMVTMwTcUYtLQgNXuNRqSIEzwgbe/4Vb0zF/gLbcfpwwzkDliAlEN0aQg5cQiPn2UHeWOiLUK0RMBaybECCLJtqgJuVGl2p1Q0GTa2dO/Er97N4uk7TTdwnl/IH/Znlwh2b07I0RNJqPTagIY5vM5dTCUJtPVpL1NIvWN95jCYauCE88+B8CxI0eJvsaNZYcRewRXVfCFnt0gKi1JqXO3iDmwtO7CEAlSdhlS+nKnrbT+asn+3SQLIBWcCVgNGG1w5AEOpK89SnrLRCNGPEYidK4KJmdiMZtXJrsiyY9X0ezCkerHDI47PVsprMPPPVEbikI4YJQfesdbWDJAqLvr5NanLB1LWyZIFkE2CwS19YG2Lg75XwpIr4ucrh58e/RdPaBraA4y3t2UfmhPFNC6WfR0MWipZgYkiceXLimyzeY11eQaJMzwM49zjtJaQmg6qc95SEM4p8+ewVrL/uUlChsh7C1nlhGvXlx1wfdCpIAaOrfe1IjTPCHgJRJMW5JoJ7dijmGx04SAfIkdWyeIFFBbYZoUdIUgKUiqtI7HyU+tuyQXk7M3nzzVosGqAanRHOL6SSpDI5Kf49OJoPE4Ywk2BaPYNFRVgQ8zFEG0QlRILUefXShCVz9NQTXXg3OkDBI7hbOOp6sGRPJjtCvf9HoQDE5a/bu9Gw7G6X3aJgOmP0VcoNkgytKkxBjDC+fX2KhXQCNFNUGDx2ukMAYNqY4dTWLFPPfcKQ4dOMikMmhTdyWrESOuNK6+mi9tfbDNMnMgZJBJ0tcRg4n5/uEG+uDXWscn253QibK7qMksk5CU0zrVNE2Zape1GcCBFqBJF2I4uUV2AFahc1NOGXcy81Sj3fGZXAdtNYdDaKhEmG+spytz19rQD62UWrQjugPZzfYqIau+XQwt/aqzX6cNvKbfV97H5cAwFralA6OtyE4qjaSyQ9Lj9THiiio7QadjSoJBikjy7xPrCAKnTp3ixhuPZMfoseQwYu/gqst8u4pgTtNSUMn5qbYqBCaxgCVlrxLJXmZCF0akvwyX7ODWliJAMOl6G9WYA5Dvstr++Xl/ajC02gidvTEq4IdqiWhfMtF0jKIRxHeuyNFKrgq0tC9heXmF1bCeFDRNMwiEPT+2p+e2ASZdsofs5tDJOHavkc4yvh9UyQ8USG7L7WNbs86B/OO3ivZEOKjVX3C/xEQjE5udqYEYUvANycG4jpHCWmLt8yJOBajKWALCXC2zGs6dO8O9d38nGhRrU117xIi9gKsu+F4MNi7WQVNdN3ZpVR84YveFbrNXQ/pS9qG5r0WmINtGtthdsnZuxUh6/gCSe4FdJjmobVqNpApmdh7WpEfcFkSCSmp+mWQtHwM0TfIts1ZScGqbjZBLEYvvRewGUfrX2D1GYnvG2YFG1TbA8lPom5wqcffoV4PPK0qug28jKCyiiNHkYxcC3nvUGJrGM7UOg9I0M0pnCT7giiW8Kqvn12jmNdceugYriukatCNGXHlchcHXZIpZaijJkGZEzJf25P8ZXL4U7wW8QyfEkzLckla7S3NtFEAkkC7YXe74Z4v6QfDtdkxDmx0iaV7LdE0uAxqxIW0jZeR1zsQjkYASQV2a3nMWrwJNkwYzXMG8aZhOJ2gMEJvcJMwliFzj7YOryYZKqaar2ZnYaqvKpUQT+tcJWwJSW5Nu39f0l8v82IDd1fjVn5TSrWoOkvR/pwcqzsDSZMrq6lrSAFIhxIC1bYlCiDGkjF4sz5x8HmMMNxy5Pt0X9oYu34gRcJXWfBfRd/LTX7nuuW12li95pa2N9mWAlC2a3to8Z58pKEumMvWiM23DLg0FpJ820KWzQtpHy5cd1lTbYxgS/rtGV858jTFYa6lDjS1M4hjXDSZKty3T1ZbbGvfiax5m3GzdP0OJxNg9v68ja8fz7cXVd3m5qOnq0+32pW1ADo4zvd5EITx29DBf+Oyf8GePPkNwU7SoqEMakdagWFMQfEQETj9/Eodyw6GVHKzHtHfE3sHO3yYNtHVPK5fVSPxFw3SZbOLwts2gtiHW0656Clr/OJONNy1paFZyzhtyEOizW42CRsmFhXS/ak/ubzPdljkx3HYbrCHRztqMWslsA02B3htBKfJPinpWIxI8FiWoR2zKNyGmppIkVYO2UNEOmrSNsbbR1h63zScH8v7berZoywDptXqHjbX2fWnfxyCS68cvMwC3gxUDmpzk9z6x5RIT15hUNpKY5e2NUqjnZ37y/SwvlXzwQ7/OY8+vsm4MvpzS1IoVhzEuN+LgzPPPc2ipZNnmwZHt/IdGjBhgeIJWVbT1J+s0qHcPO26tvZTbi4u2DxT939AHo4s9rnsTuzczDn62Q+wC/tbtbd1XF1RexIfUnQxYDEbtCWDr69r6vJ0wzMqHpZL2GNuR7J0pV4vvy4Vi47uDrccRYqpzxzwAA+lLIDHR+g4fdPxPP/cBjDH80gd/hSdOrrKhECb7WFPLqlrOi0EreOqZkxy5/jDOQojJVHTUdhhxKQy55pcTO9Z823l57drlwiguPeJlYeuJact6MkYSqcQkaUiNvU+b1YALDUf2L/G3f+YD/OIv/7/883/5r/jhH/5LvPPt30WwEyRfLkG3CQAAA/RJREFU1GzU8MSZc7zt3jcTDIgzEJs05v0KvdQRexAXS4xauqfZxhdQ0v0vxjPwpWDH4CtYxCSXg1Y/dcSIy4kYY5f1tlS7fsEHrG+YGuWWIwf4x//g5/mVD3+Y3/7Pv8ODX/hjqukEFUtUi4gDIxzcvw8T8uyfKnYUlBzxItDGuxgj3ntCCFhrL/3ElwDRHUL5bNPjSpc0Abpn7Or+R4xYQNN4plPHbBY6a/t2hQpgDczr5EcRHEQHH/3Dh3jwi/+daC1qLN57jMKyc/zMj7+f11xXUAUoxpR3xCUwFOoHCCEwmVg2N9MY+0vNP4sd0tsdg+/pUy9AnrZCE+nf7G7wHzFiAarK/v37WV1d7Rwp2iVqEHzdMJksUTchm57CXA3eOqIV5iHVkAsD1isFnqkVbFOj0Y+zxSNeFIbC/O16tLafqHyxOHzdgYvet2PZIQXdXG/LKXdU/5J2PmLEAjoNjO0XcaLYma6+1uUGaggScZOCzWaDqqjwfhMTlJVpxdzPCcFwoKyYbdY4cckiqamJDRgJGDO22171uETNt3vYICc1xnQliN3EjsE3TVqZ7ksQY0TGS7cRlxFprfW/Q8u6SRN3dfAUVUkzrxERJoUjek8RAxNraTYaVkxBCDVOLaV1xOjzuHYYy2YjXhQW1176X4yxuxrbDVyS7dCu1RCbxDONY/QdsQu4SAac6m35LhGEdMXVNjyMWIKPYFPrLCRyMI4SApQAQXAIREUlqdR1jYvRmWLEdhisCxFBTE91jDHVgI3ZXa7vpalmGhFJE1dt93nEiMsFGRhotlTHIYz2GsTQy1SkabmEVrtZ820/fm0W9DtGjNgOPcVWB3FvMRndDeys7SCx6/xJO5458nxHXBb0l3mah0xS0yP/bjSPGacBkXZyMD01i/P0Q9pJZClrWSQMOsXjGh7xItCXHFIwlk4fZnewYw7tnMs1juwxFtvF3C7o8Xa83c3btLC99/QLXga38YIJwPbZKRgHkIAaTzSBKNqpurWaz7oQkMfb8Xb723bdAYTQ0EO/he1tjx2pZt57jLPJRqd9wvAYZLwdb3fpNiPGpGmU/Ob6h7SPy1LJvcsG6f9GAQkDxbdF9bV2F7b9/Uq/3vH2itxqvPTjxKTbqHkNymA9tgvpJa7r7bBj8G33oXkZC3Kp7Y0Y8bLQdpSHRPf294WlKr3WmkIWAWqF0gVwgzIE3SPduIJf1dDhmXyb2+EUb0stM8bsOtMBXkTwHTFixIgRu4+RdzNixIgRVwBj8B0xYsSIK4Ax+I4YMWLEFcAYfEeMGDHiCmAMviNGjBhxBTAG3xEjRoy4AhiD74gRI0ZcAYzBd8SIESOuAP5/LgiVObHpJ44AAAAASUVORK5CYII=;" vertex="1" parent="1">
          <mxGeometry x="-50" y="233" width="351" height="188" as="geometry" />
        </mxCell>
        <mxCell id="fXdW1Djls__v9O5UNU6k-2" value="" style="shape=image;verticalLabelPosition=bottom;labelBackgroundColor=default;verticalAlign=top;aspect=fixed;imageAspect=0;image=data:image/png,iVBORw0KGgoAAAANSUhEUgAAAWAAAAC5CAYAAAAWJ+UfAAAgAElEQVR4nOy9+ZNc13Xn+Tnn3vcyqwo7ARAkNoIbSGqhREmkRGqjJMqS2i3vsuzulsce9zjGM9EdMRET80/MD9MR09t4xu223JaXlndqsTZbGynKIiWRIikSXACQBLhir8p879575od7X2ZWoUAWUQVREvIbkZFAVuZ7L1/e933nnvs93yNmZkwxxRRTTPEjh77WBzDFFFNMcbFiSsBTTDHFFK8RpgQ8xRRTTPEaYUrAU0zxU4u0onfZkserxav5zPnu46cVfqVv7E5aSqAKcoEOaIopAMxA5Oz/L339YoVZzM+yOIYSy6SbT1Giu3INBWR0HUt51RDSkvOpNv67GCBjIh+Rpwhd/JbKZwzK+0Fs6Z7AhNG+9Bw0LCZgZTuT31fKdn9Ev/3kOOs470KMvRURcNM0GIqqYiaYST7rksB0+jx9Pv/nc8DMqCpHCAkzw8zK+MtXpuB+PI7/NXq2QrSTPDUm3YnXLGXygvxZJH9KEtZtD0iFyNUKoYqVc73Mb6RCSpGEgjlAEAFXDkJIkKxsT0myDAHb8r+9WHdDWcx0+TsYKt0x6fg7rdV5XTL+RA1LghFRVbzX0XiUjolXuH3vF2+/w4oI+MyZBdqQEBFSyjvX7oecPk+fV/W8PESE2dlZzpw5s3jAj9/xY3L8r8UzJaItZFde6ZDjo8XnSyFHpUui2e5dZ0Wc6CLCXLRxoAu8LSlSOKHbtllCEYRM6ABJEoYSy+/oRvtbfgyYTHwzGR+fdlH5CGt7XpeeBZD8fVRH43ExVrb9rds2Lfs9V0TAXQQiIqh2Z77b+fR5+rza57MJOUfA1ej/Ijoag7ZkenuxPWfy1fLv7i/jSDehI4LukEioxIkzPr6Ol6Oe0atL+FHJ8WeKXSCWECFPzcUTMZI5TCynJSQVwszRt9rykWB3lEsRdbxfMcgR99L3rtX5XQopN37FjEXjcfFnznf7KyTglMZftrsAlv7AU0xx3lgmJZFSAi2ZLlWSSc7BUZ6nieBF0elkLjhNEDTk6X6XNRy9ljKRWfnEYhQCt4ksryTAEFJONeDAwAgYYMmR1GF4Yv6ViGo4S+hEyiBJiYqtO+7xXoVCst3xlPC5i4YVRZKO3nzu+dNaQjCMlMbnUERYmrI4X6yIgHPkKyUCyReHypSAp1gjdIN5CQmb5ddEFGOchpiSb57Sd5gkMUxH1DsiOzpiExAtHxhfv5NEJixPbDI56TBFtC4zkULh4krawqHqSBaARBQdzW/UxsezKFqXHMGr6eh9iYQr9+WEgbmJSPpcN44LBxHhHGnrVWFlKYjUzTHIJx+YKtimWB3OMZoLGasolvLAz2sPOQ/XPZtdzCScQLIKAhNciQq7Bax8ahLO0sSiF4Af3d8WRZ7dDbBLFwjYxO+TJI1TB+ZIoqQE0UDU599DIMYEqUXVyFloYxQ9dzlcy/s2cnqh20vefirHkxf0DIFkOQ2xbLi7Gg46O+qfxGimX1g3jzmQEvmvFf+tWIbWHVB3QUwxxYVGSozyvWPi/dFMPH8ykCjagxGJ5ml8Gv19fKUqnQrCRkqCCTVBwVgxEUFl9NmsZNBMvgZoRUAwFUyVtm1ZWFggNC0Al2zZgpohBJSIkiNitUywprZon4lxlExJfwgJQXIkXNJU45zyhUW37gVjzutSXymlNZOjrVwHXAZ+JweazAtPMcV54xxSNBFBHVkKRMT5sRxocup7sSLPDhyqSttGvHdIsqxXjTkLbDFSeU80I5qBE9qYcJqn85lMAlHAOZev6ZTw6jADZSw5NeeJIpl0vSemTK0PHDjMPffdz3e+932cl0ywKfG6627gHW97C9fv30WlIOEMfQGPIDGgllAxknMM2hanVU5hkCNjt9ywKJH0hZn8LLfDMfkmC6gjj0En2Brx34oIWFWhI11jSr5TXHDEGEkpjSLfKRbD+7qcIxCnqBdCE0gx4iDnYVNJ3ThHG1O+kVWeYWipNf/Ne4cXoW2HiAh1VRHbdqw2EY85oRUlaEWL0iTjgfsf5PNf/DLPHjtDNTvHbbfdxtZtW5ita1564UXuvvtbPPjDh9m16zJ+/Vd/kcu2zDKMQ7wYXgSHkGLEUsNMVWMIMSaGKdD3FTnBMspmj7/45A17jRbCzoXJcZdSGo1J59zLfOrVQVZiRzl/psHXdf4AeXFkugY3xYVE0zTMztYMBnHZtJfqRZwGMwgBtMoVWiFYjsrM8AIqQmxLztzye5pkREv4niOkkostsmCn4CRnHcwS6soNUHO+tzGIHgYGd3/nCHd+/gs8/fRhrtx3BXe8/z3c/JZd9AFiTi+ohxb40jce4U8+/Tcgwid+7WO8+627cQ2sU6hTkc4BwxQw50kG3pdc68SCHfBySq4LglG9g+ZUWAiBmRnPwkK7RI62MlTnCHVXRMAvPH98IgLWUZXIFFOsPcbjauPGjZw4cXLZNYeLOhdsiqrHzEgpgCScy9enmYG6vEDmHDFajpBVSaEFycQcQsC7OrNLMmqfr+s2WpaTqSOKI7maQYAHHjrA5774FZ46+hw7d+7kjve9jzfcsAfF6FmgT8xytxCRumYQjVj3OXp8wB996tM88cQTvP897+QXPvJe6tgwFwMaG6IZda+iDQGpPW0IRMqi3IQqYlIKl3HhGVlVRzOBGCMbNmzg1KmTOOfyguOrwPZzFGK8KgI2M1T8KBE9xRTnjZcpQ4ZMsBs2bODEiRPL/l1lxcsXP5VoU6RSl2ko5aKH5IRgjqBC8j7na50jhRaJxqx3EFuIAe+EGFt8mUk0IZJ8jflZFpLSODh05Azf+/6DfPd793Lshee5es/lvPfWW3jTG66nUqFyEMMCYi0eDxFmZmY4ffokWilSVcxHR5Nq7vz7r/HFf/gHbnzrjfzaL3yU9RLYVHvSYB6xhNNEExqoXNZ950QKzsYEnItNJgh4NSmIkRxk+W2M+E3SKADoxqOIZDXEq8DWreuWff1VLcKllPNIMNViTrFavPx9v9Oen2ucXdQRMNDzFSkl2pDynF89EaVVJVbK8yfmOfTMEep+jx3bL2V9ryZE8Enp1X2a0OK9J5gRLCH99cyHyIMPPcF3f/BDHj5wmGMnT6Gq3HDtVfzyP/sg1+3bxfq+x6chhIiGQK0yzjcDC2fmmen3iXGINUNmtaLvPR/9mXexefNGPv3Zz3Lq9Dy/84mPQ2vMaJ86NZi1zFQ1jbWIKhYjCcOSzzpiE0xyUQRQVuJWMwa67Sy/jdGiZEl/iQjOjcfjWo2/FRdiiHYyF13TA5jiIsW5opcSmeQFuGyGsuzbLvL7f9M0uLpHrDzB9xkoPHdsgW9++7v8033f5+TpM6Ppc2ha+lXN3j172L//GnbvupztWzcz06toEhx99iXuf+C7fPf+73PixAk2r1/HtVdewTVX7OSNN1zH1o19wnBAJZGeCCEFamekJtBzswwHLYjhfY6+2xBQ8TgSlRkLCyfZOLeB9936RuqZPn/86b/gP/3Rn/Lbv/GriAkqFdWwQV1eoEttRMSVGDjng8cmPWltVBCvED2P0jmWayAMSHHMe2s1/FaUgnj+uWNIuSO82tB7iileFSZSExs3buTE8VNrHnX8JCOJEkVBPA3Q+ooTw8g/fvMe/uHrd9GEwHXXXM+VV1zBzp07iW3g+PHjvPDCSxw4cIAjR4/mnLEUGZo5Bm2gV89w7f6rufXmt3DdVdvpGcw40DBEUqAuOeaUwDlBrcl63ig4V+VyZIGQ9XGoCLQRpwn1jiYZ8+ax/gzfvO8R/uDP/pwbrruW3/61X2GjwKwFfFhAiJjkCroogppHLKciUnFw+1GPAik+qBs2rOPkyZOIU1J8ddvYtm398tteEQG/cJyO8xNj27opplhzLEPAP47ovLoWWz2OcY7AfXTdKI5oCREDp3kxbfyuvEkTKnWYRSwFAoL0ZpiPjoE4js0HvvjNb3DPd+6lWRhw4/XX87Pvfy97tm1CUlYqxVSCOJdn28eOneH5F17g6aPPsrCwQK/XY8/OXey8fAezPY+SqETQ1CJEXFcJZuU7lXJxtVQq5xabAnXffVQCPfG3TKqORmu+du8D/Plf/Q1XX30tv/kvPsZGD65pmIkLOBeJTmiS4V0PC0ZlWfM8SA1SNM/AEr/iSbmaGx2LmRU/inFJ9cjYqbsRsfgG3/kZOykLcTGxcdMGjh8/jqgjIKh6UttQVRWhzQUonUQtlVRtt81VLcJNCXiKHxkuEgJ2qjRNg+/3CNFIFvDqEMuyuxQhIiC+EJei/YqXTizw4GMH+dZ99/Po40/SxJY3vfH1vPfWW7lq11bqmKhCwBGyf4sKMRloJgxLmdjwPmuISXgRPAYWkdiCRbx037N8vZEmd1wyfL5eDK16Fqj5+n0P8Gd/+zmuv/56fvPXPkrdwgYbUMmQNjaoc0RT1DyOnE5x3tOEdkKjm0bM1MEk2yc0MeC9x3sPMeViirIdVc05ZuuKrnWR10inFJGUPYhFhM2bNnL8+HEQzTdDyTfHXAAzVkyEEHB+nC8Wg0u2blj2XFzcS8lTTHGeOBfxdni5ACWX2EZUjRCNiNCrZiG0pLbBqeCqHikJsZrhTIKXWvj8Z77NPffcQ2jm2Tjb57233MQHbr2Vzetm8CnSA4ahySkCNJuih4SXBBEsBlQcfecYhobKVaiAxYYUI14FdZLXeeLZhu9QaE5WF4A5S8z5xDtuvIGTw8hff+bv+WTV59d/6YPUrs9wMGCm7mFNwKmjqmsWFhbw3pMs4DSnIkY+EuVIx4XXuXBstj9DCIFh0+JUEXGkZDifb37qPeqKq1sSRLr3JNom4lyFqwWzSEyBhuytIWJILB4Z6mhSS+WLhloErTxWzl9O85z7ZE0JeIopXgOEEKiqHo0JYkrbBiQm+nWfhDEMMFBHY/B3/3A3X/j6d4jADddfx21vezNvuHILvQBzMeLaBcQClgSvgLpy0SfUDK8yIoKUWmIK9FxNSsMsYdNS2GKRVIjDveIy02pkqIk4XGCmnuOD77qJlODOv/8idaX8ys9+gLlqHQvzp9g0N8dw0NIMhriqV/wgLN9YciOOxUdSfCRMgGQMBgNUhMpnmjMzTCEkqGfWM2ibnMP2FXhH0yZCSojWuJ4jAQ2RFLMlat8prZ8hxRavDieai1u8R8XRxiEgeNGRaAFeXjE2JeAppjgfvFoN6tJOFFrRBsNU8Kq0w5xLbATmmwaZWc+xhcAf/flf8/0HH+RNN1zPh973HnZs30wtUDWJXmzxsaFWwxwMLYAqoWhYvWbNklkceTs4dXiBJg0zh4lka1kBC2lUqHEu60UlnR0Wv2oorl9hMbIuKD97202kZshnv/hlnDg+/tHbWTezmflTp+j16iyZczn1gJEjVeucIyYTEGNXOAV85bEQCTHitELIFW7mPGcGCfMzmMAwQTIl+Uy6SaBtIVj226jUUdd56/PaQ+nRD23OsTeByjkIkSq5oq+OJVLO6okpAU8xxY8ZzNXEEHApQor0a0cUGCTDrV/PwedO8h9+/7/y4skz/NLP/XPef/Pr0TZQWcClhE+RSnMZcRsjIVkuYkByWbFZdkZTSKHLVwtquQDYkUpBAaQUSnWrjDqPvLzQavVFWKHNxkp1GmIJPvzed2BmfP7LX6fvevzKB2+l31tHpKHu9xi2zciw3amWpqRSHNqAibUpofQRbCPOOUQrhsFI4rGqIgGhgpPzgSNHjnDw8GGeff45Xjx5nGPHT3L81MksfywzhxgjZsbWLZewc+dO9u/bw43X7WfTbJ+qmsV7oRkMcJo9GhIJ9Z5kRkwvf8OaEvAUU6wlXqHCD/JCdoqG957KIrEdoK5m0ILVsxx5cZ7/+/f/mDYpv/tbn+CaXZfSCw09Qi5+8I5AS0xG6yuCeswkk2/MxJwj3gxVn+WjKrllUApZ6VAqWi0lRLT8P/d9PNv/qOQ0y/9WGwQ7yV3j2naeflXRq+GfvfvtDJvAl77xVVwlfPRD78DNJ2ZDi9eIRKPvK9omIppNLscG8/mohIBYoueFwWAA0ifiaKSCGc/h5wN3f+d7PPTQQ7zw4oucOX2afl2xdctGNm3ewNVXXsWGDRuoi/dNt1g3HA45duIUBw8e5P4fPMBffuaLXHP1Vbzrtndw9RWX0av7eAyXGrSukJTzwXjPy93MpgQ8xRSvAbpy/mgNorm+NPmKY43w/3zyzzh1Zsjv/PZvcP2uTfQt4EJEYqDnhNAsZBWAVwYpYq7OFVshUamHFEsjHaPzATaEFI1USmstRWI5Dueyr0S0rPN3zi2vuZbJaG51blxiCUuRunJggfb0MTbMbOLnPvRuFtqWv//q13D9mg+/+y0MUqBHgyOyEAwpUq9xG6ZO85Ywy9mhhZiQ/hwL5mjMc+j543zuq9/k3u//EKqKvbt38c533cp1117D5ds3MVPntLIDNEFMkarK+xm2kbrv6M3C8RPwwvHT3P2d73PPt/+JB3//v7D1ks3c8pY38Zab3szm9X209K9wkq025gdDdp7zPExlaFP8OOEnRIa2uNPEBGTcQaGzLowxL+R05a2mgnpHaIZ4CajrMZAeJ2KP/+uTf8kTB5/idz/xca7bs40NlSFhUPqoZXlYllPlwK+VChNFkow6HytpUcsiNUVHvdRSMTUfV5Qt7u+oiyR0Xfv4TnYn1nW0WB0BJymtQ4vXQ5QcpQ61z1DhDz/9Jf7p+9/nPe+6lTtuv4XNFfiS97XYUplRieAsYClglhCX9bmNKa3rE9Xx3LF5/vbzX+T+HzxAVfe55eabecfb38qOTX1ccV1zpXuIs4CaoZbK9x0b1hvK+k1zHD+5QBBHqzWnm8SDjzzKXXd/i0efOERrwrr1G5lZt55+VTMcDlk4M89gMOBz/+5/W/Y8TCPgKaa4AEgpEUIYaU69L1Fbya+GZpgrqqTmTDSamR5//Fdf4LGDR/nVX/5Vrtmzjc19kIVB1ga7ipiMKAbiiKNlp5SNwsrC07h9+5hI84LQJJEmrPRqO+u4X0n8UHoWrcqJQdLoWHWUPkg4IrU1kGp+/RfeT2wb/vEfv8a9997Le269mbfc+EZm5yrmej3aFjRmXa+qx4mRUIJ6klMOPnuCr3/rXr51z7cBuP3223nXO25m8zqHS+Bi0UpbbjQqlkoDURsVd+Rz2VVuJOoEdWpweFQMrSre8Yb9vPn1+3nuhVM8/PhBDj/zHGcWhjQhsmnTFtbNzrFl4/Ia4Hw6pxHwFD9O+CmJgEcr38W+NZXpco6KcycKfIVpxSkqvvCdR/nTv/oc73v3u/j5D76ZTQYzYUganqFyHpzPAn8n4KDtCjosjSI5BbBxTJUkP6J20dyYoFnSOflcOFcEDMsT+Eoh5ieq2LqbQu7/FnHgZpiPnkcPPctn/uGrPPzEQUwcG2bWc8nmjVy+czs7dmxnx/ZLmZmZwVVZK/zYEwc5cOAAjz76GD3veOtNb+RD73s3l6xzeDNcHKAW8ZSZQjmesb+Ejl7L57OzxFQ2bpzhxIkFEqWfXSd7S5LTIeowJ8SilEtSGkYJXLV8Idw0Ap5iiguBLv1glq0jVXN1lXMOA5zvc7ppibXn0aef4y//+k5u2L+fn//gm5lJ4NoBSov3DueUmMakHmP2/IWOLgwkleAoT5vHTS7zI+q4dFdNzqOvWt5el3ddXfw12Tx03BU5R8YJJRCaRM88b7jyUq7c8ys8+cJJHjv0FM889SwvHTvGfd+7n4V7BsRoufzXlBgjvX7Futk5Pvz+27nlrW9m+wbQCL5p6DvDQkOvyu/NVXR5/8kKiZqWWFPHCQhbrPtQwFLEFYc0VAihQZIAShsj6qtyklLuXpot68/ClICnmGItsFT9YFrKibMKQSXbKppZloyJEv06Dr9wmt//r59i54aaf/0LH2BDCtRxQF+LwTklosKK7aRiIeBykiGnAgRiNgYehXJdZN5FwR26ppjlr4tefznkP3dR82plaDkPnY+vRNKF9Lpos1/VtMmIw1OsB264RLhu+5XEm29gSF7cOnUm8NJLL3Hy+AlCaFi/bo7Ltm1l25Z1mXQNwpkFZirFOyE0DQq0TUBcIdwS22cD+Hx0riNOxpF/d4hCA0CtStMG2hRQV5VZRu5G4rwixdtDXuFcTQl4iikuALrmoVll4HLJcYho5VGfjcqfOzXgP/zeH+LF8bu/+Qm2zzjqtICkbO/YhpJvdSFHZlpiNu/QFDvqoIt6x0TGxOSa0lV47EtwTpTOw+f4Rkv+vUoSnjTQmdDxYrkYYqFpqVTwZPN4YspyMHIEb1IxM6tsn92K7N5WCuMSkgxphiiJWhWthZQisWlREXq9PoNmiIlN3n7Gh9W9WkyHJhcrM0PnE2hm+CpHybEsiqKao/cQ8FqN0jcvhykBTzHFeeCVIsY8xSVXSlA6LDjFqed0azx1aoF/9x/+X+rK8b/8j7/Nto0z+NSShg39uspGPF6KHjehRbIWrcrbLNN1zOcWRaOId7FRjpoiKJJ0ZBmZ3crSoqhdoJiTLyaNTu0wckLrvv/EPs4LnasasfCaAj7nfwFzgaQJZzlKjQFQjzPoi4HN44XcOikmQrf4qIpTQUxoU1tc0xK+8qSUmA+BhOBNWO5Wk29i424YMM4Pm8joRhZTHHlSVyUdlGKOemcqTwzp7FnRMpgS8BQT6FbOF09NJ1e8x4WfOpqWTi5ICZO2iuML+GxXrbydJJPLHuSpu6RlL47uGLvPrhrLRXyv1KpGukXoZVIOk1N9HR9lTImkilR9TjQtB595jv/0yT+l8jX/0//wL7l0ywwV4FLC+QozIWcpHGaJGAOVGl79RCOIbgpfps9MLMSV8wqMqsc6O0lbkxTCWkBLWfGEsa5l/exorIkQQ07D+LoH4miHDXXPQYqoRVJJHThxmOaTk1LMeXbnMI25uKTceHInaD8yGxpjMekuJd9yuxvl2fPMRiFBivn/StF2twFKq6f4ChqHlXXEsPGBTNUPPx2QEoF0uThJHhMlSvGPJYzyhTJamMgCesRQgZiKTaLzhDa3q6rE8ERCytKpRNa+ZrmQEqJgCKKlr1lPiSGgKVeGNdFKdVNk8eJSF+XpxHhcBZGUBo/jiLEQ02iOnhBxOYlLwtQQcYjkVkDiHbFdwGlV3u1JxZilbYd5Olr8fluT3LUiCfc+ephPfepTXLppPf/6N36d7Vs3Ym2L95JVAHlZCKWU21rCiwdLpKKDTRJHpDt585o8J93fu7REXKQLPvsmM4r8zunudg7COm8Ugpts8FCi+iSZmCymUe+/aFnr66usIBFRRtRdboo52o3jLcaAUIyFYhlFkl8/J871/cncNzrfkisGcyTvxjeN7s7b5ZNf4SxMI+ApgDI17f7RDWhsFPGOItlCUCnkxYc2pdwex/cRl129cqFBjzMLQ1ztwTvASGaE1NDr9YgxUjtPiG3Zrky0e3GkLjIq+taRKN5kTToidEbiWmwNtbM/KBvPkYtlt4FyUQ3bFgNqXxGbQfEkKL0SNZush6alqnukEGlQTBypqlkI8Dd//yW+8o1vc+XeffzPv/6LbJ6tIDX4SoihAcvdjdtmSOX9kgLWien/WSfg5clw8dtf5r2vaDB0ASLnRfvsbh7LvG3J/seLgq8RVtMQdAJTAr5IYRMRUYIR+SggMQv5lVimrlbawQBFwpRnXwFfVZg4WmKuza9mswjSFL9+HadLsCEJnA2ZrZRkgyztibles65nCIMhMYFTwUgkhChZ1iMltWGSZVDj+qTzQ25xk8k8OCtqgjQOFzGc5EhLJbfEMTP6VR9IhHaBquR2UVCnxDZSVUobExIMfJ+IMK/wzHOn+bP//mkOHjzIu99+K7/4zz/ArIcwOJ0X6yTnJ7WY6PT7fWIILCac15BspsgD+JWKVM4DUwK+yDHOtuYB5kxLVRB5miU2Wrzp3q+SMFUGbYu5Ho14huI5NT/kyLMv8OKLL3Lq+Insk+prLrlkG9dcs4fZuscwCimVhYoYiSnSNAmV7EFAEmIMJD/WreZjyavWUUo0vtow2IQknRRfyz6KR4EIrkiUMvkmYkpISogDXzssZZesGCJVVeX8ZEgk9bTiaExYiHD39x/hbz/7GZwZv/WJf8VNr9uHS5CaAf1ejVAiXpUslRo2BHOvKF+a4qcDrx0Br2CF8GWxRlOAixU596njXl/5VSRnbTPxoKVB4pLPogwtILPrmbeax48c4ytfv4f77n+QYUzZhza1OLKhycKgwffX8frr9nPHO2/h6p2X0A7nmXFK7YThcIjrzRDNssa16haKbEnQMa7oWs102ASiGiaROLr/lFRH2WFoFa8elyCmgKsdeBg0AWI2q6nqGTREoglRlYggMxXHB3DsVMuf/flf8fhjT3LtNVfxsY/+M3Zs60HbIKmh8p7QDMtvkPKOo1FVFTE0iwy9gdH1Mq1E/enCNAK+6NGRcCpT8aJz1Lz4FcUvSldAXnhLrs/pVvnMl77K57/8dWbnNnL7e97LVVdew9Yt69i6ESzBmVMDjp88zV333s+DDx/g3z/8h/zb3/ltrrlsPW3Je/Z6PaIZMaZRE0SlmTBEyegWmWTVSYhUct468d0WV3jVdU07bOm5HN2eiQNMK6KfI6knpsQAQX1NZ/kaFI4ePcWXv34Xd33rHtbNzvHxX/o5brnpWmoBHxIiMfcLSwmVXBmnotk4PAR6tcfO9oKc4qcUK/KCeOH54yP92yjyXG0EO8Vriq76R8wzqkySiFpO2iapSHhCIQOf0ihabrViXmu++Z1H+ZP//pfc+vab+eiH38tclUX/mgwniRQide1Jqpxs4aUF+I+/9wcMhwv8m9/5TXZv7aODU8x5pU2GSoUXJcQh4gZs2rCRk8fmUVOixglBPKwqIWdZVTEiYEm4lEX4XcmuhYTHU7uahRhp+hUnk/LAw4d5+MCTPPbkQU6fPs3GDZvZtm0bw2HLkSNPczaF6aQAACAASURBVOr0CbDA7e+8hfe96x1snvHUktCQK9tSgqqqSLFFNcuiLLZ4n/uI6RLytbNmHxlTil4jvNJMeqk3yYkT57WbbVs3Lr/5KQFfnDiLgDWQ+/Dm3zUUAjbJi2BVaXPTimPoejzwxAv85//ySa6+8gp+57d+Ed8m+tbQV0EsZoNwy+qGJiVSNcNQhYPPLfDv//PvMTc3w7/93d9m+0yLa+cRUyqtaJuE8yCywKaN6zlxbACFKG1RGdcaEHCJqJWx81WXkuh6orVNgtl1nJCKv/ni1/n8l/6R2bmN7Nm1l02bNnH85DGOHj3K+rl17Ni+hR1bLuG2m9/MxlmPswFzlZEGCzhVvDiwnPsWyeoJX3wJvGa53lmHOiXgC4vXmIBXnILoDKSl/HuagvrJxnjYLbUZoeR+s7ZRLOAsE5JpxUIUXlwY8Id/+im2bNvAv/q1f07PEj1doKeJMGzwvspqTNHc/dclCMeZrfrs2iz869/4Zf7d7/03PvuVr/Gxj7yTSoU5hJRyK3IVsGQQiwCuc7g2IOXy3qXE9Kow2VHXuhr/HGFrqjIxSyBYIs1ULIjyvUeP8MV//DY333wzv/zRO5iTohyWIgU1w1nEJ6gsoXGAEpFhwBVNcDLQlHBZzYvTonUtAv4pfvwwNkDKKaKUUs7Tx/gKn1wZVkTAc3NzuKoqfaYmSmym+MnH4hK3LA8TCIBzUBmkkBATghNSBX/31/dwav4M/8f//m+4Yiv0DHzsoyniN6wnpmyXmMhdAbxCaockdWyqPOs2X84tt9zC3d+5j49/7N2sdxupB4G+OkQkdwimwvd6rFtfo5oLN8wM7bLUqxx/qUTTmsqIlkjXOSKfBqNVaL3w0nH4b3/yl1x+6U5+69fuYEMF/ThBwAK5mbtHU1Zt6KLzaqP6DmdjfcNKbiLTCPgC4xyRZJcX6JpuxBjp9x2wPlfSrRFWtKWFhQUYDjPrr5X6YKqCeO0xqgajXOkKliu7Qgr0K0PCfCY+P8u8zvB0W/Glb36LG254HbM1zB8fEuJCrq0XIcR5kgniXXbwIi+sWQylceQcQ9fjxje+nm/e8y3u/MK3+ch730b/1BmGFnL/MhHaEDD1HD+VtbLOcmPEXDmlo4KQ80GShGmbt5OqXDUm2fAmp2QE9co8cMyU3//UX0Ab+Rc//xFm5gNxeJKBc+V85fd3zSFzTtkQyzlzZ2lcDtyVD5fjWI6AVxzZT8f/BUdnpgSQLAAbOHXqVC5xfkXn+sXYtm39sq+viIBDCKPidhUZtVtZFV6mVfMKN7DKz0+RRHL+U7IRYBp1xYLaCxYHeanKKa0loqu4774fcnq+4f3vfidVAhcbCC2u6hNiAnHZMtESKkZKQiTnOL0qIRnJItfs3cKVe3Zz17e/yztveRu1eJBIjC0iDldVuMqNog01y1Vn5op/xPnDSfddc/UaoqNzoRiGMD8MhJlZjjx3gocfeYKPfuhn2Xf5OvphnkojhpHwQATzJJGRcC4XtggiCUluVGVni2aPafkRvOJhPR3/Fxod+ebu0a54M7vMf2uUg10RAasqFNJNKRFjPGu19lVjVUk8WL0S/+JGynP6QjcJkiAYsZzXSqANAaeepI5BcsxH465vfZudl25l77bNzBGoBMQ5mhiyv6qUxSSDSnPn2xgTMRnic3VdXx1OHbe+5UY++Vd/x0MHDvHOa3chpqQwjzqlSUaT8tTPIbkVT4EapeHkecIERXM5suV8cr7YDLEBSRSpZ2kMvv3dB2ij8babrkdTIrRDes4TLZcpY9mbQSwWd7LU+bDktIPJSLtr4kYxsNo52vq8wtcaZ4qm4/9CwsoNf9TZRBIp2bj0fNX8lbEiFhWRrM0sjv6rJt8pXlOkkeNUMcBO3UJUlqIlScTYZrmUVjRWQW89jzx5iGeeOsT73nUbm+eEMH8GUNRVozFiRESE2nlAcaLZG1Vz511LgcoCbthyy5uvZ+P6TXz1a98iorktu2TT8USeJLlu1cHywmBOPax+wUqKEiL/u0jPYFRyHZ2jFfje9+7njTdcz+ZZpSeRujfDIGXLl4QUJUUoj9yNWGyc8+0Mj6Kmsu3pYttPAjq+68Z19wCW7xh9nlgRk3ZRbxcBr+UBTPFaQEsnghwFqmnJVUaQgGmbycJ5GmoWUs1Cgn/82je5ZP0G3rz/auLCgNmZHm1ynGkFpzVx2FClSEUkxZa2HRJTC6UVuhfFJ9AYqC3gYuQ9t72TJx87xNHnTxG0xvfX0QQQp4iCw3I1mniSOYwI9jJuVitEEi254IBpIEkoNyZPpKKJ8MSTRzn+0ou85Y2vxw0jPiWGMWH1LK3WBPUEhVQeVtIMJjknHEWJkogaQFqQFkeLFstOo7sJaDmesx/d3/MNcoofJRYR70THjLXEiiNgVV10RzjrPROPDtmDs3PW6i7wtOhvCT96RBk/Jl/vtrHssXX7LIL6rrdUt48plsfY53eJvrtoYsUpwyYgziNVj5MN/PDAk7z5jTewcQYqLWsDQOVrQkj0615OD6SIavZjdS67nMUYseKbKgZOIp7E66+9GifKDx99nGCOQYjZg8ICUqZ8kTL1G0WPa/HDdnaIxV+iqBmiuPxQx7e/cx8bZmZ447VXUWt2gEsCbUyjWcTIRa4cV/ap0NGYNen2ksYNLqcBzI89uhRE97hQWBEBm4wPKJZV88kHZBOT/MiXR5LcSBCfHfwlDSEuIFY+jxFFMdcjuRmC9Gmtx1D7NNIn6gxtqkmuR2sgvkQ/TssxlMjAun2XqR+x7KOUm47ep+W4JrsGXJzQrgV3abcSVAkqJBEwXwo0FBWBFDFL3P/wY5jWvOGG63DJkGQ5OiUiqUXEiEZ2MBPNSgiRPAYkd3YwSaB52h4xVGH7JRWXbJrhhweeoDFQ7xCNeMtdDXK3WUEl4qz41Uq16nPQpTYiAlJl851koEJQZT7AD374MK/bfzUzHowWdQmNRiVSZgypmJ1riZAmLSNT8VNWxAS1boFz3FVh7G2RyvvPfnR/z+aY48cUFxZnBZk/bm5oNiLe8Z1eRgMGQKnrPsPhAkJitp6lSYlWKoI4TCpiEiyRG+ydHvLcsRd54cRLNIMhe3dczhV7LgeDXjXHoD2DRyFGnHOMRRjd/kuX0yWjc2QqztmeohczZCICTMh44Yg8NU4pn+coQkzGocPPoN6zZ+flpDhg7N366jxac561FFg4SMPI6264lnvuuZcANCHQo2hpGZPNSMIlnSqiM+w5n+9ONjsvXXBzB4osrI8mmDoeefxJjp88xdvf+hY0BcSXysFkiI0rBl8JnYn8FFMsh/NXFHd3+9JETylaSuLItzWEhr5TklWcsT6nRRgonGrgwGNPcfTpozz5+CM8//zzzA8CURNBApYaZtRDMt725rfy8x/6Gbb25vC0qDWEtgFXk6SsNEsR9ZSy2XyJndvZfkrBy6FzJC/knAytKppkmHP84P4HuGrvHno1VDmEXRVUleFgwIaZ9Vyz7wq+/NVvcuDQEd529WVY0+bCiAmMpu1rFIWYCaKCSFaCZJ8LAXVQ0g9bNm3myn07cdbmApAyC3Si0zE0xZrgvAl4sSOVgqUiQ4oltwvJEj1fMwjKc2cC33roEe7+7r0cevpZLCqz/ZrLL9nAjTe+nksv38X6LZvYvGmO9evneOKxAxx49DHuvus+UoTf+pUPMQgO30b6vZphpNwEUimdzUcyppFCzsXndnLeNo1HMkpmkslbUo5oFXGOYRtoXM2R509w8uRx7vjA7RByM8LV8mBKiV7dYzgMXHf1lVR1zQ8fe5w37t3BeleT0gLdj9bl+bufcE06YpRcNJ0ErYtURRm0iYMHn2L//v0ohtdESgGKg5mZTVfEplgTnBcB62j8ZfJLpFLaqRg9sCx2F6+cMOHJF17i//yPf8BCEnZetoOfff972b9vH5dfuoWt64S2CTRtoq5ramDQtlx+3ZW89fqr2bZlG3935+dxCh//uQ+xsddnGIelAmmMWBY9HMBE1dFINzmRMpnm0LoV+HPFccWfVj2NOR589DEq77juyr14p6Q24FZNQAmLAZ+MuZ5n31VXcv+DD/LLH7iNaA6ZWF/osNacl4nUyHJeIRq04nnh+CnOzA/YvXs3lYLEkJs4iuK9lm4VUwaeYvU4/wi45P5MAuOuXZpTEgJtm5BexfE28f/98Z+zbuMG/tff+A32XjZLGsKMgFqLDQN9hX6lWBhQBaOvShsiKUTuuO0tLJxe4CtfvYvdu3fzvrfeQG0RJ4Ir09LxhZppd9wIb3FOenTsTBcyMiZJuNNE5AjYzDBVpIKHHn2cTRvWsW3LDC5F3CqXgtRAtOSZRYnRuO666/irv7uTYydbenOOSi9ssqgzlxqlXURIJkSUxw8eJkbjyr17cVJaFpX+bzY1zZliDbG62bgU1QEtQli0UKKzfeZV+KO/vJPnT5zgEx/7KPsu6dGbb9lCYp019GKLxEBIiUCDEXJUkoReEtahzAwiv/j+d3LNVdfxN5/5CmeGQtSZcSsdSZzdsXW88NZhRBlLVqsvVnQKFrXl8+KmjiYKZ1p4/OBhrt9/LRLBWcDpWnVkSFQChMD+a69B1fODRx+jLYUYF7brQy6K6JqBihjiskL34QNPsGHDBnZcOksKbfZ1mDBlWU6GOcUU54M1YSIrpi5IyFpfE+Zb+OpdD/DgQ4/woTs+wHV7Lmc9Q9a5hAvzuDCkIlKVflzO8sXonAPJhR+1Ql8DHviZO26njYEvf+PbBFdW6qVI30gjBcbiL1SOa4pXjWSCqyseffwog6bhuquvohbLGt81OKUWI7X3xDREXeKybT3Wz63jgYcfISp5PWHJr7nUuO28900n7CqRb5FWmihNhKeeeZZduy5HE/ScQkpj2Z1zUwKeYs2wMh3wMkLkrDrwBGAYE1RCsBaVBiTy0qnE577wVa7es4ePvOsWenGeKizk7gBiIBGxhE/QC/nhYsRIRDGCJlptERZwLHDF7nVcd/0+/uGub/D8qUAs3hQhBLxTfMnVOeey4H9CkmYjzbKWC3uKl0MuMFCaaDzy+BP4uuKafXtxFnFpbUoxVbVEk4AFXIQbrr2GA08eJCgYblyPr0osVZhZgrgGpcgiqOZyacFlrbvzHDvV8uJLx7lq7+5cfBEDCsTUjtIW00rQKdYK581GTiuatkWcUlUVIUVEPa14Asqdn/8Cbdvy8V/6OSozKjO8OgaDeaAQYpdFoKQMOtXCJCwL/SsPt99+K/Oh4av3/BNRFfE9vPfEZlguFMFiNkye4tw4a3HrrJRMnoqbCk8eOsjOy3cwW+dy5crJmiw/KUWFoIJzQgXs2rGdpm159tgwG8KX/nCxaL/FKZRqutXmh7OzmuXFNZSQoI3G0888SwiJq/ftzmUTRQ/tRBFdYtAyxRSrxHkRcBJoQkvV743c/FU8gyQMZIaHnjzCvd/9Dne87zYu3dijspYQjURFVc/SWm5t04oSXCJoImhuati1iKnM4aNHrc49xpqGq/ZuY//rbuDL3/gmz55YIKjPpbKlMsmJEWNLSO2otHTRV+1ka9PrZ4RFpeOdtkXAtGYQ4amnD7Fvzx68A4ntuC5+DWClIg5AA1y9dxcpJQ499QyJ7FJmXaseVUBIKeDXYBYzki2aZXtBUUyVAwceZ6Y3y56dW7HQlHeXPLFNK9GmWFucfwTcq2ljIIWARCMEw/c2MI/yqb/9LDt2XMq73/EWXIoQstF2G4V8LeVUwOgikHHOT7qa+VRaM0jOuXlrqSN8+I47GA6H3PfgQwyT0rQR72uguGe5MnXl5RwvL+6V7FfK4WYjGeHZ547RDofs27sTSbn6a61q40d19lkwjqNl5/ZNzM70OHj4EAEhJBZ5j3Sph7WKQCf9XtEKE+GxJw6yc+dl9Bz41JJTwGMTqm58TTHFWuC8CNgEGotEM2rnqNWjzDCMwme+9n2ePn6Gn/nQ7cz1YaZKVGpYNJzztCWX5hK4lD0HXCoP60pQs6FO0kRLADWq2NALA/Zt7XHNnt1857s/oHE5ko5GdqgvtfyoK+Wu5Lr7RY1Ez2GEfdFhsXqkmzEU0RVtgkefeJJ+7dm789KcflBXPrkGBFxyr9kSXXAS6dewbesWDh96Cnz5DU3A6WjqP5aPrQ655DiPhJCMpI6T8y3PPnuEa6++AmsjXnKlXO5Ll0uWReSsFM4UU5wvzjsCFpFcG48SotDiefFU4qvfvJv9+6/hTW+4EpcGhPnT1JpbtJjl/GxKYUS20GkXiosUuV+XOIjEUuohuBCo2oBv4E2vfx2PP/UMT700xNVzhNRdIBBCKsS71KlqcQHJFOeGiWIOHj90mI0bZtm8cRaLAbpux1La8axmH2aYyqj7sBCxZOzdtYvnn3uOYWPgIXR689Q58vk1W4TLSCUfrBx+5ihtDFy57wo8UKmU5ouGc9WPxB1riosL53UViSk+KkouV011j3mv3PnFL9GePsGvfOSD+AA+RGZrj8SWujIsDomxxSGoBYRQUgUyyvm1DlqFUMo/K8lNH2elxkdlpoI3vOFGtDfHXf/0fRpyNKXqRp07UCmZ5LGUaTztnpLvJCbNizptsKEEg2eOHGX3zp2dhxckm8jHrg5JtHQVKJ05LGLWctXeK2gWGp4+8ixx6WLhSLO7+hBUxI3yv5Dzuo89cZDZ2T47tm+hEtCUVTmmeb9YVt5MF+GmWCu8uitpYvHFYsR7j1YzzEfhyaMn+NZ993H7O9/Ozo0e37b0fY4ggiVCaKlqBySksyiji0jz0sbY4jJP85xzaGlpgyhelXahZesm5cor9nH/Dx6iAaKrcuSbEk5kScvojoS7qriz9aUXI5bNA5sWfbVy8gy8+OIx9u7ejbUtPe/Wphdgt/9CfJlUY9GBK5ft2I4qPH3kGUIE0RxtRyynDVIuBFktskfx+CQE4Ohzz7Nu3TrWz+X9JAu5CwxKChGniulUBzzF2mFlOmDNPrEiFaC5gshHQmppEMxX/MXffpb16zbygXe9ixmgZyHX0Be9sDg3qiKKljuRGYqWQgotOckuH6wxR0fJhKiOgUArkZ5GegFuvfF1nHzpeR45+AwD1yOYw2tFCi3eSWkNPlH1JrEUiWjxkbjYSTjPYEwgTUSV5j1RhCcOPQOmXLXrCnriiSEQUov3mn2ZVzmTcAk0FjNMMZyBtYFLLplhbm6Oxw8dJBTbSsRl7+jS4ohkq87jSzJ6viIFyykXD08cPsTu3bvz37s2XPkE4bVYWJLz0tM88BRrgVfFQpO5r4SRnND6mrvue4iDBw/y4Z95P5fMgQ2HOAuIWXYqY0yEXfxpE7vWCR9hte6RW+V0rVmi5LbfQqSywI3XXUFPhHsfeIihga9rUso55ti0wNhcsTvivAinE69dvBAr0SeMptgpJUKMJBGeOXoEVc/lOy4deW7kfoCsTRRslluAFvJX1dI5GS67bAeHn36GpGR9boqLcr9rYQbpnGM4HFJVPQzl+OnAqTOnufyyHWUodt0ripl/WRzu/IynN/Ap1gIrGkUTGYMREp6WmheGcOeXv8YVu3bzttddTZUCfZ8jBSur3KmQ5xg2aiE0epyFtOSxGOv68Pob9vO9730P9VlE38ZAtERV9Sa+4Dha62wrbemXuRghqUSyuTuE0q3wCyg88sgj7Np5GTO90kGDcWuhtcqjL5rKlxu0GFyxdzfPvfACZ+ZBnAdb3BBxrbL4qkq0XF339JFnCJbYu3vnhJlTVxU4XtAVLrRHxRQXE1ZYipyfpWuTYkpECc7zlbvv4+hLx/n5n/0IG2ugPQNpONr82VM1O4vMXy2EhER44+v2c+bMAk8cep6kUNX9JaWihbynke9Z6M5R9+xEcCIgwrA1nn32CFdcsQdrgW7qPaGFXS1GXZQnjsMsIhH27d1JjInDT7+YJYslfeW0i0FXjxACVVXRxkhEOPz0Ueqqz46tm0uXaCs3hXNdItPF3ClWjxXZUSYUlTRRKqwkP8PTLw34/Fe+xk033cS+yzfBcIGZWlBRwpLGtTpySpflCySWRsFdymIZ9YJIpCKx/+orUXX84IcHuP7ytzNsTzM7M8P8qdOjcuSc912iB15EzBcnRGV0YzXLPd6M3CPt2RdfIITApdsvoV+BaxKGIeJQL0RLZ0+JXiUsgZWFV5GsXlGEisTOHTtQ9Tx56DBXXrIJb2PjHADUjaL384WIECyh3uUFuGefZ3Z2lo3rKjQ0QBoFD2rZ8zr/O41c5C7m8fNTg1eq6jzXb7xGv/3KImCBTFgRKQ0xBwk+8/dfwqvwcx/+AD0lm5ekQNM0o1hz1FxwDQerWsJLy/qesnv3bh764QFaAal6nDm9QL/fH7/5rBTH9KKBEnESs6bXxrMS0ZrDTz9DTIEr9+yGYPhOdjaRBlgLLI2CEcNZZMOsZ926dTz1zLO5IBKh0hwFr9Xs3zlHCIFEbk10+Kkj7Nh2KT2BuiwKn33ANh5LU/KdYg2wIgJOksk3L70JSRwHnz3O9x54gPfechPb5sBCthVMOFxXGtxFmRKL2U5XbLGC3S7NEU8QqZCQFPBiXHPN1Tz19NOcagJDE1zll8jQoCPd6cr1GEmM2KkfuvwrjqTCk089Tb9fc9mls8R2kGvjSsueWBzr1uAI8j5FsCRZiZEMSS3OjN27d3P4qWcICF3H0KxC0Gyis0pEsstaAE7ONzz/4jH27duHhYizOHbSK3ryXCWYMe0I91OEc61BnXNtam2xIgIWyZ6/SaDRmkYq7vzs55id6fPh976DviVql8oqtWIp627H7eLX+KAti+Q9kWuvvhITePiRx0muypKiUUR1djeMjOkF1GFyISwYtJb1sNu3bweDfs+RYjt6r014M6wGCRvJusZlxl3Ld+Pyy3Zx+KlniCkTYFZCjLXDqzUESikhvgL1HH3hRVJK7Lh0O56IWsvSMTI1cJriQmBFOeD169cz42CYHAsCDz3yEgcOHODXP/ZLXLFNqRJEm0EstwOSSHbP4mznqNH/VzmgxWDe4E2v38b6dXMcePIQ737HfuasR49e5l5h1E03r2LLKKcssvpj+ElGxJByPlKAqoYqZYvQp585ym233sr6dbDRaqq2AhHEQRMToqzekazwW1ft1i0RqMFQYd/evXhfsdC0XHppxax4fIQmQlVNrimc/+6HBo3Aiy+dQIHX7d/NlnXQM0csGmmKAkhlZuIoR9mYKX5asJSoZCw+gNwJpapgdnaWul47u9sVEfDxF19ioddjwSpOygx//Ok72bxxAze97lpOvziPs4akFa6qSQsNtVdSHGT3rKI+6HS/nRfDaiMKRWi05oTNcMWe3fzgoUc5eeYO2ralZw1YXLJQYoWAJ4jjIs7jJTEExaU8BNoYCNUsT54c0jSBzRvXMTgNp8MCPrYky368SUJOQcTVTWvESlRpWrpR5NecwVB7bLtkC4PBgB8eeJzNM/sZxgV6EsF5Tp9uVpUGSADqiFpzMuacd7+ucAYnjs/TtwGtSJZRmi+FQoFJAp7ipwxLZlTqxmsd4xL49Zw5c4bBwC2T5nx5bN+2adnXV0TAM/0+Q/7/9t7sSa4kO/P7Hfd7IzKRABJb7pkAqgrV1dVLdbOHZuyebjU5JMWh2VAym6HNSJSZZKKNXqR/Rg/Sg/RGmUkak8y02ZAajqThtHo4Qw7bRDa7q6u7ilWFAnJPJPYlM+O6+9GD+10iMrMqqhBAJID7mQUicDMi7hJ+jx8/y/dZDpjkL9/bZHXrNv/4d3+Lszmwd0DWzTnwSm//gA6KBkckzjKI5qn+ts4ii5qqtvIzcdRSU0JqUS6YnJjkK2+9wc/ee5+bGw94a+EsvijITVZJrNefGfi+9l5C8RibY6SDSsbG1jpgeP3yCuKLWP6lig8FqMVmSvBhNKVoEH+PpgEOYMVwfjpnamqKT26u8SvffAtXxJCTSAwfZNlTkgGJ4FUIRvjw+iqvrVxm0oJNE4spCeFDkpyV2D4UD9a80pP3S4WqU3Zgc9DoAUudq7DWVGx8ZgR8KDCkAfYu8ATLvoH/81/8CXNzc3zrna8gbo8sz+n1HFn3FBI8xjtMam+Nbb+CF0ERmgKaqjJcRvuohIsKHujYjF7R40uvXyWgvP/Rx7wx+006YlGNAp9BynI2PeL7Xt2K+qBKbi2FdyAWYycoAqytb6IBZi9dROhhbEye2tQtJ1iMGSEjmGriGU5ND2oq8vOlxQU2b+1CBtbmlfG1eYaGL16GFplHFE2ddutbW/zG974bCSFSPDrWJQtGy8qLhsHV5L63RvjFxzHjuMxLKIerfp67Ae4FwZw6xV/91Yfc3trmH/8nv0dHlAxwLvbq4wpMKXeYstVlzW/UZDtCe3eIRMpRTqoCIYDNc3LnWbh4hkuXLvLh9evId79J8ILFJr7XMiFoU1VGCoKUE8Qri2hMsywQVCmCIpmwsXWLubk5ulYwPjZeuOCxJtIxBu8RMU89damJ8WdJwXqVtFYxiYNBYHlxgR//9bvs7UNHBTGWEBzGPGUSTiK9pVrL7ft7+AALszN0DUihYE2i3IzyS0KIjH0CaExuSHjVx8/LDWNMSjaXBFSB2KcU2+ZH9dsP14o8McnDAv7wn/0xV5cv8Y0vLWAEej2HiDA5MYEET/AFxtTxXqhLvyJ9yqgGrEEl9vJ3rOAPHFevXuXjG59QhCjzFYg3mUcrbyY+fJV9f5UhIjjnqlpcFxQvsL65xeLicgwHGJOW6v0e7yhm/ya3rmpIfNH1NgusLC3x6MljHu7VXT2jUiWOWnPKzfUtggrzsxfBJbKooKlKI1Jw9h+rJhrNFi8zvPd476vuzxAC3o+eC3qoO2lfhR/9+Gcc9Pb4nV/7DlMkXtisQ5532X/8iI4oE1mG97FnSBLXa1m+JiU7Wd2iMfD4fLB5Fgm6NZaJvnHtNfZ7B2xu3YrlRXp4EihJlnbo7gAAIABJREFUVVpQkduUxOhiM+7cO+D+g0csLS3FX6U0vEYqYnTURPWREaAcF0LZWFd7lcHDysoSIcSyODW1FNAoJlDJYlJxY2ubbrfL7KVLSOKFMLYxfqQspyy7Mluv91VA6QFXrHiN/48q/ABDjqYnQfi/fvADLl68yNfffp1MD8hTIsz1CvIsq2YMsbXUTI2YAKuL258++hqcTyTZnswEriwvQVA+urFKUVncJpFPIt6W8ghalAPJh4DmwsbODiIaOXlVow6cejJrqvK9qDwyiutX/h4xbFXGU0vnsmMDKwtTiAibG9txBaWRPOfpO2oMvZ4DMezs7jJ19gynJ8Ea2O85nKZdNGK8ZRnj4PG3eDlxlPpJ6QmPihMbhhxF//bHP+PRoz1+89d/AxNip5AJPSwFVpIAprUx2ZZujrJzKJYWBQSf6PzisjbieLazEnrEA2J970Rm8f4Aa2B2epILZ6b56MZaVFeWmDW3otik3BxUEJtu4lcdPlQE62osPWBtaxMxyvL8DFY1kqQTEO8woojGX/DpV+BlDG2wGqaO2WcUTHXgwrlp1re2YqlaFrmcRWzVqRSqB32P5jdKuc/EzBcVVCbwCusbq1xenovOt++R5RMENRUDoFRe7yhDaC1OOppisJ+27Wkx1Ij64Q9/yKULF/j621ewJpBJVDBo8vhWvL8JVdumlo+GoX3qAHbAoPR6PbLcEoqC3MC1q6/x8c011JI4bgPBxTiOtRZKja9RSCq84IiZ/qTvZgQnsHlrh9OnJjk9kSgotVx+P4sJq06kxehDCj0ASGxJ7hiYnZlhY2MDyQw97xvJkeqTnw8aRUe9Meztex4/fsylmQuoPyDPTFXpQX006ZWp6pZbtBgVhhpND3a2+O1f+z55gLxJnjJGqCpZZvAuanTlAq+/dpVbu7vs3t2LfV5i+tpXqxq+8R/+2FHqoSnggyIGbty4wcryEplJPB5AX4xePnvFMiz6p+vyoOr6WlGwAouLC+zu7rLf82Ugq+/3G8wglBP+pzU6qhiCws7tOxRFweL8HJmxcaI2JpXGJeEACVUNe4sWo8ZQBnjp4nl+6a1rdABxIcq/nwBkWRa16awQHFy9vEje7fA3129SaJQzMsYgBIpEJF6qJ7/qqLt8LAHDoyee+w8fcXlxgcj0GCqZ+iNM5YhQUZzTNJdG4woneFicm8d5z9bt24jNnkqVODTCHQ5hY3sbEWFpcREAdUVjpdYa3RbPHkPdWb/67V9hyiinUpfbKLqgnhomhiDyPEd9wHrHwuw0p8+e44OPPiGYLBrhpGJbqT8koc9XHSJ1OEZsxvr2LQDmLp6LEy0lh4akR/QGR0OhURu4VGGZasXroILVgFWYn5sBYGvnTpSlgkYlSwpjHBkWGFRUqR8qoFZY39xmIs+5dH4CXxyQZ7HBo65yrnlEmnHvdgXVYlQYygB/92/9EhMScHuPyNNSbdyoeGTVYILSsZ6uhbm5Oa6vriWjET2mLPJ949RFDoLWBY7Xz0iqmTZs7+xS9DyXFxfJRKuOxeMN3NOiNIim3k91cAETlFxg9tIZjDFs7OzQ840C+c9xTKVxb+5ZLaxtbXPp0qUo4Fqm6kyt/1Z+tg9VOGL890CLFx9DjeKOeKw/YDK3WCsUbvyDT/FYawk+ku7kClp43nzzTW7fvcfuvT2wMWNexTufYvn6sqFMNnkFp8rG1jaTk5PMXTyD9b6KAQey9Bgt+u1aXQ9eqVAImACTOVy8eJG1rW2ckf5SsIYRLkVcD53nEe66iuHAwfatXVaWl8GDzQzeF+m8m2fbz358lD5iixZfFMPxAWtAQkHwBc45smyoDuZnDh8KrMnjctrtk1nDa1dWUBVubmzRC4AI3rs+ZiMRaYMQgAsesgwVw+r6JktLS0ggMX+VZqcOOoSyZnck6K/9HSzttUjkZvCRE2I7cUI8TQmhlgKxGB4fKI+f7DFz/hzdHNSHKixjTd2wE+PGrcVt8WwwlAG2qVXJmLLO8mSU4pTlSEZimEF8j+WFaTJj+fjmOsFanMa4r9eQlBW+WOfdywanAZNnOLUEAxsbGyzMz8ZwTXrPc1vnDHiupfZglkV6yoWZS+zeucdBD1TsUEa4HBvNus0yHxBQNrZ2CAILc7PgYnediJDnFp8I6Fu0eNYYyhINeicnyR9ohhUyA10Li3OzfLK2RjBgMotPTQcl/wGcrHMYB/I8p3CeYAyb2/coioKlhUUERX3BUROV0aOX9KNEmeAKIT5ygcX5S6jC+vZd8k5OjIB9+tAt8xSqileJhFE2i6rKKmxu78R254V5LJomaU9RFH1J5hhyaJ7085GqafFqYCgDHDvQjlEzHhPKnuymARYF6+H1q8usb2zxuIjHHWh4Qq2UAVAmIg3BwNrWFriCK8vzkVK06nVPXBupGK1uuhktmnFXSbFcNYIImOBYnp0jqLC+sYUHxNqhupHLZF05PowxBK+INWxtbnP61CkunM3BFbHW18Zmi5IF69OriVu0eHoM5wGn9tNSTPMkDMnK6EZOw7hRFOvhjeUV9nsHbN9+gAs1f0HVEdcC76IhcgG2d3aY7E5wcfosaGmAxxOmiZwhJhKgW5DgOX/mFN1ul927d9nrhVjS8hkQkUrMMyZihaAxAScC29u3WJibx3iw6mKZYpJdKkMckbxpYF8ymKRr0eKLY+gQRNUXVbUVjxelAS4VcgPRc+oa5bXlOUSEm2sbKWueGLzUpBvxJEwh40WMhUYP+MbaOvOzlziVpK6azGeI9rUih5TIelrUP0FdnxvVUuIfCo2selYCkx3DpYvn2d7ZRcX0qSEdxwGh5W+OgcTlWxJpuwK2t7ejAQ6QZ5Hi0hOVoqtz15LMv8Gsx7MPw7R4dTBcFUSKBzZbPMc9BptJFo8SNNYF5woXzk5GOZvVm1W9sDEGay1F8CMn1HjREMTUqg/AxvoWKwvzUMZ4paHhp0RKxufk9UkZczUWp0qGIiEwPz/P6sY6Nhu+Oy8qokQPGI0lbEYy7t69x8HePovzsxgUdUVS/o6rPcRW3m+/B1zrC7ZoMQoM7cpoMsI2xC6lcUOwoKYRrzMQAiYUZAJLKyt8fONGlYApiWekVDZ4xaEaDc2d+/s8evKYlaVlCIpIjA3X0+wzIuMZbPBIpV5Vl1nVcOHBB5bmF3jw4AEPn7iKTOmzfsfjar43N7cxxrA4vxCJ4IOLhreqkulHyyPd4llhaANcFeafEOPV5OU0pibdibSJcPXyMtvb2xy4QDAZzvWiWOjI+GxfbKgA1rC+tYuYjNmZS3RQrJg6BHEIzdjwaGLEJtFSluv6WGusaGqwifwdMHPpIpkYdnd38Rrwpj6GMixmtG6Vjp1+tl4B4REN9MSwffsOqsrczFkAOp0O4rXiOHGaVLvLageJHXui5gRlQVq8DBjqLjJo5P1Vjwr4EWiCPS2MCEYkMlcFD+oRCelmU15bXiQTwwc3N3BZl8gw6CrP+UWvBY4L6iY3Q813G2O0R59jM34bFG5ubeMwXF1eIMejRUFSz8MLeBMIhsTDIBXb2GiOv1H1IAZvIBiHGofVEAULjVCEgsX5BXzh2NjaJBgbq3JS3F/S9zUpNKOHLzg1qHoyDsgzZS/AzVv3OHfxLBOTIKKo83SDISuiEKMYg4qrH9VRR6/9UGKuxUuHo7pmn0Un7XAjqdTFwhNUq8TXyUJZnxl7Ra8uzyMoqxvbPO75KGGEUhQFWZaP+2CfGjVZ+ACOjFkOvIXo5YmFza0dzp07x0RmwfXo5PbQ59JV7dv3qFDFWUs+4ET/aFVQr0hmwChnT1umJrvs3r7LvnMpGQh9Q1gU0To67PqOM1C4A6QDNzY3mJm5iDWxpR1VrEJWqnTg03GcxHHe4nmgKUfU3NZcbY8CwyXhyo6zlMga5QGMDkm3i7gcnejA4vwCH39yA8kthY91np3MENzL2+lk6Oc7Lr3DGuWyOlYT3Lx5k5XLS0As0QshQGnEjjFAo6wCiHy7g4v6sm5XCIWjYywdA3OzM6xubJDlHVRqAnelVGCRSm2lz1OxWcxhSM5BAbdv32VpcT554PF6eC1jwM3p57gTHX8OpMWzRaWXmB7N/z93SaIStTro+FWFmzOUiGCr1xrjwB4uL89zfXUNLHitu+BeBr7XQYrEfgREtLoeg9eqFOG8/3CPe/fusby4lChnQoMTV2s1E44yRU9x/Q4xitXfVQa3QvnsfAw2KMzPzrC2eQsvjd/fxPPTpOyh5WvANvx2FwSyDls7Dyi8Z2luFvGKNYIxke9BU7nloINRN4q0XXCvCqy1lbNZer7Wjl6SaGhWnarsi6QKOs6BqKYKgwjRi0JBKylxT7eTs7y0wF/81U9Zv7XPtXM5RnwUmzQp3/Ii30w6+HLgXDR2rlXMtuLTZoMmSZ6tnV2MKEtzSRGiCHTzPM72wxjYUVw/aVBSNjeLoBoTZE+8Y6ILC3Mz/MWP/pL7j2BiUugEHxU9SLqEaUaSVHaIMWmbRo9ZLJvbtxARFmZmsN4hwdcejgjlVbP0h3kMdQK6EhJt8eLjmHj+II+4EMdjOVZGFQQYygBXB6OpKVlkvC29oqAZpU6tpDbpMjVjBULR440rK3gVrt9c48r0ZbqpVjgyujXFQV88lEeuHMHsJiEZDjn0AUFSYktY29gkE8Pi/By+OECDQ60leIe1MU4ey9LiPoJIY29PNwZqwndFUQQTf0cTE30aklH0ik21usvzsxRq2Lx1m/krF6L3W52niYdEgNR0ETSgalEjBMk48LBza5fMGBZmLpCbHiapx4o1iBWEpAuXGPOqsxVBpCTDPAmV8C1Gg+N/x5jIrVdbJfp1CZ8OQxlgay1iLd57NJXq6JhrgQN12VFUOUiGQkHFkWcZszMX6UxMcnNti+xb13D7BxgNdDoZzrmXo6NpMEybVgPRMNV/LCebQOwe1Nzw8Y01ps+c5dI5g+wJeZ5DalQJGsM1pQdYXt+43fC0y3HR0gA3I9TxOwOQl5SnIdDJO+yHguWlOWw2wer6Nu9cPhdby9OHXczVEco2YqNR380rmBwxoGSsr29y6cJ5JjJBnCcEF49FwIfY5lwpaGvz/B0IuKpe+WUYPC2qlcyAJ2wsaRUplfPpfYwD22QLR4GhDPDU1BRZJyM00uHjZqQs21Ftn4EAE2KjRc9CV+Dy5cusb27QnYKzp89gD1Id/0nMI34RHDLA6XlAt69p6IrYncut23e4vLjI6QmYnuzS8d14PYMiNq4qTKhjzWk137+fLwhpMKv1mfFyXy7Q7Rjs2bMEI3RzoaNw5swZdu884Ny05VQ4W/3+hUQDnCWjGQjY3FD0wFvoRQeZO3fucPXKCmfPQNedYiI5s4GUiMsFddBJXZ821FpyTd7iVpboJcMR91Ezj+u9p9s1TE1N0emMropqKAP86NGjerlezhRjjp+WxEBlV15tgCNTlhfDIzvB4vwc//rP/pydO56eLeg6R4Z/ObxfOMylWzKWBU+WZTjvCSGQd7v0XACxHNic20XO5vYt3vna19l/CPg9JikwIVE5pt4IE2TAAI/m9xfV9L3xiE1SRA4ND1NOT/PwwQNsnvHIOfa70ywtLPLxxx/z4NG36fUekBEQMfSwGAUbfAxBqcdYi/fgJOMgn+TeAeze2uY7v/xNHt93eL/HfsoFlBwPPtJfkHszYIBDMsCtB/xS4kjSpX5YO82TJ0948uTzf/3Mpekjt78sfmBCHaEzSdfs6vISvf09trZvE0yOq1pOX26ICD7F7sVaei5EDgUTqwQ2dmJH2dLcLBnxkpSlNs0qgD7j+5xhDLVKhSgdAzMXz/PgwQMODhyY6D9o2XhRfo4oHuCdw9pEW4qwe/sOEgIz589i1VW6b83GHBloNDkpnZ8tXk68JAY4xmoiTMUBa0V54/IyuRWu37yJFwuSHZv5fKHwGWKZYiwhKCKxcLxOpApe4cbqOjbLubq8hNVYDxsZ0gQV0zC4ZatweshoSrHiikqg1HIrvzOt9TVIIsgxsSpBDEJgZXmevcf32b1zL8kLDSbEUgxYBFWftgguKOubG1gDiwvzKQlY8l7Uj8HQgmL6S/4+vf6vxYuG4+6jZyZG248X2hKZwR4tLVmyDBIik9b0aeHiubN8cmM1kXlnsUPqZTDCnwKpkm5KwCAmQ43Fh1hzsLaxyZkzZzh/pgPOJbULaVS7UMvEP6fW7UGzXjq1QiJRKhyXF+cxomxsblOooCmK1sxUV6VCmY3KGggeYXV9kzNTk1w8fzrtrX/SLpNugoLUJXzP62Zs8erhi6trjntAHuOFxTilRMpFjWrJVxZmubG+iQeC5BgKgvgjVXRfHAwee+jbXnLflnW/xlh8ACQHY9jY3GJ2drbqHBSrqaXMJAL+0vomlYhykVEmPZ/SIAcpl/rRs1W0LOpO27TaTxAQPBocF89NcaqTsba1wy9/4yuoGexMMgSJVQzGWryL/M/SgdX1DS5dukBuAVdesdhmYtDk4fv+Ob3p7FZkPC1eGRyX8xiR7XhpxlPVNat123RQT6aBqytL3L57j/uPQzTCZd3oS4wYcrAYkyVi8sSHazIODpSd3TusrKwgHjpG6rZLqTvB6qz/s7tWx9EtqGqyx2niwJAby0QO56bPsLVzCy+CloT7WnvuQtL/C5pqgA2Fh+1bt1lZXmpUiJQ9fjHjWHnAn1rh8DKV0LQYN17YkXT0gTfieWlJacXz2pUlQghcv7FOUEZWRH2y0G8YogxP3dYbEol5ENjY3OSg6HHlypWY6adWvYhG2DZins9hiPTtI8Vi6wrvmDjEIGKxCpeXF9nY2sF5CGqrOG2T6U0TT7QmRYz1zfscHBxw+fLlqoY99mD0hxfKiHJTlr5NxLV4VnhhDXB908RbpjQYZd9+SbBtgmdxdo5O3mV1bT3mfaRWVJDqM1QJppIqMeJkejzVeSYDEWOX9TLJWotPVQ2iYJP3WwRhdWuLPDPMzlyIdIzl50zZ1uupzrtRovWsz6hOgIXI65Belzp+6h0mwPLCHHfu3ueJg0LT+Sfei9gkHJN41trU1WZYW9/E2IzZ2Usln3va60BSsU2wtXiOGMqyNMfkifIItD9DLTgED+Lj0lMVgzDZ7bIwt8zNmxs4jTy3JawGBI1xQ9GUrokeoWjtUcfzThn2536i/ZAqrRQSN3OMo8aa6Ejn6Lwnz3NCcFiJC3XvAj2Bj27e5Pz0KS6ezVEiB4LXsssn8j7bQOoyCyCO/hjzaCakur42pAlVIpsbgYBHLARfQOjFmLYVMr/H0twl1Obc2NwFaxMZU0DUo8bi1MYKiaTeoj6wvrmD6UyyOH8RE3wVajB4DEUcMxLS5FxLMpVE742jblyLFi2eDifPtRsajfIogKqsyMWkjibttxC5Xq8sr7C+tonzgLF9ceCyqL4O/R3vEY3b+NaoK0DKCbEZuyzrZ8swRCaxm8dMwPXVNZYX5umaxBgmITExpNir+sNaaE014BGGJfom9Mb3xph0rAWu6P+DZyLLmL90kYCyvXubkM4zHnOsdcakqg+NZWYmM3yydpOlpVhyZ0LN9FYb1BSW4OkTjC1aDIuXdqSJCMEXWIHMwmtXl+kdPGZ1dQOMTfWl9SPyy9pK8LGyuyeQlLuMXapI5aEpBt9Uu0iGrSQO6XlHPtFh89Y+d+7d59rVqxhPVBPxASuCJdJ6fvp+o9c6KgwqbFSeaUoENuP1ZaPI9PQZTp05xcc3b2AENJAI1cswjKIhcll4a3niPBtbWywvL2JC+b4WLcaPl8AA9ydRSiMhQcmMRXwPXI+3rl1B1HFzfY2DXlq6V4aMVH5VZsVTAqe6S6OH1BRiGusNrA0mt2QMvYlJqKb31uQAds4hFq7fWCVgeOPKZTKN089g5l+ifhPl8Ch5cp8nYgldXdMraYJwziEirKwsc3P1k6q2W1RBa4IUkxpLehjWb93Ba0gqyLUH3KLFuPHCGuBmHLqZtW7CIrElOTjOnxZmZ87z/gd/g2Zl1rzJb5BivWTJC4bm0vSkXaiQ2lDK5FufB6yRGsyrq6gVySx7hbK+tU2ed1icnaGjSi7pGhHDNQSFVI5WXZ+ythhG1gl3PNLvEPrbi0ViUs0mLcC3rr3J7du3uXO/h5jOoW+xJhrvnjesbuxgrWV5aTGRDY1fUKBFCzh5duVzQ47sUoolSxoCuQgdo7hewVtvvsFHN9ZwUHnAfbSKKpUx7k82lgantvrjdKDq4zIVn0F9vMlr1cSBkNSjTZYjufDh9evMzc0xmRvwPUjeYIz9xlblwTK9caWcjJGalyLVKcdDU167Eut5r9+4iU9Mb6oeymoIDTEJm1turm+TZ4a5ixMQCqyVMZ5VixY1XlgD3MxM9zUrlcYzBHJjCS52UHU7OZcvr1CocH31dpVca3rPdWFaeVmOyXifpA46HTzW0pOPtcClL18oPNoPrK9t8vaX3oqUkxqTlT69p1I9aRrgQ+eqzzUsbih5HRRNHW+inoUL57lw9izvf/QJBbGyRW3dilwm4NTCjdUNlufn6RhQfCKZb9Fi/DhBluSLIPTVvlbLZgwisTuqIqHxjjfffJOeg09Wt6oYqmjApJIuOCY22FcnOv5L1n+MZfgkHNpWkkZba+kFWN3YAgwri4tYVawBscSaW0nPSfW64oEgUUUS23AHid6fJVTjRGpFKmY0KwbjlTOn4OL0WTa3tikMUao+acGpKmINXoR9B5ub27x55QoUIKIUbQiixQnB+K3JF8WxcchUWmYMPecwWYzpinqmpjJm5hd4/8OPUEsU6Uz6XhmRvCdo6SGFFGDt389JIcOK1QN1TW5MIbrq7yEEsizDilAUHs0yPrpxE/GON64sVY0cHsWhMYYcQJ6T4rWpotj9KIsJS5Ter4T4mwR1UXS1B2+/eY3rq2s87kEwOSHU3nuhgreWmxv3CCHw2tISWXBY04YfWpwcvLgGOOFoXyx6vtZaMFlF1mINLC8vc2Ntnb0DyCYmosGRqCLsXI/MCOrD0RfmUMvsCUCKW0tqHyhbijPJ8K5UDBaCgY9urLG4MMepDAyuIhnXvnh3+bo/xGMqnoR+rbTnidLzlyRF9frVK4g1XF/dpBcgaNnAbAi2gzc5P373XfLc8trKEqfyrE3AtThROCFW5OlwXF2qqiZdYEOGogV89e03eXT/Hju37uCDwVccCAFUyaw99D3NRN9J6QQUwqFYbH/HVkTAoDZnv4C19XVeX1qkK1RsY15S/DTFzstPlcnJZ3Wqh6Prw3XYlUbYBM/y0iIiMRGX511cMEQRW+FADI9VeO/9X3D1tctMn84I+3tkCNlz8vJbtPgsvPAjsRkOEBVMxeua6AxDqoVVsN5x7fIyE92cX3x4nX0vuNTQUC7ZQ6P0yahUHWGlZwU0StTGB0lSOiWquLA063oNanKcwvbt+zx+/Jhrr6+QaajJdxohlZKes9HOQfM8qxrjMcdgDIoR5dSEsLSwyAcffMBeAZ3OabwLiM1xkrN5+x47Ozt842tfiw0YsTqP4FovuMXJwAtrgEOjVKwkIawRCWWylLghKLnCZGa4eBrmL13gJ+/9AmcNajuRRctIrJ0t1U6b4YbBUrcx6+H1QfrbkUujKSZWAvQw9Mj4+d98iDGGN1+7TMdG3ojagzZImrjKUINJ1Q5lp1p4Riqs5W84/MoinZ96MuD1y5fZ3dnFB9gPCjYjqFCI8N77H5FZw1vXrpJZsCL4wmHt6EQVW7R4GrywBjiiDgtUhDwat9rEixXLjgSjBVIc0AH+1jfe4ZMb69x5qDixUVnBGnwKWYg1ffwEJ6Mqth99TqjUtcDl/yV4rLUUQTETwk/ffY+5+RkuTp/GqI+cCAx2wCUDXElfH46wa9VBOD7E0sEAQbl6ZYW9vT2ur+/gxGA6XQ5CZIn765++x8rSMrPnJpAQCK6HmH7NuxYtxokXeCSaKmM+uCIWBSMK6mKjgaTklO9hfOCX3vkqkk3wlz/9OU5yvBgKNBkXy/GXpZ+4ZbzoP0at6pfTxKORR7cwlu27+2xsb/GNr38tEie4IrG9xe+RptKDhNoL1nJd8fzO91hPeKADr2stOMeXr73G9PQ0/+xf/IADA4Uoxlru3AtsrW/xzltvxe439WAhy3MOer3ndj4tWnwaXmADDIcPv25KiJI8FrGmasftZpZMHRfPTTI/O8tP3v0FwQBZFwqfaHgCIUSNtDLsoNBnAAYdw7g8H5am0Xzmcv74pXi9n3LyiVFsl44zVjyoANbQKxwmt7z3wfuoKm9eez02W/fFzaniwUfvP7Vip3N+dp7v8BOb0YB3PTpWOT0B3/vOd/jwo4/5cHWXB17Yzww/+8UHoIavvf0lMlWseiwSa4DtCz7sW7w0GG4kBq3qMQfZq8YFoyUvbl2lEIl1YmkVScomaOR2DWpRFbIQ6Cp842tvc+PmdXbuPEGxdILQDZ7cBpSiMraKTZ6xB3xsYCjZEaUmwKmY1cQ0Ypqh8SCp+NbKFKE06o1HSPy4/a3FTa6Kej/xMwcIReXNeokPh0Bu2Que937xc85Mdnh9aQYTfFK9iMdhtZ9H2Jd8uEm1WBuTWolR0DWapIZcjiejfWfX914RiQRBTeUKLehYQXsF3//OtzgzfY4//pf/hocWdh38+Y/f5eKl8yzPTtPRHiYUeNfDZh3UZieikqXFi4Gm2Csw0hDWUN9UUho2HycBzZv3uG4waGb6DQbFauBbX/syogU/ef8j9jXDZDn4wEGvh8myZMjijXq8X1ZWSDSMaPXu0G86GxOXEJf5UQ7e1GVuySgd4uJtPGoDFRIZTwohaJ1IgzhYnFcUy0cffsw3v/I1pIAsy3BaK/42eXGrkA7mcOLxWWOw4aXUqEtsaCU5T/kwCCYUTGUwZeH73/42H3zwAT/661X+q//mn7B28wZ/5/t/O1Z8hILMCt1ul97BAUlkrkWDpVOwAAARWklEQVSLT0VzvEHdFFQl6keAoVSRyz78EEKi7QYZtxt8XMvwEIclOBYudllemOMv3v0F3/nu15nwlo4RyDIOVEA6CFSUjQEBiVplpdGzqRQs1iEP7lj6DGk0jA4RRYJgg8Ekj3WQ2a0yiEL13ZH1rKgmG5+809JYxrBG9GYVBZtjyPjow03294SvffmrdC0URUHHZIRjOtGeGz7DuBtjMKY52fdP+kYy8IHc9bDdnH/3e9/k3/zbP+d/+Z/+e86cneK/+P3/iG+8sUDmeliUooik8x0gMwYX/Eh5jVu8YBhi/JUNXCKCGFO1w0eMZuwMLUsvEpmpjEQJmKDusz/0TNG0Wg22smaA9ggiGQAjgUw973z1Gn/0p3/N6i3P6ekOk1k0UNFZjlONlShZVC7JBRN3U8swx/cf2q+AJHa1qqFBEGkQzACaMl399cYh7St5pSKIhFjnTDSwRsret0QvbpoBA+XAObQ7xY9/+h6nJk/z2soCokpmhCyV5o2nn63EYOa0///R8629D7R/gvORLJjMWnyxT8fk/Ad/7zf5/37+c3777/4WM1Nd8qJHLi6KjuYW0agK4n2BGDm0zxavEj79tx/0cjUEvNcqnzSqKMDQBhjiTeFTDHHsHnCfbNChF4ff07c50O3At77xNn/4r37Mn/zgT/ny3/9VCi9kKCKBwu9Fm6o+ilaKAbX1N4oDonRPDCk02xeicVOJesTNwxIVPKQ4b0mDCUg/EVAVSmiclih4LNEjdpR9fl4MQcGqQ0IvSsvnUzza3+en77/PlWtXmZwAW+xh8VFnbdylWI3Gkb7/HwGRxsSqptKSM0bo9Q7IssCUKL/8pcu88+ZVjCid4hGTmYDrEdRxsB/IOjkhs7HZpiVlf8Xx2fJaxpiqnt77UHnExpiRhSGGMsCnTp0i60TSayE6I8+oLv+5IAA9Ub5ydoLf+P53+cEP/5Tbv/4rzC5OMKkTBOewWbw0NlUIxORU+nwiQzDaSAJSx3gDVLWyzfBCWdallAoW9bYy7FC+vww19DnWUhNOlixwPlVEBIkx5U4AlwLPf/mDn3L30T3+s9/+fc5OwWk5Re4VayTyro/TAawM8NF/7vUKOh3hzJkz/R6HSrxGBnq+4PT5sxzsFWQmw1ph30OWgQ15lKSii7U2xpGtUCCoEWx44UuAWowCx0zCkdgJjI2vnXNMTFhUT5Pnn8tv/VQM9U37+/vQi8q0aCzrOlHdYMDxLtThOzz1UlFkU/zqL7/Dj/70/+Wf/uEfMfN7/4Cu32NSPOKjcq5iK4rLftIa1/BaG/tQ06heqPdYVm3UR1uHHA63Baegv0pV3VD9nVg9UWt2xLplxVbGujAZu0XGP//Bn/Hmm9dYnJuk98TzYO8+3WR1vTVjNsDp+hwaR+m8QsDaaR48eNCfdS5LA1XJsoyte3t0Ox3oPY5CpDYnqFKEgtwKuZ3A7T/iVGYJQXngPN2JCTS48cbAW5wMfIoHHFdeydHxHpGzPHz4EGttn1rLMJi5NH3k9qEMcDMDbcTEAPURxC/jRelbfjaqSlr1zJ7q8Jvf+9v80z/+v/nuv7PLl5cvgdunK2AJ0cNM7n6ZaosGNl46Z8qoa4reVh6sVsY1hieibJD0fUf542eRjwJDMGX9RIOBrNp7uuaiKL3YsVaFJ2JCzhnDgTH86Cc/Z2f3Nv/gd/89bAiE3j65zRAfY1h+yGs1LlhrUyLOVNnnJowxOBewtkPwQo6NSthBUZQs6xBUeXLgmMgn6fX2sdZyqtulCDrW6HeLFwMhxJb+Mv9VjslR4nP50pUygeqxS8fnhqNmrk/zyge4HASP8Xt0EX7te7/Cv/yzn/I//G//D//5f/p7zJ2ehODIjMNpNLsWjTJHxBiuEDvogjEVo1idClSy4MiNYh14dSBZvH4hJuXURJPcU8GZHDKLU3jwBB483GO/58g7lqmJSaZOCZN5UvP1sQaiI4EOHl8EOjZSbhaScSCGhx7+5If/imtvXOXLV+fphn1yIxAMveDIsnH/eA0c8oTLmsvma+37/WIMWAk21hFHruA6Q22wGB9XOcbEenCyWPnhT5zj0GIsGKLEMo4nPTT5f17v99MwumDGSUCqOBjqrarkmUEM7PWUf/QPf5c/+B//Z/7L//q/5ff/43/EG0vnsVgkE0IgSnUawYXI2+MUtnfusba1xe69+zx8/AQXAtPnzjBz4TxL8zOcPzvFmclJxEHhA4JBshhTynIoPGzdecB7H77Huz/7BZ+sbbJ/4LCmiyfOvC4UdPOMmYvnWZqf5e03r/HVL73O2YlJDkKPTrdDEaXQKIyhl8Mf/tEPuXV7m3/493+bSfVMCBAciMVkEo2QOUFG+AsgpJLDFI6PUJMKQmKbtcXgpHx/fC7DQGbcRSAtWgCiQ5jz3Vv3ahn0Y2N3zxkNNYiIz3c81sDewT6m06XIJnlictZ2D/iDP/jvuHf/Pte+/FXmF5eYPnue7kROcAWPn9zn/p27bG1tsb66Qa/XiyTuuaXbzZGkPtE7KDAmY3p6mvn5RS4vr7C4OM+Zs1P0egfcv/+Aj6/fYG1tg42NDSCwMD/Da1dWWJyZ4/SZU0xMTPBkf58n+3vcfXCf1bUNNje3efz4MSEErly5whtvvMFXvvoOC3NTdDO4fdfzT/7X/4MPP/yA73/7W/yHv/NbTIU9cgq8SiQpUp+u1WHe4+eKQQ/kiPE0PT3N/fv3D70/dgsqQsAGg9VGkCbVVcfzFLwkRZSkGFLRlLYlaK82Pm+TkYT+8fg5cVwM+MU0wIeML3xeA6yqmDzDhQKHZV8mCDbjyb7nf/+jf877Nze5dfcR3vsYi7QBo4GJzDA7M8PKygorS8tcvbzIhbOn6Ka1xJPHgfuPH3NjdZOPPlnl4+ur3Htwn6I4wNhYP+y959TkWZaXl/n6V97m7S+9wcz5rA4x1C4dYqPX7TwEC+vbd3j/g4/5ybs/Z33zFoUanDpOZWUiL+N3//3f4Tu/9CUm3B5TRF6LwsSkWxZcSuCN2QA9hQGOLduKSfH1yNth8aZOUlrVVDVSkytZDSmAFFKL+bM4sRYvBF54Azx2fHEDHCRyRHgUY2LCx6W+krybsecCB2aCQuHBvUdRO84ondxy8fRprImhAWMgCwHjArnG7wGhUPA2pxcC3lj2isDO7i0ePHjAxMQpzpyZ4sKFc5UOndHYHm2I0kjWpOoHH1CvKRmVUWigCIoai0jG3cc9fn79Jrfu7tI7eIjrHfB3vvfrzF88xYQ6TG8vGiebsacGsYYseHAHJ4CS8TDHBNBniKenp7l/7+ERnyvFWBVRiUlSTQ0ppA43CWWwoa9N20hkQitVQFq0iPhsezI9fYb79wfH43CYmTlz5PaXKwb8OWCNQfCRKMcpJgi5sbgnD5nIMyRAHuDcdBfvM4IR8txCr4cEpWsU9ZFXNzOKCSC+iE0qGFQLjAhgmexazsxfwM+cj0bQWER7GFFMCBjvManWVYNHvSLqowKwsYTgEPWcspaQQeELQJg5lXP2nWsEcw1CVHY2LmD39/HFYyYnurgioCJYY/A+deRJbOZ48SGJVCijDKmY5OGWZfJ1qVm6wTSrG2BatBgznsIAj9t7OOYm+qybKy1ZxffodHKeFD1MZxINHQpVxDjQQDdpxMlBwWTWoSfQ2zugg8EihLIbAHBJPTm2t4bEHufJAfWeUARyk6E2VlGId6gvooG1oMbETL56bGpRtlmXwjkwoLmlV3hwnizLwEQDLxg6CsFHfgPVgGQe8Y7u5CS9ogdiUO2RawcbAkZiG27Q+vhPFPqUSI5/my/DBxqNr4qJ1JzqUpihjHHH30YJ0VinuuqXYfpp8TQYmJgP4ZgV2qG/Px1eSQ9YiHWkvYN9OnlOryhiI0PyFAmpTE2EzBqC74EKHWMrJQmD4JPyghhDEMGpi+EEI3jnyK0BjZQ5QvSYXYgx5UwE1eh9x4NKyaEUESqKAmMtRfCoQqc7gfeewjmyLENQrAQ0JFPjFGsgaA9rDc73sDZD1WNNRtHr0el0cL7kPBtzEm4kGLxJFK0LpxvQ6j06QBfSosU4MRwbWmNA140GJ3QZN0SMOt6OgrEZGgQrAonUPNaURuMUVCmIFteilFHFqmLVxHcGDYnPtiaOySSLSsuJvCcaVk2KvCF+lxy2FVWHrokdh1nK6nsXY5eZFVAfddqArDRCJh6ZlQwJscohCowafAiYLMatERtjpNo8kxOE5grmyCRZWUbWb3yDxGuiKexjjkwW10a4RYuIIe8BCanm8bO5Sz4PXkkPGCpetPjvpxij5nU+btI5ltTlyMng8xu9477/+OP+jEnoxCRSR4FGXS8cPreX6lxbvGxoR2eLFi1ajAmtAW7RokWLMaE1wC1atGgxJrQGuEWLFi3GhNYAt2jRosWY0BrgFi1atBgTWgPcokWLFmNCa4BbtGjRYkxoDXCLFi1ajAmtAW7RokWLMaE1wC1atGgxJrQGuEWLFi3GhNYAt2jRosWY0BrgFi1atBgThqOjDApGUNWo2PDZMnItWnw+DCiZiAgiIEZRVTRIpWPXjr8WzxqKR5IOpqo+MwWvoQywiEAr493iOSKEQAhKCBX9fWt4WzxXPI/xNpwihiqoVqoOwHhl6Vu89DDGJC84er6qmhRGWrR49jBijjXAIoKOSE1mqBhweRNAu/xr8XwQPeCQDG+tl9f8f4sWzxrlWAsh4JzDez/S8Sc6xLft7zmyTkbwjUhEG5Fo8QxRFI7JyYz9fY+1FhEoR2obDWvxrBEX/VrFgb33TExY9vaSKO7nHIP5MbGGoUIQjx8/hicZ3nvAoBqVfdswRItnBVXFmLM8fPjw0OpL2kRwi+eE0gCHEBA5y6NHj7DWNnITw2Hm0vSR24cywN7Xrq+1FpDPfQAtWvRhUCxzYDI3xmCtqYytBqFcdilRkbpFiy+MzxJrTeOxOdGXeYlR2r6hDHD0dk0VfwtB22Vgi2eKONbq1yBVUg5imVCLFs8azVVXafNCCNWq7GkxfBUEdTwkPmsr+d1idBgYSyJC8HG7NSaFv9JbVWl7iFo8S2hIEz5UXm85HjObjcwLHroOWCUANnkmdZFyixbPAjEBUr+GNvbbYnQYxn41x9ugBzwqDNcJR7oJJCbh6iNs48AtviA+IwYctylilBDK5G9dgiamNcQtvjh0mBiwSKo9F8QISjkew8gc0KHXcc2ZwFha49vi6SChHkPVWNLqOSY8qGJtxtZGtzW+LZ4aR42/Q+OxhFZh12YeYhQYygPOcoO6AChBHRoUK4Zn1iDd4hVCaBT4hugZS0A9eNeDEKDhcQiKtMOuxchQjr/+Z1VFjEkeaoAguOIgjsXn3YjhvYIIzcSfxMR0qglqn9vnp3weQAhgTLwnQlCsTdUPIZWgjft42+eX+rkaZwmqIBLHZR81zhcc3yWGMsDlfsoDATCf8qUtWjwtyi6kwQRc87lFi2eNwTHnvU+9EKPB0Em4eDDxuR37LZ41WkPb4iShvwR3dBi+mFIVI9HzFepSDOdc9ZZmrWb8iFbbQgh9f29ub5Z1tB12JwODC6MmKUmJoiiq7UVRHHp/+bdyjAwS6Tjn+sZP+brcx+BYOGrwN8cY9I/B5nc3/+a97xt/g+8fHMctTiZKchyoyXIG/95Ec/wN/saD46FJANV87uMITu9vjunYqBYOvT4OQ4cgStfb+8gD4Zwjz3Mg3nx5nh9aNsZ+/n4bX160brdLr9ej0+lUJzKq7pIWo0H5ezZ/m3LAlW2Z3vs+tryiKFIbcVymNX/jo74b4pgwxvRxPpTjKISAtfbI8EM5eWdZXRjfvEE+7fvK7eX7mp9vve6Tj+aYLMdYORk3qUyPGn+lLRsc34PbS7vWDDuU28rPNMfj4Nhs3hOlrRzE0Aa4RYsWLVqMFq3L2aJFixZjwv8PKrLySEFrDbIAAAAASUVORK5CYII=;" vertex="1" parent="1">
          <mxGeometry x="433" y="110" width="352" height="185" as="geometry" />
        </mxCell>
        <mxCell id="fXdW1Djls__v9O5UNU6k-3" value="" style="shape=image;verticalLabelPosition=bottom;labelBackgroundColor=default;verticalAlign=top;aspect=fixed;imageAspect=0;image=data:image/png,iVBORw0KGgoAAAANSUhEUgAAAVwAAAC9CAYAAAD/ecW/AAAgAElEQVR4nOy9+bMsyXXf9zmZWdV3X97+ZgNmBUmIJETIFBgiJNomg6Ztyj/Idtjhf0D2D5bDdoTDP8hhh0OhCNqUrJBFysFFXExSBigJoChIBECIJLhBWAgMCMzyZt6+3rVvd99eqjLz+IfM6u67vBmMMHhDAPWN6HjvdldX15J18pzv+Z6ToqpKixYtWrT4hsO80wfQokWLFt8uaA1uixYtWjwitAa3RYsWLR4RThjcGCMKRIUQoSV4W3yjEePs3/n/t9mFFo8K8+Nu9l48feOvA+74G957EAuAqgBgEJC3/8dbtABQVcrSEUIgxoi1FlVFRGhzui2+0fDe45wjxjTevFeKwuG9xxgztYNfK4rCPvSzEwa33z8kqiAigACa3N0WLd4uHJu8rbWEsMB4PCaEgJAGrIikv+WtDfgWLd4KVBVrLTHGNNYksry8zHA4RFXR+NbG37nzGw/97ASl0AxuVc0vSIa3RYu3CXp02DWhWzPmmv9/I0K6Fi2OI3mxemT8NdHV2z0GT3i4y0urYEwyvEpra1u8zTgZLYUQWFhwIBZjDMYYYpwN/BYtvtFQVYyRqYEtS8Mya5neevt+54TBHY1GhGzZG1e6cbNbtHj7cHQUi6zS7/cxxiBipgO/5XFbfKMhItPcQYyJwlpcXOTw8DC/99bG3/lz6w/97NSkmY8RawqMsUBMg/8tEsctWjQ44qVOJ2458rlzFhEDCBplxpuJtGqFFl8fmjGnp6tgjU12LoQwfa8sS4bDETG+dQ73jXDC4IoIgp0+JCEkV7tFi7cFak5ESyc4XD1qpFtaocXXhen4OX0chRAwxk3HpfceEaZKmbdz/J0wuInLsDmMU4wxQEsntHgbcczTECAGpuqENm/Q4m3FQzzbBlPaKkfx1hRpPH4DJvq20qxFixYtHhFag9uiRYsWjwinG9xWkdCiRYsWbztOcLhTSNtIoUWLFt+GkPgNyyO0lEKLFi1aPCI83MNt0eIbjXnqqlUmtPg2QOvhtmjRosUjwgmDO19QFiW9WrRo0aLF14/Ww23RokWLR4TW4LZo0aLFI0JrcFu0aNHiEaE1uC1atGjxiNAa3BYtWrR4RGgNbosWLVo8IrQGt0WLFi0eEVqD26JFixaPCK3BbdGiRYtHhNbgtmjRosUjQmtwW7Ro0eIRoTW4LVq0aPGI0BrcFi1atHhEaA1uixYtWjwitAa3RYsWLR4RTqz4ILPl2THtmmYtvpHQufm+HWst/ozizXqCvxU72Xq4LVq0aPGI0K5p1uKdQ7umWYtvGpz0TWeebTzx2de+lxYtWrRoMYe3z0y2Hm6LFi1avAHenKNtDPKbe7qth9uiRYsWb4ivnTJ4M7QebotHD3nIAG7e19YPaPFnDW+P0W1HdosWLVo8Ipzq4YoIqoqIEGNEpE0ht3g0UFXIY68Zd6qtSLfF14GvMXJSQtocoTF5MUbM1+CWqirOOeq6fsPtThjcGGeuszGCtfbIey1avN1IxnX2/2RzdWpo2wm/xaPA/ATfzPHma7C2jXNQ1/WbjtUTBtdaC8YQQiCEgKpi7L/F0bdo0aDxLB7C3cYYCSGmsWYMYhtP1yQDnD2Pb1q805z0wzjzR4V3+vwbvImnO29wY0zj8WtxOJvty7IkhDceq6LH4rXxyONKR4xzWvTWwWjx9aAZYQ8ZR3XtWVx0jMcBay0iJA9DSZ7vN/v4e6cZkXf6+v1ZO/9jx5NZLCTb4RACCwuW0cjjnOPNAiwRqOuAcxZVKIuHb3vCwx0MBoi1yVJnD+MdnyFbfHPjTTzc5Nmu0e/3pyFcjHH6PWmberR4O3HMwxWjUwqryVuprtLr9VLE/2bcrypFUTCqJhhjuHR+7aHbnjC4qopmF7rlzlo8ChhjEpWQubBm4EM72bd4dGjsnTEG51yOtoQ3y9kmSixQFMWbJnhPdgsTofGhBXmbMsSth/JtjTcxmg1fpqpTDuxkZPXNPIbeacflnb527/T5H8MxLvfhHG2TPBPeSEFrS8ekqrLBfeOfPrGXZuCrKkJEyKFd8zqy8bH3TtuG5oBP+7v991v/3zd/2JKHK1MvFzgiC5vhz8L5vNV/8//VEGH6Oo6HvXfkOw8JbSOGOPcoi6bXDOk4RJvX8V9sPp/b5ym3Le1XmJ3Xm9/f2e9x1I7MvZrjPXncc987Dfn7EZevwcO3eUNaQM1Dxtsp53PkV9KdaRJmUYX6TXo5njgKkXRwBgsaMUi6rGrmXs3Fmb2XTsgQxZw4yXRYMvcyRCR/3v77Lf3vG70yGhmOxvQdwaJRpn//mTiPr+P8JTrAoGIIBlQgzlmWmD9rDGdjYFUUFVDJn8tRw9psr/kVyc8mml5KNkiNYXPYaI48iUeOk2RQooDmZxaEkPflMBQ4NBZELRGK/PzPDLno7Fmff89g8QpqLAFBXIH3kcKWx2wKU3vSnJ8xLo2FGBHVbJMsqkKkIEZHoEjXV3W6nczZpMYupf3r1LBHMaixs2spFhULOpss0vfTtRFtrlv+VyKqgaiKGsXbDm+Eh5j95iZKuumAniKpmM1v6Ydj3iYKzLvtZm6/s580R/fX/vut+e/bhXf6PN6O85+faJou/xmNcQAw+ZmRvM0Jzy/vp8klNs9h87dOTW4yFMnAN8dkju4n/eL0/dnvCDQGz5ZUMRn4qvIUrkTEEIJixM2+2+xWZudk8m9477GuxKuhClBHwRYdxtVkejjN0SiNh52Oy3s/5VWNSX9HrzhXpt9puH8RMPk1nfjM6ffiBNL1TK/Z9ponn4SHU2OBJA0Lb1WHC7ObY3AEPN6l6gkXLEYNkmdSo2Qjq0TxNIYaicS5AZFOB95xKqlFi3cAjbMiGGzzXEicGrd5cyCaPFDUpFSKNg95PPXxsQrgafakNF4d0++ll0EFQvam0/HwJsYoGSuPYBYKJmOPKxwheogRK8mQis07U0HlJC1gjMEIBIFaFbu4ko6qGmGtQfOZRZ2fh+bcNAOqSuU91lqKokMIgehrJEaMdWjeSy6VmSa7RGOyvzqbECBFDzEb0PmJa3bN3hjz+5pRESYb+4fj9KutBhUhyOzmvBFUYh5UEZne/LkDe7u9nRYtvokQc/TXeE9TGu4Y5IjHOQuvRWOmCmJ+0HOInLez2hje/BkzDziRd4kg0MbbRVIofdwb0+TVGpVpWB9EmETojgIT0yEUC9Qh4PIPWie8UVI0CvgYEGepak90HX7yp36WL716lWgMxtrpRDI9vmxzGgM6Va6QJFo+J1atgbKwGPWYGCAGiJromHmDna/dkWsgs6vVRAjzkUSePxrS5eglmu05bSt2+pn5tzG4zQ8lntXhQofSd7CxxER3woAG0+zKTAdUc9BHIPENb06LFt9ykHgKJ3C6wW0eZp3bzszRAKcmlI7s4ChlYNRjVDHZS44kLzOII2BPbK+NlZl7X8WgboG/89M/y8d+948YeMAIIdQpko2zfR8xchw1Tj4oUpTc2+ny2p0drtx+QLAl47qa0h7z28+fqogQQsAUDjWS+xsYYvSMx0OQgCTfPX1XhUD2tgGjiXttECRRLpnkBuKJa9vYwNm1PHp8RxKMqqgK8rDE3fx+jr+hDV1AClDkyKyceJJmhohHLpJJhLza6dXThqx/k4No0eJbGUZjpt+YPjCn2c4oMSfVmsSVITTe3pTTzNDmCZ0ll+aNxDSdpjGzsZrzLEyTcORnPf96/h0zx72mKLdfw+3dHq/e2aGygDU4CzF6jD1W939sIlEMxhZUwROioXs4YWxK7uz1CVYoOuWR445Ts5kgJNmWc44QlBAU1ylRwKuhs7ScjadgEOwxr72hc8x0/821PnbY+XrrCZNo8oQVp9vN8+1oolAxguIIb2JxH9oPV1RBfCbvZ7xQzJnTIwkwtYiCjXkQmDRwYt5CpvvIm7/xMbVo8S0Fo9mISIoGZRrqz5AMYaIekvY9ZWvStjOqQaf/a0yAmYbgAGTqIlF7ccoVN9SgUfCS+OR5M4fEIw9mUklAEMNOf8zEdnjt7ha1Ae8Dik49z+Os43GTlWRTC4zEstMbMKJgf1gTBCaVZ8E2v3n0m40EK8ZIp9NhVNXTv4OCFgsMfMCqwUrESlZUJTN95EgaD3xq3JUpPx7EgCbvGTI9oyfPJJ54Z/Y+JGqhfpO2H6dSCml29FhNrrrg0w2UcIQWiNOLZOa84FN22HK4Lb5NMeUENTOpolMPdh46Vflofr506vE2Gfuj/OHMPKnMIs/mqVSByhRU0iFK8qsaauFIwqcRcc09t83vpKMQDkZjKkp648BgklJ0zTbGzIfRpz/nMUY0pqTYbvcQikW2uof4AK7TORGGz9RPWTVgTOrEFZWyLKmDR4uS3kT56Mf/NUMcFS7xvMc1xiJHI/Gpd2qm5xjEUVtLZUq8OIKYI/fnyMT4sLQXEJS3bnBVFSOKEyBMKMXj4pjC1BhqJFSIT7OztW5aWRFz4myakc0qhuZG6tyrRYtvH6Qk1GnrXk31s2KIMWJVcSiFgEaPtUKM2VPN+tg4Z1TBJ5oAwBgEn5wlC+No2a0sOxNDhcMYC6qYGJAcfhN1LsN++pMZRNg9GBBNQXQF1+7uI0VJiBFr7amVqA1lneSkOYtvBK/QG46oo2X/YEg0idudyeGOXbnGduSuXdZAqCZgHNEUfOX6XT7++5/n86+8TnALxGx0DWCzmVTVo9I4suxOZ/y4Gsdrt+7xE3//p+hWnugKFDDGzSkYYqZiTl4pY1PDG4zQ61enD4Nm2xMXS9JN9qGmLEsqH4imwGPBFBjbSTdMoRonWUcziJoBERvFgjbZvjZR1uLbF01xQvPX8cSxtRai4tRQqMAk0rEOX40pCptSMce+My0h0iTPin5CkQhP6hCoxPFTv/JRfu7X/xW+WKEKuZKPCDGgmlyxGI8njBoPOaIm0YeDwwlVhDoo27t7ubLLvgFfeUxtIYLmDFZ/MCYEpY5Kv6cYc5TVbJQcplFo5PdDCHN6WxgHZac/oSpXOBgplVrinG5ZmTvHTI3o1LOVOUfQMQpw9e4Wt3YOuLffxyMEoK5rNB5NuJ0WrUtMbUVVYTienPj8tCtzBEVR4JyjP6yQhTUOZZWerjA0S4y1QKSgtAZrhRAnNGRTNPGI+y7TmXjeGDM3U7do8a2NFNWZacbcTnnZuax5qCmMxamFGpw6rDeUxqJ+kmi97EkmdjfOqsmIoDVOAvgKayCaAru8wCvbI758p0fPQxWzHrZJsylHSlkFkMYblXikB/FBt0fhOqysrHDr9h2iCNEUnGY+GnlVg1QsmIyhCuzvdynLEonK3v7BlJJ8GB0BmbaYNtSyiHHUxnBr94Chluz0R9Q5GdhItI78/jF1gTSEeiOacwW3t/cYBMPeyBOMRWzykktn575rpnIxnTvPZlWcCPQPhw89D049Sw1MJhNUHJ31c+xWhge+4G//zK/w0d/9DOOyoFbFx4CxEWMVq2mmRQ3z6oVGm9uixbczpnynNlpcjnhKRpOXO5oErFsiSEnMiWiHnp4XyfsTFCsp5EYydxuUrR4cRsfOOHJr5xDvFoihUR7FaWZd7PHEUKIoUuP3ZIT7/T5ra2s8fvkiD+7fIwiocakE9ojBPCKkmv6tqgSS9GnvoMulC+cRInsHB4SYJVqcTK43Xr0AJk8OUUhTgYX7uz2CKdkbJHpCxSSKIxvd470RTvPxVCAauL97AJ0VBpNArSmfJqJEDUdnkGMebuKbdep5D4bj02/W3FU5AmsE4yyDKtLzlgPp8Hd/7aN8cXvAF+5v0XcwsYbKT3I9+EzQnW6nm5YUBqNEo1OJy0x20agejmVYW7T4FkQTzc0ng2Z/R6xJDazt0iq9YBnbRbxdBMAdLwE+tm+jQFS896h1qXlKuUh/VFFHxZVLvHTjLlo4fMzGWxTVQCBkz9MkGafOfiFl5A1o6pG9trLEY5cvsL+/y7iCCpvi16lzddK7zWdPVAUj1ArD4ZAnH7+EQTno9jMfmm3Cqcn1mORnJn2uGHxIxQ073S5qHb1BPzWtz/03pj0nJHdt0ThNppmcCmz0tyqGANzb7TGOlu7hBB/TRGMseF9x3GmMU2cy92bIUUFUGE3eosGN0SNYzMIKA4Vf+icf5/Wbd1neWGPvoJdml6gsLS2lQ455N2rTCzkyS7XUQYsWxyO9eY9QicGDNQyjMCktXRX6CmIcUXPJ/Kk1+smxMbZAxeLVpIy712SEQo3Gilev3aAyTcideVAjRPRYj4XTKYJ+r8fK0iKXz59hMh6y3xsQxRKaIok3UCFNk1XGMBxD7T2XLp5nobTs7u+BPbrttOhqLjnVeKoxgohBbEFVw363R+Vruv3u3KoMM8Ocvjctds4JsHhCaVV5OBxOiGIZDCtMlrRaMSlySEc37bGg+fhmvRfyXRY4fKsermggimES4RN/+BVe/NNX+C9//Mf44HueYfLgNksROhoZD4YYU6BYlLnQIhPeNs5eJ24CRzN9D/N0j3sELVp8M+J49j1i5rzeRMeJMRxa+OV/8Sl+8hd/hXrJMKo91hSJM82RY94jaMPkWioPajp4CigWwVgOdndYNjXvvrzJrbt36Feg1uWODNnQHysyAFKh0tTARUKAXq/Hmc0Nnrh0EYmB23fuJBWx2GNh++lNElNCSdnr9gA4u77K5sYa+/v7qX/CQ73b/H1Jx4JJnQbFGnq9IZPJiOXFBQYH3dQ3oakgm1v4MUnessWZSzw2RhNgv1vhg6BSMDgcTR3JEDzypuV9MD+Z9g4Hb7jlibMsiwUmIRIN3Lx7n4sXL/KD3/dunthchqpi1K+w1lEUHeqguZVZrijTnBSYO13F4o2jMgUT22FkF5nYDt4UBOz0YhudhVjNDHR65cfc/qWRyhytLW8+ezOcNOY5q0rTgu1rgxx7zZKC89TJw4/r+PcbNPuZf3/aiU3iqROSMPv8tN+Z3/cMb5y0OI7Tkp5RDLVx1FIQxM0mUGma9Z3yu3PeUTyyr1nnubd6PPO/1RxXg6PX65SeBnKaF3qM48wZ78oUTMwiE7OYz3du/HL0/p+A5JxH07TFWEYBfAGf/eqrvHL7Hvd7ERaWc5cud8wwzurJUIOVVGEVFcY+IIWwd7CHhAEfeP93s9/t0huma+GjojFn6uey/po93SbpZNSk9ocBRoMBZ9fXuHguSbPub++kAo68HE1DJaTWjCncnnqnmlbzCAq93gAxsLxUcmZjhcHwkPpEgUEE8UfOseF4mwUd67pm76CLLRyXH7/EaDiEyFSiFjJnnFavmSkXjt/raWFHt4dH0Aijw1Hizk32tmPMHLykRjhzYyM2dmouoTkavkWVwiRExJV4oLu3zZmNZRYsrC0vEOmwfTBhDNSiU8JdsxGwBIwGGm7ES0llOlRmkX/1R1/gJ37+Q/zSx36XT37uJQ5CibcdfLIgWUIWpq9mBo6YqTaYKDhTpCxvroNWiQQxeDX4KGnAaIBcb50I+4Cxaday4hCxaACDxUqqMPH5xhssGgPO5oxkbuQxM4jznX05MthclpA0N7KhWpoSzUbY3ny3mSRsTN+1TZMSTUZ6ynuHiDPJmwjqiaIpo6wRDZHGqE8bnRBgmmU2BAJKQNRMzzdoRFzKNItYROxU0pcy3yFt1yQEVNEAWEc0liqGZGQk162bgrFZoBsME7OAlyI1bJGkL20SNY3APwpTg6ciRJIMKUpK2xhnTiRRmr/n70Xz4CQOMWfvc8/S5hpiU1loKv00aYSpYKOlxE0nqSjp95vjmu/HmiqqlGiEiTHc6Y35X/6vf8QXr+8zlhLjLNHXFCJJk47BSIFGl2RUYlKySWLSs0udtJ0YvLH4YoFrdyt6owiu5Ortu0yMo7JLc8qEeMRb1jxpFCoYHzDJ6aSW5GmtLpe88OwTiAivXbvOBCG6lJBzlOBD2q9J/VyjcQSV3BEQcB32+gMKiWwsdygNXL5wgTv371FHCHicyUm/hhsWxRslmFyXpYYY05N12BuilWdzo8PmmSUe7DzAODjiOuTrg9R57DqqqIgxaPBoqHBlwdbuHpUGnn7ueUQNh/1Jkp5ZAzFQGJu4WGuzFtjkpGGRyqxjxBvw1nG/28NjOLu+wbjfpxAIAeqQnpEZPQEaIlaKxBdLIFqfevvWaVro99+ihxtylzAMdPd2Ob+5Bgrr66tEHN3BMBkPc3z5nZhngPkqNCGIYwx85otf5frWHr//+Rf58G/+Fp/49B9Si2CKcvowGZUZzzKd4XJ4k2UlPirGpubFzjnQiMRA6RxF0RiQdOM0egRwzjGp61yPHdCQOrT7OlJViSOzhcm6w5jawfl6NrClYYJO97qaB36eg2ow86giSJbxMGsl13isU5H3nLeRdhCxRUpSViGVSEbNg0FsksxMO7XlWzrHyUXJOs88+cQQcm26oarGiAi+Dmgkdzua006GGmvTMuUNl1XXNTFGiqJIXFeMWFcyioZPfeZP+F//j/+bSpNsKIQmw35KLDGNaEit8rJHaIxDnONwPEaMOxqyTjm0JhSeecdTf2guydRc0xAjZekwRGKdEjC2cASS2gZtOmzJqX6+qubVW4U6RCpKvnrtPje6FT/34d9ke+LpVQHXWcr3RQixJoTZdXujwNRj8VZ4+cpV6ggY4frNG1Qx6USPXDNNcWPTnDya5NFJLlYyIkxq2Nnf48zmKmc3C9ZWl7ny2lWMM8TscKBKYWxqyqKziCJF39nzVmVwOMRYWF7sUAicP3eGO/cfYMr0u3AsiS+zAo0m6ohBEYTBYIBzjtUV2FhbxntPb0CqksvjNSX1/BFqwtoCr0mqVhQFvo48ePCAxYWCixfPIlh6/SEYQXWmjLA0NkpmBRgaUmGXSTSoKmzv7lGUC1x67BKj0SHRQ+lAbUmQgqAQUZwVRFKCMtEbgaCRGBSynngyHL3BnT7F4DZGdDSKDIdDzp49iyqcPXseYwy7u7uzr0U9wU/ND3+T7gABuH3vPj/wF9/P3/7f/wbLy6vs7B4QgdonHa9KJNI06zhKbKcTd2CTlzCMirpOGtxRKTUg1YhQV9SxTnIXESRECmsgV8XE6BGjGJsMh3MFS8srhJiO2ccxtY5R8QQCtvHgpt7J3Cs/9I336g1UBrwBJGCacmgCViNFnHnA8+F1yK/aKmG+7HMaigdqJgSjlMUCvhZUOngs4jrUMXNykiILowa0A9qhCYA0Vzo1iYhCFAk1C6XF+4qyUyRbFgXvPbUmvsyKQUIgeo9GjysLSusoVTB1QLPxGntPZRxfeu0WvWC5vXVAVOh0Folq8OLwJi2D0tBORiM2X3fN554eTkOIjqKzhncF42PrTWlzzUz6d760fH6yafrKCp6onipURO+xLk1AVfDUEvHO4I0BdRh1c6szZK2sxJTNF9BosWYBdZY/efkaZnmNfR/4+X/yzwnLq/S9JZgFQlBKZxGpiTqZ0j/TZ6VJMKvNOZAkwXr1yis88fhjPPXEk9y8fgNpZFzMjO087RFMpDZQW/CiyYhGcAIHO13OrW/SMfDk5cvcunk9rbjQ9MKNOn3em0U7j+hyc0nswcEBMUY219ewBh67fJG9/QMOR8xpXptElZxiUlLUGYG9bo+FxZLFAs5trCJR6fcH0yRZpPHam46E8yF7cvK8JE98d3eX85urnFtbQbHsdg9RaxPVYZLnbqY9GrLqwkZU6zQGsVgv2Aij3oDVlSWWV9fo9nuIgA+ALRh5iG6BoIL3FUYUY9IEJ2IxbiFJ+MSCwOGwd9wgHsGpxF0Edvf2KKywub6KAZaXC4qiYK+7j9jE70xDj0ZvJ3NCY5m9t7UzRI3hzMYGVuHsxibd7kEKJ4zMMoZi0gCca7QBEKOmsB+hQugFy8gtMggO7EIWdAesiTnDmGMrgJDkIs1zOy+idmXBQa+LkYBqxLqsSzQWjM2cVzq/mEso02smaZstR0Kue0/C8qYHaWM4ZxrMNDBnHB9ZRic5tJ5vUJITKtZkIl8JdZo8rC2mDZkRnR5ZzHzTTO09W6AxChgnKZSNMV2nTofDEJloKrN0rqTolNSaPDWBtF4TOl3sEQ1YYzAkKkY6HbyFP712j8NQsNMb4DVS1aE5i2MDbp7bTCuelrlMNKgSZIEXX7nGb3zid9DFZWpzbOUCOJJkmRkyN6NiZPbZdAVWm37PT8ZIDLiOEKXO+56pa9Kkl3hEozGduyYaQkxJFeDmrTu85zue56/+1R/nyy9f4eO/93l8URBtmR6+mMvcxc+6TUmcRR/arJSQJuxJDTevX+P5597N808/zb1btyFkDrE5vWO8dgSiiYn6iaSy3aA4A4PBkI2VVfDw/NNPMRr02emOqEWYM0GQw2UxydNtbG5yJoTeoI+GyOZ6B6tw6fw5jDE8eLCTtlNlLqg4HWKJCr1Bn42NDfBwdn0NotDrDWZRXWOw57h1o8wquTBMQgAL3W6Px8+us7aYqti6g9GUsknRtp953lmRkZqOp5eqgBYA3Lt7m8uXL7K4ssjh+BBbklalMB1euXmP7e4AKRYAg5WUfAuxTitP1H52HxVGo8M3vBQnPVxJs+De3j4QObOxDoAVWF5e5ODgAHKpnkGmoaFKk+w4cbV5sLuPsR0ev3gOZ+DM2Q2295KezxRuThWXuc65rGWa2fOKrsYxcQv8nZ/9Nf7WT/8KPbPE0C4xjkxDZxHBx0BEkKKkChGso+EqfZ1CYIwwHh+ystzBSiSGGo0GwaExSWxqNURjaPR8R7qkaZ4csueYPPLk2VpNfOz0Cmj6VhpEWdGhDhsTjwgOtAQtk5c1NSY5CRAUK6kSqWMcsa7oFIIEj8Qw63eaOVCVkI5FqmT8G/6JdI/UB4w4Dj3sTQKf+eqr+GKBYnGZqMJoUk9lQ4pQh0AdAl7z/Y2ZDy0ctUYmAV65sUMli1Smw85BHzUW4wqiynTiaMLEdM0cmpdnsTFiNGCy3rIywqc++749ENwAACAASURBVGV+89P/hp2JMrEF3qQoo3ksrUZcBBebBtwpEdSoZuYjpToIPgg1kZBDw8JEgp+gsc79UnXaCySaenoNEzUluQQ1UQr3t4cc9PZ53/NP8oH3XeQvfO+f4xOf/CSDOjJCwRXUWSvaaDSTHrS5rVnZo6lEVm3JK1dex+B5/qknedfly0hUbt68SbOWWdPE5ojRlZwzyOt8dYyDEBmOYTypWFtboSzguXc9QT0acuvu3ekih01yTzN330zKJo/XGNMk1O33cM6x2EnP4sUL5wFha3v3mN1oJlE5IpWCNGlEgYNej7XNNQqFCxubhBDY3ds/bjBoyKamUrXp2RDQnK+BnZ0dzq2vcm41edoHg3EqWJA0CoSI5msjmi6eisuRqaOOlmgLPLDf77G8ssDSUolY6A0qsNCbwD/4+V/jDz73IiMPIT8LKumYOp0Ozlgat7OOUIW32EsBDIih2+0Sas/5c2upVjvC5uZmMrjpmUvt0OYv7NToHmH2uXNvGx/h8vlz1CM4s7HOcDSi1uQ5TFUJMkskNXyOoBQ2nVAVhZ3+hJt7A16/1+WnfvGf0gtAZwmVtFSxxOTqhyw3EWMgJPVFWnQuecu1gnYWOPQwkQWkXKGKFp8zuC5nVo05umgmkDvpzwbHTI/XdF7KyaA5b7Ux0ImeaIz4kS1OcmEkEbfgCFJSi2WckyzDqkasS5xnVnnM97FoAjSabC2Jow4h5MRXCSsrfOKPv8TPf/if89LNLSY+TaRBE0froyFQEt0ibmEVtel6ijXUwSevyhWosVy9cZtxDdgFbt9/gNq0nErT8i4Zh8Tppmsw04E4Y9A6hWsqwljg+l6fgSzz1ev38VJM1SrJcHtm3z6JZtLXTDkEdYRiidhZopKUVxAsJtZp4mryDk2Elo83JXNNOq6mLh/h9atXsRJ54clzrBn489/9XqrKc3dnBy+WEBPn64yZLvt+8viaCcJQI1y5dg1nhfc8c5bnnrqAxMi1W3cIYqdZem2irOwRGm2qPKdPDCLC/sEhXiPr6+uYCE9d2kBQbt69R3QWrJll1lXnJuRwhFZQgV7/kJWVJYwkief5zfUk8do/YNaLV6aj7TgSm2UxAvu9A5aWligE1lY6WFey1+0x63I2i+0aSD7GZtIztuBgUDOZTLiwsUbHwtLSEr1BP7eETRNtI+c6svwNacHI5h54C72xMhr3uXzpHGurS1STMd3egNrCwVipZJH7+wOkLMGViHW5LWXi6Ou6Tl4vMBxVpzbzmccJgxtJbca2d/dZWlxgdZHMecC5zTN0u93UgszYaXMamPOejnm4UeDB9j4bG2fYWBJWSjh3dgMfarr7vdQAY+rR5YeoKaCYcnAVYg3iHC+9ep3RJPD9P/hDvH53m5//tY/SnURiZyEZHxGcLdGYQ0DrICa+EcCUHUbjMVqUDLTgFz7ySf7gT29xyAKxWMHYMnlvQAlICNhosgc1M6xGm+z7bImTplm7jQYT7ZR2aDpCeeOysYkE40EmCBOiVNMQVrJBaQZrwBJlgZqSF6/d4rWdPQ7LDpPOArXYzHnJbOG7HPI0Lfckqy9UFcnNSMSWjCi4P4CPf+YrHNo1rm8PUrhpLKUrqCaeKCW16fDq9QcMvcWrUAWPGAfS8GnJ87x69SbvevwJnnz8cfa6B1QRfE4OxsbYTu+y5MRrNopecabAprvNWOFBv6JPhy9fvUfIHo+dXvs8kRxJ0MwmmNR4O/1WEMfQOLYmnr4tGBaLHEaL2k5SH1STHL3E6WQYRZBokeiyCkAxWqeQ2wkvX3mVxy6d5+Jah4UITz/+OCEo97Z30QJ8Do1nkQ25J23zVOj0WYk4KoVXX7/Oux6/zEoB6wtw6cI5vnrlKr7IibOmklNSYjvJ0GYdxoianAzr2OkeoNaxeWYDrWFlES6dO8vNu/cINiWAoDkgOcHhNlGuAvsHfTbW13EkG7DgYHPjLFtb26csK5754WPvikgqLjg8ZH1lOSWyDayfOcveQW+W8Mymu7mLzWjRnHuRbDTvb+9giw4Xzp9Ha9jcXGW/u5tUGnOUUjPhqqZzi7lQw0jAiqcWuLe3hZXI5toiGwuO5U7JuPbUBu7sHuBdyShApVBHQ5QiTdbZ1jTJVxFhMBjyZkuSnfzUJO+w2+1y7szGdNAYC6srSwwGg1QimKVC81UWaUDpjNhXAwpbW1ucP3MWKjAezm6uI6Ls93o0pSZH9cVH9ZEqwqiuCA5u3rnD6tIiP/6j7+VHf+Tf5aVXXuHLr7zGcOIRWxB96gofc1WNakgemcDEdBhRYjqrjILw4mt3+PQXX+aXPvpxXt+qmGga3CEosfZYtBENpRt1ZPWKmI2tznm/LnFzaomkZUy8FNNXzB7N9DpNk4PHZ0Uz3adRR1RLLZZf+PBH+Ymf/jl+9SP/kt1hYCgFYylJj5xgNIXUNR0q6eClyB5SGvQSUzZ1FCHYgj/56g26o0htOly/d58oUPmawibaI9iCl67e5e/97K/w4uu3CTZRMR5NDUmMpVbwEa5evcrTj1/m/PoqWzs74CDorBdpWtbEouTjFQg5hLdZ0YBNEqq9HtQqqOvw0uvX8AKRMl8ZnUtIZi8tX7VZb9dkiGtxTEzBz/zqr/M3f+Lv88v/7OPc6dZMbIehpnsizbLWU3mZmXqMU2dCE4cYM5d889ZtHn/sEgUeGyvOrHVYXlrh2o07TAIgBUkOFbGnNFNp+t0qSWVwcBjZ2tnjvS88i/VQKrzn2We48WCHXgVB7PQ5aSaYMGfVpiGtRqIV9nsHqCpnVtfpWIhjuHzpHPd39vAKQZNkcqrDnXplaclvzfLKGhgMRywuLlAI2BDAK5cvXuL+9hZRJKlf5i2smunM0tgGr5HRaEyMns31DUwADbC+cYa9fp9TDABNO4CkXJktSKvRsL21j+DYWE0e7urKIr1eF0vK1/goBFwa+9OIZRZpoamgoSayf9BFiFw6s8HaYgf8hP1Bj7HCwXhMhTKY1IwjyXkjlWGn9d4sExUqFYIRhuOKh6TF5u7VMURN4cH+QY9zZzZTj4t0Lzh3dhMNnoP+YZo5QgqLGwG0MQY1OcTOjXx9NriPXb5IKWBrz2MXzuO9Z2+3O8eLMr1JZk4Q3zwEIWc6r1x5le9613nWgA++/wU61nP3/j2kWJgdg4IRixKIEhkLXHmwzU/+/D9maywM1OCd43c+8wU6Zy4QF1f52V/7MCOFWgyqBdaUuclIIEZwrsRIShwZ17Smy1n2mJIhxiwQ1AEOxFFJyVAdPQ+1FIgp07EFwUmRnrZmSaL5W6IWow4XDVbTAz9W2Dr0rF5+hj/4/Mv8rZ/8aV7f6TN0hroosnBbUNPhgAV+4SOf4E5vwogiednZiwkK3paMDfzuH/4xFy8/xrufeY579+5RKRjXVA8ZKjVcubvFUJZ5+dY2FanPhvdJP5rooIJbt7cIVc17n3uKJy9ssN/dpYpZqI4QXWoQPWGBSSxQmzy2VLaaky7iGIek593e6qIqfOd3vMD29gMODqHGEE2SwRFD8uoarzkKFotTResxiEctjI0wco6X7uxj15/gM1+8wf/2Ez/DL/76p7l9ACOzwph07ZIHlKiD0hgkekQrkBq1wkQN0S1w/dY2veGIF154AQkVhSjOwmOPPcatO/exDkKIqQTVuOn41qYMFhAJKDVq0kR05dp16trzXc89yxJKGeHpdz/JoPLc3h2DEYJXbDQUpkhjz1qSUEqpg8d2SiqSl97tHmCjYXNtCatKR+CJS5fY3ztgMM68LWlcESJGLCEk7Wo6vpSEU+Cg1+fMRpKGGknRw/mzm2xv7aJGqOIbh9DN/rrdLs4Y1ldXEwcPrJ/ZZHd/Pw35yHSy1CworkKEvKqEtRYNaZHI7sGAEJRzZ5Yhwupyh2rYJ0bwQTDFIh6XK+sM6kyKzPAUElKPYQtiDTs7O9gIF9cW2egsYLxnOBnigZ2DXTxKfzxEGw5dlU5RUkdlYgpe39rnwdAzNtAf1g9tNPRQg6t5xup2u2ysreAMkAX5G6urAHR7faKxzC8JrFm+YXRGwEeE/V7SpZ3bSGFJx6aWZ51igf25cAJOhiLT5JRYXNFhe7+m2zvgmScu0ImwVqZs5/bOHpXm9YJNmnWTRxeSP1SUfO6lK3zp5gP+6b/+HAMHW4fw5Vdf5f3vfx//6V/7Tzjodfn1j3ycSQQtF4iSbpJ1DusKJnWVqmqM4TBa6nKJUQ7hiqJIyzhXHjEFQRWPUDvDP/y1X+dnPvTPmJTCoKpyI2VDqCPOJl45VQo1SRuIxhKxSNbKiCvY3ukiRYe//EM/zP/wN/57ljrL/Nwv/mO2h8rElkxUMIvLTKLjc6/e5lN/8gp/8MWXoVggRKVwZmoovXW8dOUud27d5oc++Jd49vFLPLh7O+mcEeoqEBWkhFtbXQ6lw8s37oIz1EFxriAHtNSqvHb1OmXH8NyTK1xYX0JVebDVS+tPOZcSSLbD9QddfuHDv0G/grGC2JQlTkttC9gSr7C9vU0BfOD7vgcTa65cvZ5CupCUGqUtUyLRlARTUFvLMAZqIuVCiTGSOGYMvXFkVFV84AM/wH/33/43/Mi//yN84cUv87f/7t/nN37796jsAkFt4ghFIGpyJJTZml3GUUcYBXj1+g2KouDd73oSJxEbauIEnnnqKbbu32c0grJ0SZ8Zs3RKDYjN/GHKk0PEixJEuHb9BgsLC1w6t4nTmgWrvOuxx8AVvHz1OuMAYjtoTOOmKIqpEUp9ETT9nrUEkkJheXk5pWdVIQQunj+HCmzvHBCNSyx4lkuKziLWGJMqwzjL2KdmM6vLiXcVDQjKxvoaqsr+wSj1e5h7Yk/rnRJVGYyGaPBsrK5kvTAsLZT0+32CZxqKx5gWplQj6TwRjLVJEQCIFXZ397l44XEMKZl/bmOdXi/LuXCMtaSSRSZB02QVAs4ZNNSItQRX0A/KMMBef8zq8hqlgc0VsEY5PDwgCmwf9Iiu5HBc5ygqEn2SFxblIkMt+Qe/9CE+/FufYgjsdvtzvRe+RoMrWA6HnsPRhLNnNme9O2Pk/LkziIEHu7uJyJ9mspneMMnyGlUhiHB3a5voKx6/eA4JKYO/4GB9fYOtnZ2cBDia0Z/q70g3ItaR6JVrt+8x9p7veOEZLJHSwoWzF7h9fwdvQK2dozZISTJrGWN57cE+484qv/0nL/GVLfidL1yhsMpf+Xe+i/c/s8Fffv97+cKXXuTGdp+JKt5AsDmzHT3OGYwTxmK4sT/i45/9Mn5xmYkIEz9BSNVg0XuMS17d/UP4wrX7fObaTW4fRoq1BaKEJKQXk3TExhFjQNUTJVKbyMQIXgxq0zLSISrD4RCtJ1xaW+Jda8Jf/6/+C8bjMf/oVz/EQMGXy/SrQFUaPvvKLSaLm9za6zPRWeJAVcEU1AK/83u/z+UzK/zF7zrLc5dWsVWfrfvbqdKoSMmBUYAbW1uMjeXavS0OKzC2TF6+uMSNGcuV169ydnODjWW4cGYR5xzd7gBjLH7iKUzqYvXHX32dP3z5Fr/xu5+BRUdswm6THkpPRA3s7myx7OB9z69yZqXklVdewZSAFImq8cmznkRhRMGk7DAuF6g7BePoqUOFFYMzHXbu3MfGMU+dXeTZc/Cf/wffzf/8P/3XvOfPPcfHfvfTvHZ3H7FLWCmwEQoxSTIXobO4RlXnqM8UxAK+cuUqG5trnN/sYEPAxcCiVZ64eAb1Nd29RuaUE8oxS5Gyd5QeujTBqEls/ZXXr/H8M8+y3LFQVTit2VxZ5Ol3P8Enf/u32R95vDNIsYDFUo3TcjO+Tg5AE2EiSQeyv3fA2Y1N1JIKIozy5OVLqCp37t9PnLhJFYdKis4sZtrXFVJG/nCkVD5yZmMt5yhSiuzyxQsQPQ9295LjBZkmMXOvbGwBrGF/fx9EWV9dgpByHu96/BK+GnJnazdxo8ZNC2+aZGMIYapQsEWJGLh/b4cz69k2CawsL6EhstOroSN85Lc+zac/82LydIOmni45Ad6rPC/dP+CPX73DwMLt7QM2Ns9hgLIAK4GDfpcAPNjp4eNCSlBLum+d0mHFMKkiXS88GMGXrm8zFBhHg/o3XmPnlKSZsL27j7WWM2fOQFNyirK2UmKMYb/bzesayfRiiNi8dnzD3SSDcffBFmICl8+fSYmHWGMFLpw9x173YEoZQJP9n/Ux0DyAiqIEMbx+/TpLK8ucO3cuySQCXLz8OHsHQyY+62Ozd500nQKSEjz3tvZ59j0vYBZK/um//DSf+qM/4Duee4aLqyUrCj/ygz/AuIpcuXkHtXYqVQuhRrUmRs+kDlAs8pu/90f8ym9+gi9dvccIi1lcJmikdKm7UB08lYVXb95nqI5aOrz46hXGPuJ94oabjHwg8YNIxFjJ1Vt+Onl5jXiErZ1trKk5t1qwHJVnzq/x1/7qf8SNGzf4yMd+m4k10CnpDuGLL19h6JUH23vZKzDZiyxQMfSGkddev8oH/vz7WBV45vIZCq25efsWWpR4FbxaJgG29/a5ePkSo2rC3a29nBDKUQyWcaXcvH2bZ559mgJ47NwGMUYebG1jcwQUYwRnefnGPapikU/+0We5uV3jpQRTUNgkZ/IaEQPd3R3Orq6w4uD5Jx/jldeuUAtUxuLpMMGibolYLFEZy9/6e/+Qj3ziX9P3ireJ1kpjUdjf7VLGwOWNRYpRwAw9lzaEH/3hD2LKBa7f3SIi1HVAQ67YKopUjOLzpJ2pqgDc29riyccew8TMnUbFRM+Tly/TcY5r128yqALBJo67WRGw0YWnHgXJ8AYxdAcT9nZ2eOKxx/Fjz0JZgK9ZKOA/+/H/kMIqv/z/fYjDCJOgBDUsFiUd18FaR6jDnAQrVVnu7+8nhYImr9ShnFlfZ6HssLWzTZ1bGBojaK6MIztJNjstPgQOen2cc6ytLqXElaZzvnj+LGhka3c3UVmneLVktQCAIuwfdClLx/KSTXLGEHnmXY+ztFjy+S99iWANVapOyLr6rJV3joAgxjEJke7As7e3x+OPXaYQMBHWVlYR69gbjNkfw8d+5zN8/quv41VwzlEai3hQU2IW1/mFf/Ix/p9//BF+9pf/BVt7Xc6ePYszieZYXlli5Csi0O1XYDsMhhOqkI1/8Fl77Lh9v4surHNQCTd3oD+pcZ3yrRlcgN39Lojh7OYGQoAYsKKUDhY7Jb3DmVh51g8z6XIlKpI/jAbu7WyxtrrE6mpOREgqQtjY2KC7f5C7BaU7Nt80JqeUUBHqoCCGV6+8zqXHnqCz6BCbaqXPX7jM0Ef2enVKSGlTtwOYVLU06MPh/gHveeoC//GP/iVu3XyV8bDPX/6B72cRWIqwudBhbX2T6/fu4TXg1eOs4Ay4QqhjjSk7DINw/UGXqljhQx/7JJPCcugD0RlCnUoSg0ANfPmrL7O8vMaFC4/xxS98CSeG0joIftpbIOQQStQQ6wr1ExYFCgKh9umBN9AfDYlhyOaqYdkOWTJjvv+7n+Wv/OAP8Ad/+G947cY+hxFevXYfX4154d1Psnt/KxV+aErW2XzN9rsDRIQnL1/ABji/vszSYoc7D7ZTZQ0GNYad7oiJn/AX3vdeCht5/foNJkExzqXSVTHs7O0zHE947pmnccDKMiwsLLC1k4y9MckTrmvY2t/j8tPvZizw8d//fSbGJMmXT2WpkpNBO7tbXLxwBibw3heepd/vcfvBiImBoTjiwirDWNCr4TMvvs7N7QFXbm8j5RKVuqyztlQRHmztUBJ5YnOFNfGs6IilMOHxcysYcdy9t5Mkjq7EOMOkrhiFGrvYYezTMlMFARtqBgOf+7leTAbXdkAKjDGsr6/iOh3ubm0RC8tIbFqYMHOIKbeR01tq8KpUwXDzzj2MMXzn88/n8B4sCtWYZy8t8OM//EFeu36VP/7Sl6lM4rHVK9QzTpdGqaAGH6A/HLG6sZ5VRDH1eHBw8fx57t/bAmeZhDShG8k6VeYWgM0qiG6vjzGOjZVlJHiaPrprSwWls+zuH2Q9DUeWEp9HU+reG47odAoWSigN2OA5u2J5/umnePErr3AYoDIlVUg2pMAkxwOQnLCcRPjySy9R1xO+98+9QAGY4NlYW0Ftyfag4nOv3CMsbdKrSQlMVaJPeZgKy34Fd/bHPPnse7l24xaH/S6PXTxDrJMPt7i8wuCwZqSwu9PFSImxHUbjVGIs1oEYbEe4t73H4ThQReG1Gztsd3ssbWy8RYNrHN39HjFGNjbXUpOYTJYr2VB2k8vdCLF1jrgRFUwW91cRHmxvc+H85jSV7IzJ+1nncDRmXOUHXMiNgmcikSCCzw/lYBzZ3t7muXe/C0cqX7QC58+fR0S4d+9e+pZIKjzIk0AEtrb3CFXNe564wL/3fU/wrvUOT51Z4r3PPAF1hdZjOhYuXbrEndsPclLBTlckrWONlI5aDP2R5/ad+1x+7Enubu/z2T+9TmVL1C0QNFVNSWeBSYSrr73Odz73HN/7nd/JzWvX6Q7GDKMQ3ALDYKjcMpNylUNZ5VAXieUqrrOCRo+JHls41KYk4N7OPmc213FWIdaoP8Qx4cd++IOsrq3z0Y99koGHz//pS6wuLfD+7/kuvPd0exOmzVMUMJK0jypsrCxTmDS7PfHEU9y4fT8lB0zy8O/cvYdq5Hu+42nOry5x7eoNpHB473PlD2zvHeCc4/zZs0mg4tM96fb6+JB01eI6bO8f0O/3eN/3fg8f/OBf4t987rNcuf2AkVpqlSzEE2oPBwf7XDh7jkLhO555lkLgE5/6bb7y2j22xp6uwqE1+A78xid+h1oWufOgl/KP0eC9JuE+yUM/c+YMhYFQpySXjRU2BJ58/Anu3ntArcnQe6BYWsWbZJBUmNbNY4Td/QM0RC5ubFCa7PEYAaMsLML5cxe5cWeL2sHd/oT/8+f+X17f2sdLSnAlD9Gm50MKorG8dvU6BuXypaRvndQVRoRSFBlO+KG/+L285/kX+NA/+w22ewPUuSTZCpEQNDdXmhm6wcgzqSs2NjaSZCwXqWhUHrt0mTt37qC2ucepHLyhEqbUBGCdY/+gn+zA2npaVSILswoDZzY20vpmp7hsxzv8eYX+4JDllUWaVSxKiXQ08gPf/37ub+9w5eYDpLSoLabVjDGmsmxVpVZwSwV//IUvcvHSWZ64tISEQCGwurqcHIlx4A+/9DIjCnYHFangL0UnpiyppWC3N0Sx/IX3fR9/83/86/zYX/kAf/69z7JUQGlhdWmZ/rDGBwjec+n8OTTCYFQT1FL7SE1k9P9T9qZBkmVpmd5zlnt9Cw8Pj8Vjj4zIrFwqq7LWruqF7ga6oRcaGGjWaWhgMAONoUFIQqYZm5Fmfkh/JBOIMUzGDGAzQiBNz4gBWmIYlm4a6H2tvSqrMiu32MNj39zvvWfRj+96ZHYjkNrN0iyXsij36/ee853ve9/nzWF7e5datcro6Bi3bt0mB0yl8s0tuCEEdvb3qdeHqKW2vMgRFT0a6IyP0t3ZBiX/rTL6rD91hmsr+0BZDt2dbaanJwmFwGAGwIvRiVFcCOzsHd7XGQ7cPVGLA0fJsculipdv3sYozZXzS+gsJyn6coSdaFJLYGPtrriPkGRSUx5PvYrcXL5HrVZjvjXMWA7/9KM/yD/+6A8xrHISXYi/3sL89Ax7WzsUBURVp3BCrhqQ9D0pK8urVJTiw9/z3XQmp/n9P/xjjr2iFyzYFG0r9ErrZ3G0z2MPnePJqxfRKvLc9Rv00ypHtspRZYhXt3P+6f/yb/nHv/IxvnDzmENV4SCX6b9JNFksyAmoAEd7+zSH2iSpoVAJ2ISKDgxV4Dvf+x3cvLvKc9f3eeXGXR67epmFmQ5UKtxc28CXx+FQypv29vbxPtIem5AeuobJuQVWt+QBygsxXWxs71BJDFPDcGVxlpWVFXIHRfREq/BKTkMxQKs5LIMVYGpiiq2tbYoAIRF40cr6OmlwXJwZ44Pf9iSNiuHPP/t5CpsQTEV8/lj29g7wPjIxMYHVMD5S58mHH+aV517gN37rf+O/+R9+iT/4qy9xWIU//uIN1o56zF14mKMTR34Kqa5hSDHaEjSsbG3Qnpoh0xIbXsh2jVaKc/PzLK+t4gzkBjKVcmt1m+MiwamKtLK0plCWwlTY3jlERc1kexTjyqMlkLk+/SKwcO4C61sH7Dv43U98nq+tHfLFOxtkOjlbyCRLTEwwLsKN23c5v7BA1UqPMalUyYsCi6elAvXg+eB3fgfGptxaWeGkKGQjVmCSyhmxLUZxYe0fHOJCYGykTeoh9WWREyMzMzMcH5+yu58JtDzGchAmEsSzwVl5aj08PMbalHq9+uB8HA1MdSZY29gq5yzcl4I++HoAiLPR3aYz1ZGyzeekKmKj5/KF8zRH23zmi1+l7wElBD8xPGmsFnhSQLG6dcLtlVWeevpxtBaZWoJmeKiCi4HV7QPeXNuhh+Wg18MFsEmCU5EsRrxWbKxvk+YF51s1zlXhh7/1GS6MNajGAl1ArVLn4LDH7h5UVMHizLggIT1lz10TrEVXYK+7xfjwMBfmF7h18yb7x0ck9cY3u+BGUSiMjMg/Ro9BBgBGwfDwEAcH0nsdJH4adX9Puy84jvRd4Oj4lKnOGIlSZxa9RAcmRptobdna3hNd4UB79sDPcdqSacuba0d88i8/TaI9F+bGSQlY5VCuT60Glapl/0igEUopdPAQCyDgtXzZ1WqVsYal7j2zzYSZhsW4rOxPO7J+zpULc/gs4/bytpgAEnMGwEBrQoSbt25TtTDbge/74AfoH5/wV5/7isQORU0OFNrw2o2b2Fjw+MVpFidTxkZG+MrL1zm1cBDhMy+8yS/92q+zc3JCpgy/9bHf4//8w8/R8xadpvTyHiQlWs4KBHqs3SbLOAO9aN8ncTlvf+oSF88t8LGPfYzT0xOeeewK+PRSpgAAIABJREFUs5MVsiJnZ7889hl9xpHY29ujVqsxVJfznjEwMTFJlnnWN07BaqKBjbV1xkfHqFm4sDDLwcEBO/tH2EpCURRgYGt7mzSxtJrgnccqaLeGOTzcJ0RwQdxRq6urVAxMjyUMWXji0Yd54+YtinJTDQA2Yau7g1KR8VGRItkAP/lD388v/Xf/hJ/7mb/HM08/yZ996lP8q9/6OJ/4y09y/qElnn3rWwDo7vQoQtm/9x4XYHdvn8nOuHyHxuLQxAAVremMjaJiwcbOFrnS7GaBX/6X/5pPfPZLghYNMv33KIoY6e4cEKOiM9pC+RxrpMCoWkNqNJNTE/Tygr/64m2++OJ1MlVneetQHhx5uojRE4gUPpJFWFvvcm5hAQvEUEgVniRSlboM6wrmJ0chRm4vL6OSBFcWNc6VB3qtcNHhNRycHqOip9WsIXDDyCCAsjMxSmJhc33jbAOgNLHEKDZmpeT6Oefp9/tUq1VxeoYHITcwMjbM3sF+eTL9BhntNyy+RZTWzkxnCqPvR7/bWFAzkatXr/LazTdkSBcjAjMrdQEhyIBPGb78wsu4GHn8kUukIAwUL4VVvTnE155/gV4/58qVKziXSxvB+5J+qHAeultb2JhzYWaEmvNUYx+yHio4rIJma4TTTNHdyUlNZGJsCG0U+4eHotCpVsh8ICtgd3eX6YkJrlxYoHd0yMraKvVW65tbcCOana0unYkxVIylq8eIxIVIu92gcIGTk1wwd1EoWDr48uIGChWJScK9lVWsTZhst6kaiF5YA9qf0GnLtHL/4EQWaS0yMqvECRKV4jRq/uwLz/HLv/br7B8d8jM/8aPUKDBKblyrHCpGRqenWd7o4oykgxpjIAaidgQC99Y2mZ49RwwBrXN8zBAonpLMKJdTs4G5TgsdT1nrrhOMmACEA1vICMAo7q7dZWpqhKEEri02eeryEn/2iT/n9btr5IniREVcqnnhtVdZnJ+kVYUK8OjVh3jtzip/8dVVfvU3f59/93u/z7m5Nv/w53+cf/Sf/13e/uxFPvv5z/Gpz3yBPHqSSoLLC7S25MDW/i4jw03pf2lxo6U+UncFNe/48AfeQRJPaDcMDy20qBuxUK9tbCD1FBAjMQi6b3ikQaogJUcHODe/gFWwvr5OUU7V11dXOTc9iwXOzU5jjeLu3bs450SykwV6x/uMtIdAQWJCuVg28a7P4cEOwRUQA2ur95icHccasBE67TZZltPrAzpSIFbgnf0dTMiZGW+SAFXlGNaOhutzbX6Mn/iB9/HhD3yAO69fxx1v8d3f8XYmRyokNmf7qEtMIagCpaG700dFy8xIi3qpqRa2QcQVORfPzRKKjLv37pEbxXO37rFPhXvdfU4DeJ2AtWcLyM7+AUOtEdKKQhuP956qTTBFgfYFM3MdSCL/1x/9EROTs1y8cIWdtS7KQWoTPDlOOYJW6LTCa2+soXTKpfNL6CKSqgKrcogOHwMmrRCIQvyaGmN5bZ2YQOHys3tAqUgIHm0VXgV293dJVGCsWSPGAheFp2GiZ2ayjdWe7uYyxELUF+IRFu1ylCN8CA5rDRsba4yNtcGBVVoUF8GBDYx12vSKnIMDOTMkpbpIaU1wXkhzSmziy+vbGFthbmISlTliqnEUmOhIcbztLU+Q90948aUX0MbQCw5vIlqLo8uj8Ebz1edf5PLly0y1qqShX7YNpb3YbtY52tthpJHy5MNLJCGn1+vJpolAkTSwvbHKxPgQlZoMpwkKbRJClCKxWh9i/9ixs98jL05ZWphAK0/ePyaSk+WnKJOgtPgLJsfHWJwbJ01EUtdo1P7WBdd+418Mjwi38tzcHPWaomlrWOnRkyXQ6XSwNqWXOdqdOjaT3VZb4RNgxXl0EuHwpI9zjocvLjJSg9RZrJUFKEE80EfHfYZbmloYJg2e6EVvaWuGL764ysf/45/yyMNX+Zkf+x46NWgYMHlCiB5vNQmK8+cW+cynP0+lpmjoOmSeoYrhxApQYmt7l0euXqMzpqmFGkXmsLqKVlLtGB3JUSwMw8T4CKvrayT1a7TtMGkMWK3PmvB3VtZ473u/nWYVxiz8/Z/8MP/sl3+D3/m3v8d/+1/9A0ZHLTsHsLmzz3s++EEmhmUY9K5n3sInP/cc/+Hjf8Bks8lHf/gHeO87l/BersVP/9h7WF7Z5NbqGvXW27A+oWEM/YjQ+tHMdCZpNaDOMJXosUETjaKhYLg1xfd957toNIeZbUn/cqrTYWtrm6FhReKrJFr+Xye9jPHxcUaakISUTENtuIY1io2tLs2RCxz34fjolKX5OUaGoP3wOGmasra+QfPdjxIdjKciQZqZmaJeh+GYEIHzS/NorTjOMs6PjZEFWF7f4K1vezvjLYgOHlpYwDtRpDZaArceSkRj2RyqMTttqeZQNZaYw8SoFdF+Cj/wvsd57PIFNrp3ecvDo2yfUg61DqkPK+p+mGjgaG0PHwKXz8v9Z2qVMy5IrIAaSmk2m3SP+qgGfOW1W+SmynJ3l+FRaDhNGlPQKYmGrd09xqemGR5WNGhiCvAuUDEJ9USj2wkJOUPa8tMf+V5efekun/3TF6nXoaoSKrURrFX0PCgN2yW45drlKToNUEUNg0WbFOcCRmtSDVXgwtICn/zMF0hq0GkMEY4L0lpCljuMruBtQgbsHx5STQwLsxXaCqyroLXGRtBjUK+kbO/tMjRSpaVAZXJ/Kg0qii44U3Cq4OjogIcvX6Y1ApWiSrUC/QCnBs4vnCNJEg6PT2lOtqjGKpkCm4B39xcda2Dr1VWUUjx86QKdUbChifIBEyHTmkdao8xPT/Hqa9d537ufoGGGqZpIKCIejdawsnHMRneLD33XB5kYsTSwWODUy5ozNjLE8vohb3v8URYm21jlOT095eLcGDaCK6BqBHozPTVBowrVtEIjqUAh/fvMwujoKEEn3Lm3SrNR59z8EC4T/fzYWIUkVMiA7U3ZvBfmpri0CKONCpvHfUbq9W9uwV1ePaKXZ8I57Ue8O8EEiNbikirNepNeP3BneYsLrUWSvA+xOIsR8sbQi5rc1nnu5ReZnpvBRDg8OMGKRom+CuSVOtWhJpvdLjt7kWY8pqEVhfP0kwZHBfy7j/8JE+OT/Ozf/R6qWU52UqCNxRU90mpCHnNyW2e03sCd5qys9XFDKTXj8VnGKZY7u6c4lzM12WZ/HzJ3IlW2vi+0NsZwUkA/HWJ6epY3b9/j+ARsPKFCQe41fVXntc0TMm+Z7kzjT2AvzzC2wk985Mf4ld/8V/yP/+J3mFtc4uat2/QLWFqY52RPnGizrRY/9J5vYaTV5i2PXsHGiNrOqeooPSaVMj09ydeef47uUSCNOTYqChI2do7J85xKktI/huAzsljI1FIrMiSl4/1ve5o0NWSbGZmyLM3N8Ym//BQ7B1AjYJXmJMDy+hZPXrvK4THUfI8cRW6qzM1O88adZe4dvo21tRMKYHiowfE+2AqcWzzPC69cZ/f4O1ARjo8lXnpmcYEih8OTI4iaZqVBdHD9zhbjczNs7PY5dZrOxAS9A9DOU09luv/6zTtMVWYYGUrZP4GtrS7j7TGO9qGIjj4iR9o77JEkGt03nPYCi62U86PnyfZzaiqljmJrY4eDQzjJj4g25fa9u0StqFarHJ8UGO8wyMks76XkqkJzZJQXbqzx1Am8dmsZFzU7O3vs74DWBYXvyRyhNsTa5gbXrj7C0X7EuSNSLcfrPBaEpEqWpXzHk49g0woX27A5ZCncKXeX9zg3Wid3ORHoa0M/qfPKay8zMy08gINdGYQmBtCZwNtDxJmE3FSZ6kyCSrhxcw/brtDQnpN+Ji06qzgoTuk1Wrz40qssnTtH7wgOYp9KFIygS+qc2AqTk5PcWe2yewJZv0dNRyHOaU3E43RCZqts9zx73S0673iWw9OA6R9TOzW4AvraMmzrhCxwb3mVnalhUn9a4j2tDLxixGvITZU795aFrmVgdyfH0COJgSQqClPl1FSZmZrm9uuvkwcojg6p4kGL/fpEV/jUpz9PxSZcODdH78hRZCfoqAlpjRNlGalWqYSMi3MTkPfRBE5P++zuOlLlCNHQJ2Fjs8vFS4v0e+CKUxl0BU0RFblNsVa0wHfv3qVSqRAjpGmVzc0d9g+nqSrHYWG4u7KCxtFq1Djdg6sLU5y89iZDf7vv4a+3FDa2ulhrmOiMSXxLiGeWO5/1GR0eoVodYrO7x0kRCVYm9E6lBJPSK/GHHrhz7y4XFpcoCieaC2Syq5TG5zAxNUF3dwutFcZU6J3m5N7QV5YvvXST9e4u73/ve7BFQUN56kYT8gJjq5z2MrS2FFnOXGcCFQMrG1281YISdLII3bu3itWB+ZlJcK6M4lN478idE9lZ7jE2IRSRhdk59vaPOT4NKMThYkxCWrHcurNKVJZzs9MY56ipgPU586N1Pvp938/O+iYvfuVrTA03+ckf/n5mJ1okIadGpIbnu7/lbbzz2iXaNtKIGdUQIMuweYYNgcWleQoC61t7KFsjkKK1Yb27S1qt0R5ulcRAVZLPFEXwoBzB92nYQJLlDCeGula0hut47+nuHIDS5C5y0pNr0+lM4fOCGJwEXvuCJx57hJW1VT733DJ3NneJSnFuYQoFFBksLS1xeNrnqA+5guNMkifGx8fpncgx1xAZrok2cn17nzyBGytdMgyLs/No56loGGuPYNMKm9tdmWprGVzubB+czQ9i9MTo8dGRVCryIOd9mlZR9QVpnpEUGcbB7OQku7u7FBFUWqfAsrmzy9Bwk2pV5FbEQspbX+D7fTSweP4h7m7s8/KNguOe59rjT4BKODzsiYmltP0eHvTJ85yxsTEZJHvpobpQvsc8o5UqPvKh9/GR938rwwGm2jWSVHFvbVVOf8qUhiDDSeZYW1vh0sUl6Vg4qaJEey5cZq21zE9CZH5+nqg1y6uboIQ9EYKoQAoXiSahe5CzubPPxaVFqaS89LJtmkhslIeZziQ7u4f0S5lUKLnPnkjwMjDte8XqRhdrNNOdUQieJBH7b2otVW0ZHWrQbAyztb2HU4qghDk8CCWQdAT5+WtraywunBOdffAlz1misEwMVBRMjI2zc3DM/iliq9fSHszRnDr4ynOv8Pijj9KqgvIS7RODA1eQxMjs+AhjNc3jl8YYb1XxRc7BwYGM/IPojFc394nayOblAwYlzrHoZA4VI0P1Ki4GScwYHRF9rk7ICo93kOUepS2bW1uE4Jgar9Mw8MjiHGn/iHby/ypK/psX3O3DfXwMdDodVIhUjCXRRqQcIdKqJrRHx7m9toFPlPjVTcr6UZ/tfsDUh8mDYnVlk5AVzM7MCMs1rZSOtEgSwRIYH2myt7dDVJD7iE6qpA2JZ/+jT/4FCzOTPPHwAhUjD4uPjmg0QVtM2sQ5TZpWmOy0iaHP5s6mYOugHGjA5uY6ifZMjKSkWtS9AiMxaFOCO4zEjlRSxezsLP0isrzeJWqNMQk+92RZ5Pbt27RbQ4yOVLCqjyGnQp82Be+6NMv/9F/8HL/6D3+ef/Tjf4fvfHSRZjimpnIoelhfkPo+xvVx7hSvHGiN0QI6qSSG2ZkOeZ5x984KPoM0aPBwcHhCgWZ0bKTkD5cyHmPEjWY1EZGSVa0iPz0m+ILZmUm08mytb4khRSv6J32UC4y1hkVCh8joUq14x7OPc/Gh8/zeH/4RX3r+eeqNlOG6pmJEOzkxPo7zkeVNUSDsHzsKHxlptWjUUgiBxETCqWd+cpIXXrnO8gasbu2jTYXOxDCpiuhQMFRNqVar7O0foo3FRzjuw+7hEaOj4ygl8VRC1o/3I2uUpWoqWG8xUWFRJArao002tjYJBqI1RGPY3NhjYnTqDPGntcYaBT6QWI01ImHLguWTf/UF6vU6b33LM3gX2OzuoG0KyqBVwu7uPiHmjI+15P6yqbgElQDadXDoPKfmM5LTQ0yvx8L0KN5ldPf2KUqtq7UpnoT9gxN6vR7Tk+NYyge+RILmTtxfZzpZAmPtNsHDZncblQiuUmvBTDoUUVd5/cZdlE64sLggsBkjNLm8jKMyhePRCxc5Ojjmt3/n3xMqwvpwykCZa6e1lYHp1i5GRSZaw+jSIRqCJKGI2gWGhobY3t7FeYm+SpTGRoeODuWlF+ycY21tjcmpjuitQchm3otm3wVUAaPDLXSSsHtwwiC8Mi8zxW7c2+ToJOct165RlaoNqw3VNMESqGj4tmef5J/94n9KPUIjgdRqjo9OMEb051Fr1rZ2CBGmJjpCnTOiDDn7pRT1uhQp/X6P0XYLrcDahKzviMpIxpmBze0u9VpKswYVH3nq4gKXp8Z5ZH7mm1twdw+PMImmmgoHFC/uqOh8qQ6QmI3l1RV0Kp74nlX8i3/zu/zab/8uJxG8Nrx5+xY6wtVLF88q2yIUgggsclIUo60hvOuzf3SCV5pCGY5zeO7FW+wdHvHB97ybagTtpTIJwckEkzII0IMrArVaQnOkwcZ2V3znSpw9BXBvbZP5yUlqVqbAzhViR1YKg2YQBeHyDCIszM9gEsvK2haZ0wSVotI62ihWlu9y8fw5YtanouOZdZM8g9MjpodSxm0g6R9QjwVGKZz32ASUKiAUVK0mKoePOZkvwGoSazk5OmSq06I5VGV9SzaOcr7D8an0wlutVIYbOLwvznznA199CA4fHCaVvLGZqRFiDHR3timivNXu7g4+ZIy0mlSsVC2iNvFUFfz4D34v480a63dusdARhYJyBSoEFudm8S5ndX2DoGFrcxutNZ32GFkvF1mgd7RSw4//4A9QSyy/8S9/g+uvvsbczGzpx5chWvBeqpqdPYogvdzu7ilBGaanJ4k+gvcoHyDKkdeYBO8DvczhfBAbcsljGB4e5vD4GBfhJIvkAXa628xMdc7EL865+7rMCLHwnJubRvvIyp3bPPrQeeYmLcF7utt7RMQ84bxib+8AHQOdyVGKwlF4JyW50mRZQaIN0fUxKpCoQKIiww3RiK5tbRN1Qh4C/VwMOitrmxitmJuakGoQd2aZTrT5OuypjqIRXVhY4Padu2SFxMyccQeUxWvNq2/colZr8NDiFDHLcHkuDFktltNURR6/ssQPfM+HeO211/m13/w/OCkUhRJH3EC5EJGcL2MU46MtEiVxVdZaQowCDVIwOT7Bzt4uMQVSSQk54+sqA8qyt39EiEIYS60iUQodxOqUJBXBqQKjrRHQKdv7R2LSSWpEbel7+OyXvkZzpM2VC/PYUsdbFDk+CBc5Fn0aqWbYeqoqUK+A0UrigRCAf4iK7t4eAU1nYgxLlIEukonovaQ3NBtDVBNLajUTbcFbtlsjHB0dESOgEgoP3e1dZqbFAJPGjImhCv/lz/49ptrNb27B3dnfo9FoUE1h8LUbU4YzypmD+Zlpjo8P2T3MCBVD9xRubB5xfeuYm11PD7h7b4XRVovhqiZ4CSk0VmGtItVKhOeTEyjvWVnfIJiELCqihr/8y08z3mzw9JVzVP0JiZIbK0k1kQJX9FAuULNVrBJN4vjUBMubm6gEMu9xaIoE7m11WZiZRWceYyI2NWATQigTT00qzpbUooOjVpWHd3ltHa+F+NVDc2/jkN7RMQ/NzlEvrYIuil4zaIutVoixoHCnJKmSJARdJbdVclUQyLGpwYVCJrRVQ0wjeShwLme4OYSOnrmZCW7cvYm3oncNCnZ2dhgaGsJoIBYo5SUNVylSLcc4QkRZSdNVNsFFSCy0mg1Wu5vkGjIN67sbGCtKAomjFmasMQmpd0yl8J98+EO08iPmmnUqhQykUg3DVU2r0WB7W+JVDo/20cEzPtKiYqwQspRCuZxOU/MPfuojtNNIr7vBxflZcBGjFUki0JWx1jAHe/sSEGqgu39I5gMjY6NUUqHOJUp6bMohsntbwRtDrNQIJhW7q5JhR1EEjo/Apoos8xT9QyZGGhh9Pw0kos+CS3UoWJoeoqELGuQ8++hDjFTEKbdzcEzfQ7Q1sAnd7V2MjowO18oAEY3HUHgjgy4MaaVGETzOJGhr6Z/C0sI5llc2BK5shZSmElhZW6dWqTLaauJ8RizlWOIakzaCJ5YhnQodYG5mhq2tbXLAaY22VuROOsUruLu8ytzcHMpDNXkgBj0KWzq1oF3Bt739KX70B7+f1++s8m/+4I/xKgGTPDDXkAn86EhbwhR9KJOjNUZrccI5mJ2dZXVzg839Pn2r6aPIlSEoi8PidJXb9zYpPExOThBDwCgxK9gop0sXItZCe2SE3Hn2SpZv5j0xqXGcR964+SZXL19iKAWd9QXubmX8JHQ3KcoSchKVkybQbDbJ81woZNqCEgne8EibWmrRwaNRZ5/ZaiOpNhUNrsDnGaPDTVIDqTXkvT7agPMic+x2d2i3W1gj11T7nEaiqDxgQvn/teBubm0zMTYKsUwcDhLuKALriDWRuZmOSISWV8k93Ly7Ra4qHHvNZ59/BZfAG3dWOLcwR9VCqjW2pMxnWSY3QXCcn5+mklhev/EmfUBVUpbXd+lubvHed7+TxPWpKkGymZIYpKIIoitG4/NCkjmDY3p6ks3uLlkEndRxGJY3evT6joWZGbEBEsi9wzshyKsIwQkcQ4WIiY6KgqXFOW7eepMTB8fRcKrhM1/+KtZqrl25KBAeFFqXEegxgIYQi7NrhhYpHUpoZxhN4ZxQroyhKIqzoD5jEvJeRhoNczOzbG3vkIUIWo5uB3t7zE5OERxitS6Pn9EHVFBUdFJCMwKVSkJWFKLlDHBubpaVjU2cAWclTsQmikZdU+QZ1ii0MuT9jCELNZ9zbWaU//pnfpIf+eD7sU5kPzrIjT01PsbK8jpFhO3tLeq1CkNVRYLGuxISHR3a5Sx26vzcR3+UKwsdnnn0IiZ6lIr084wQAjPTk+ztdMnKKfFrN29iKylz0xP0T3skpddf4uO9IA6VGLedksRdbeVBGR1piWlnRyzFGxsbBJ8zMz2OinKCMSYhKkWWF3giFaUwGSxNDtNUPZ64ME5SSBT4+saWJOIqReZEUTBUrdCogjYBH50kgiiDIpFY7Sh4xEGiSJqU+X0HR5xmovSJ2pA72N0RGl+9KswBSUHWZ8hERZBYH1PKrDTMz0zR75/S3Tsk6pR+nqGUpkBzb/2Ag4MDHn/kKjF4YiiwpRtukEgSQyGIQjxve/ph3vrst/D8K29wlEHfiWtOKfGf7e7tMT05SSyQdF9rzk4IFoU1cOniEsYoXr/9JrkHk8hC6KPwI4JRrG3tYIxhfnYUQi7W/bIydyGijKEoIu12BWMMeweHeMrrDjz/8mvk/R7veOYpKAIVq8jz/pkWWSnp5SZGglEptclJxXJwdCgaf2S+vLHZZWp6WhyRRIxSBOfxQVIbtIpULVSspmo1o81hDDDSanB0fCAVLpp+JkS26c4kOkSMFgpiLDKI3yS8Zm//gPbIsAjiS6hMHj0qseK6CgXnpseIRZ+NzW18hFu3V1A64aErj/C1l1/hzc3IXlZw/vxi2SjP0KEoA/0SnI8oo6kmsHRuntdv3qUP9IFXb76Jip6r55dIdERFuYABjY4pKhqJsgkFifLYkFPVhpnODP1ezsraEU4rCgwvvPQ6OiZce/gqqnQGSTaVEbdPyT81aZno6wts9LzrbU9xenrMJz77VXoGNnrwqa98mSefeozmkBCLQnTCmCgZcUXw8nCUNlXtI5UYsN6hoyFEi1YVGQg4TYKVxQRD8IpE17EeLsxdosg0q6s7aGuJHo73DxlrtcG7ciCRECkTN3zE+EhFGWzweJefDRQqStB13f19+hGcgu6uDAOMAhsjprwOxhhikVEJBXV/ytXZcZqJFoy68hAdqYL5qRk2tvfIge7ePu3RUSFJeYcyloCgJivKkxZ9zo/V+cWf/lGuzI6SUJRORLFNj7VaGKXZ2NmnAO7clQottVCxEHwhVQgD1r8QYJWOqHJzU8GRxMjEyDAmICkiCta7XVCOznhbKFeDxSxqqTKVQodAVTu++93P8MMfeBcjGupKuM/be7sog3BhEyHkjY+1S0tvjtKSbSXJJxqt7Fn2WFEiTnXhmJ+eInOO/WN/5i5TZQ9wqjNZIhxlAKfCIJGtjCIKAckOjOgQWZybRiu4u7ZBVoJevBKt3yuvv0FiFBcWF7BnswrZ4AwDSE2E6Khoh3bw2KPXCF5x/dYdgknKCJ9AXsDm5hYznQ7WSH/WRyWYVKUJPgfnWJhv0mrXefW1V+R78U7ahaUtLfOwtr115hokyH0km4m0BWNZhWvklLJ/eIjzopZwFr78/AtMTrRZmG5iY0HwGTaplENIWZ9EK+/Oev4hyCn15OTkDEBeONGfT4xLrqIqLc9Kqfsw9rLV0W5UsK5Pu9XAAlWrcUUfkDSc7e4+Ck1nfFI2MoXwdo0uTR3fxIJ7enrKeHtUnC++ODuKnVkTNdQrMD0xwZt31ikMvHn7LovnzvHWp59gf3+PP/nzT5MFw8ULS5hQYJEKxcby5ixzwgxwYek8a909DvtwHOGVN+8wPTlFu1k7iymXiyas/7MoGRwD8r8pMt76+GPU0hpf+sqLgitM4MUXXubi0iL1VIYlGoF9q6gxmHLwpMkL6RHWEosqMpZmRnnmyWt84i8+TfcQ/uRTnyNJq3z7t75bBniAVlY0nS4r38/9o8Qgl03HHFtSlgbx26q86ApKQX1Aa4UvMjEYTM2T2Dp3ljfInezOu/sHDA0NkWgrGuieVIgmSe7bqcufrksBug6eNMBDi4sUeeDWvT0KBbuHJ4y2RokerClxkkThWCBiehsLdMzlM5VDG0NEB5icnOY4K9g9gd3jYxrNoTNC3P2UDnHvpbGgEnpU3CmJ62FiFJaAEm7CxGgbpRQbOwccF7C+scnl8+fBeSyB1Nj7jih5tEpugAdKEw0OrQvGxtpEpdnZP6IAXnzlOu12m5FWjUEW8lntP/eTAAAgAElEQVRqQCmYVwTS4Hj80jm+9elrpN6RIFX87u42J6ceXYEswPbeEe12G58HKlZOGkZLH1Cd5fCVn71cWKpG0RkdgahZWV/HBWEU9ApxwHU6ggVUZQDmIBopfINTSxPRKjDealIxcG9F7Mi6WqeIcJLB6voGzVrKZNt+HVtBle/JaCA4rJZ7I9GR+akmzaEGL732Os4ITDxJUvYO+igSOpMTBJeLczSKBNEjTjBtJD3s6qXzvPHGdVwRiMGgTEqImr6LeAu3VlboTI6TGLBGn92fg08W0CRG5hWNRo3u9iY6lcp+rZtxb3WVxx+9SkVTGp3KPrFJZBYz+E6jsC8GLYJarcZx75SAMJ63Dw7x3jPVmSgVKzK7sGX6dFFkROQU16ppUnI6rYZEFDUqnJ4en+XddbvbxBDojI/LEx0llilwHw37N73+2oLrnaMzOoqJ5VE7Cgko+qJcKD0VBdOTU9zd2OGgD2trK1w5P8djl4YZqWiuX79OozHExGgDi0crDyURywQtO63yqBB45OHL5Fi+9vomRwFevb3K5YevkNrBzjrImdKlZEagKV6D1/IAJjjqCVy+9BBfeeklTg3c2c3Z3tni8asXSazYj/GggjlLchDgt8TFaG1xWU5dR6qxzwfe8w7Qmn//8T/h+S9/jScfuUZnuErIHYoyoywUGKPObqABMUneXyBqYUMMUnwVBaiitFoGIEpCrOlhbI4JkXZD0ajXube8Ti/Cfu5xNqU5NiZ+bh8xNiVqQ+ELiVBXYjuOJdNCK4XCo32fy0vzNKoNvvrllzEWtnePaLdGqRiIzksQKA6NF4CLvv+r0JTR0xBLG/f8/AJ9r7mz3mP3qEd7bOLsHpHr+sDCEwM2eir0SWKGRdiksgFFxsZboCObBydcvy24pvPzc1SCtDy996AH+D9F2cWVDSDK9YOAcwW6Yqi0WqwfHLF9CNdv3ePpp55B+/K9PECiO7v5oziwKjqQ6gJ8LujQiTZWw+npMf1+JAO6B/vMdOawURNzYR0on4tuFrHES5KwbFg25KQEpsbbGKu4t7qCSYV/u7lzQlbkTE13zjYC9Q2bQVSyiZrypBmLnKEqzEx3WN/cxCk4yQMkCSqBGzdu8NjDF9FekIyDEEVtTBnkWD7LQU5ExnvaQ7B4bppXb9wki4Cy5FlgfW0bsIy2hqXfrgeLt5GqWyuUDugQeMvjjxIzzxvXbxNNQkFCXyeYoSpbPdjvZ8zNT8uJuVwsB58RI7I3XziMgqnJMXZ3dwkRMge3763SzwqefeJRbPRyzbXAcNACjZfPdr8ok561KCiOT3oSKaRgbX0DvGN+dhpiOAOFh3LIbrTGag3OM1ZPGK9aKlrUOUPVhLx/jPOUCo5t0qTK+EiD4GXOMgBwRfW3r7h/bcG12tAebpbBCUo0ajHIg1LGXUQfmZ2e5LDveen1XSKeC0sztCy88+lHUVlPKE9hkMQ0eAaluiRGCDmGnOlOm9ZIm5u3lnn15imBhMuXLhK8rCD3Q9nCGdLwLM66/OJSrYhZxjuefYZ+lvPl17t89vlXSBLDY9cuo2IsId9yjNCyxRGCF7CxMfT7fZLEyFEcx+zYMO991zu48erLWJ/zXd/+TqoKakbLlFVJQsCAuDSApn/daxCpUkq57v/7/dBHTSDGAqUKLI5KIjbbO6urhBrc2z2gHxxDw03SdKBjVqLWUEpE91oRtKAXlRKrplIeHXNaQ1UuPXSR62/cYPcATvuBkZGRM4XFGXu0fG+DFNYo1qP7Cbgxkmhot4ew1TqvvnGTk6xgbGK8/EThLFT0QQi80KE8Jroy/TaWi3ykXpMB1cbePjduL2ON5vxsBx1EMhRjef4uTzc8cM0GpwPKigsFjdYY2wd9Pv/V11E65S1PPEmiBT49+I4G71Pe82DxdmjvSa0h+kBnvE3wOfdWltGpYm1bqpv2yIiccAIYrVG+YBDHTdkKsIjH3+BRvmCoWqHVGmZv9wCvIPewurGBsobJiVEUD2TifV2s1H0+NMGRWEV0jvMLs9y6c5ut3QwSzUkOX/zqa5ycHPHwQ+dJETzpYGAmSQnSVzRKg5NhuA6emMGTj13msHfC7dVdPJJM293aI01TOp0O3uXlqhTu8w3Kn6eDY2l2nqFGi5eu3+Q4wqnRvHRnhRff3OC1G8sEr1mY6qALd8bJpoxmB4hlQaajJMqcnJyQlQvb7ZUVms0mnfFh8BmDDRYglhpkNchEfGChs8BQvUEvK8g8FArWNraoVhLGR6rSPlT3QzND4EzxkejA2x9/hO/9zm8jKfnetaqcJI/7AQds7ewyMjJCJQE9UGVoVebVRf62119bcFVQjLVb8tgp8U4bLQO0GGWXS5Ti3PwC/SznM1/4IlpHFmfaWBd552OXqBfHPH1pkVRJFRVQBG3PHrYYPSoGUhSphqXFc9y4+To3b97CWsviwhim3JGN0pjoMBQYCjQFQXu8ioRy6ux9QSUxXLrQYWhoiC+88CpfeeUN5hbmaQ0bIZARzno2SgUChdzUZaMutQnOOaw2wobIerzvW97CXLvKtz3zCBP1SOIykpDLg+ZlV5b+YrlMDTSyDB6ghFiO6+QukYdKRYsKCSYYVBA6kssLrApEDzOzHTZ399jswfrJKaZWoTUi+U22hGs759DJ/VgelAjFoza4ULYCVCT4nKeefpyDoyM+/9wtCm0YHx8lOIdJUqG3xTJhtoxb12d/lgproAklBmpVaLdb3HzzTfCB0ZF2+fn92cY8WLij0iVkXRoe99sDEWMkhXd8fJzNnUNee+NNpifGGapRqjFied0kY444GHtqgooE5e/HmitDiDDemWOju8eLL13n3PwiEyNVqkpOQboclFByQtUDi3B0HlMyABSRzugwqU3Y2jsQLurBAdV6jfH2CNEj/n4XSayFEsSiVNmyiIPoQyVTeRTTE+N0tzfpO4nm3tzZR2vNxGibpKTwDV6DbQTkXtLlYNcqTUVFvuWtz2KN4v/+oz8mUzL3+LNP/jkPLc7z2JULxLxPRSj2Z1E1rozNUUGVICot967PuXJxkYDn1TduUhgJBd3e3aWSpFSrpYY1ejlXRrlO0cv3nERF1SiWHnqE56/f4zCFf/2Hn+Kf//bH+Oe//lv8/u//CcopFjoTpKW0LypbNqgkg48g7RKtIiPNIYKHvRNHYWBleY3O+AQGCWsdFAWDhfJswSx/L73cgAXq1Rohak76QsPb7G4x1hqmmshdJLJKztqbg3XSAk9fvcj73vWkaMaBRq2GsobDfk6BwLDGxtvoABX99SeUv55k/P+14EYYHW5KrwRJvI0xyDSwHDrpEJmbEkH5+vI9HlqaZ6gCtehZHB/hv//Fn+fZKxeIRY6yhjC4BdUDx+8zeYnn4QvnOD3e4eXnvsS1KxeFBBQKktRKRVc+/IOOFFBOHyWoMsaSgevgbU9c4/qrr3JwcMATj15BFbFsa8gXFhHnUlAS9KejFuG/FbWBCx4ToKY0rSTyT/6zn+WHPvjtNG0kUbIJWJsK+MM5YvBnX5iKImEyoZwKn0Wk8/VZT1EkaYMq1wdNpVqXDK3gePjCOaom8D//8q/x5S9/Gdc7pNOqQy5DJAln1DKB1pQ3bcTIH0SbW1avKkQunZ9hqJbyxS9/hRgjE+1hUmOIAXw0D0S5Dx70crEdnChKIJB3fRIF01OTHOzuooi0W82y9+jKtsn9Kj8i7aCIZZB4AJQPcMAXYrDZ3Nrh9soKFy+cgyD17KCdJVVulEW2vI+IqtwcNFqwdWgFY6MjHB0csLW5xrNPPU5Ngc57GP6mybFUg6a8TpqA1YFqAo1Gg83dIzIN3YMjDo5O6IyVs41g8EGqKxUlfl4KEoEDiRHBlDMH6Qlvrq2TBQgW1ra6tFot6ok5gz4Nrn98oB88aNUk1pbtAM/U+Cjve9/7ePnV6zz/6hYf/w+f4fDwkO//vr+DDoGhaoIrxPI7kE4pI7StIngxXpTc6VoKzZrlocVFXn71Ok5DrkuN6dwswYt2+YwSVi7YBpGZJQrwcO2RR+m5nF/51f+dz3/lS7zz7W/nZ3/qJ/jhD72fv/9jP8J4LaESBabvz0oSjYpRCgifYfFMtEewWtPdP+Q4k9nF3PRcSbQzBC8NO6s4KxBivJ86LDB1jwWGh4ZAJRycZKClDTCIDLPW3l+g4/3BmbEKl/eo4hnScr1VlH5w8HDSL8gi7B3sMzk5KXCv4MoT1P2W4t/2+msLbrvVlAZ3KW+KupTgwFl+USw8w1WYGx0l9Z6l2RkoAsZ76gRmhxLa1pFYiUiWh0xuzCJ4gk7wylK26Lh6aY40HKF6Ozx1eQkbPCY4oitECoSGaAgxJZCU51WJCQlIIGXMctoG3v7IBeoxJ3E9nn74IeoqoMoqBAIBR9BefkS05crtRNubWBwRrVOSAJXilLZ2NL0jLSIqaIpgyKKAklVihcsZo2QmlQvp4KgaVMDrIL1QPUBQSn8uakdQTpi/RhJrfVRUrOLK7Di/8BMf4cJIm83XXmGyqmnbwJCVHlwICm0TkbaVsinjvVRLpS9eKYMjQZHQTOHxSxfZ3exiUIw2G1R1PIsK8SRlFPfgmO3RiGVYR5EFSkx8TgIszXYwPqeqYbTVYBBZPqjIBpPbQdS1V4agbYnJiyWRSqQ442Oj7B8eE4Nibm6GxEqMtw8BW9o/UXn5K5TvI0WFBB0MNmjS4KlraNcsaexRM54nHl2iQkZCUT4InLFbBwPY+22JQdvHEXyOAcYmxrnb3aMHPP/CK4yNtKlXhUyljEGbKt6Xp77yQZNcsQSnDDmWqFIUcHnpAjpGXnpN1DjL65vMzS5gIxhfJtWqAaayLE7i/VaPIeLyXBJFNLzjHU8zOT3D7/3hn/KZL36Vt7317cxPj2FVwLvizDobymw2VQYCoEwJWvd40QignOPxy1fYWN1gfS+SW7i7ucLERButIdEJBiObWyg3JqUABzFH47lycZaG8eyu3uJHvuu9fORD7+TZCx3e++gs774yQ933sNGV4arlvYSRk4fy0i4JBe3mMNHDzsEx24eBvJ8zPzcnaPpyeD5YKE1ZAD4ITtcowVGGSLs5hNea/dM+vVxCcac7E+iAfOdaneFKB+GZ3kthZkMu3030xOCp14bwUXOSOXYPRUI3NTUp78u7s/uespD4phbcqYkxYiGi4G/8QIPfKx1JFSyOD1P3J1xdmqeiFKnVxOCoW8CdyM2rpWcUoxeZTXQykiwrtFQrxuqWpfEhmvS5Mj9BiiM1Gu/cAymYZX+LgQJAn/1tnjkBibg+5yfbPDo7yhOLk3QaKcYXpciZsy9sYOUbbARnDfQQ0LZMRNUKGx0JctRXZ/xQgU4XZbjd1w3Ry8b5/V3uAeUCg8UWBgGZg1fhI0mpOPBZj2p0XFuc5hd++kf5hZ/6KD/94e+hFj0+z8XqGmNZ1SqMFnYqg8/oA4kR2ZXPy3oig7c++Qg1HWikmlYlwfdOSdNUNsByIHn/nZb9zgePScGREASdONHGmkAl0QzV5cY05aI7eN3vSYqXPZSDQqVLOQ6QpoaR4Rap1bi8z5WLixT9PhWjsEbh4+D7H5zZHuyDD6pdjfIBleecmxiiHo955uElmhb5zsoqXXr/sp18XYsHiN6VJwRFqqSSmp2ZY7W7x//6W/+R9bu3+b73v4dUQZFL9ejPYosS4v/T3rn1SJYc9/0fmeecunT39Ex3T8/M7nLIFZem6d3ZlVeQLRIQKYqwSUKib3qQBAgC/GBAEGDA0Js/hT+AP4Nhwy+0BQgwCBh+kQ2/8MGwDEigSS6Xy91ZzvR01TmZGXqIyDynbn2Zqa69xW8xW123c6s4kZGRcdFoDmbWNvMe5Rdm4I0vP8TpyRH+/L/9AE874PGHT3B0dCRTZeI1K9up/D9BQo6ayqOpPNAFTAj4g3/+uzh7/ye4e2eK7/3j30JDMiNxLIo/aWulxlfaFDPBVR4dJJGCSFrKN0h49KUvYkSE//Cfv4///r9+jDYG3D091vGo7+ib7xeRDQZSQOMjDhvg97/3j/Cv/+Uf4lu//qtwZ09w6IIU+A9n8Knt5UhTaD0YjFgUHgAc3T4AEeG9D5/ib37yDmLb4guvPJB1ga6fGXMKWmdDZtyeSI9TOiSnFCVFlwnPzls8fgqctx0e3L+PygPtfKazQ1d0Wp5xj2oNEc33kvOYTiZST2M2x89+8ViO9fC2ygzUZZXdihcr3JVqYQ+Ob2lwsqauRk3D8x4hSvvsuiG0XYc3X72DH//VOV7/3H1UoUOkJB1akeC819FGLqgHIWozwbx4JUHdLQ68xzffeh0/++m7ePloD9w+A1UOVSVxbZLxlhYWExIgRVeAsgjmAFTxGf7sj39PplTdGSpHyD3W5FeXDgqs24RT8SYPDyBFiREMqZPantn351giDAioWCw1ZmnaJ9ayQ3TD6fTwOFVFDCwtea5NMgmIoYWDg/OElOao0GEKwpuv3gPhFC51IA8EinBwgE43E0NiikmWhMiLfxEENJ4k1dcRXv/8AxxPGPvjCmNHkmTGAUSQMCQSoSFdNc8LX0kP2BHDhw7RtXj5pbtIcY67918CAtDEhColBJJOEcSVHqPM/cixWqosPk72YK7QthH37h+DUsDDByc42gMm5xHoWtSOcBY1sYH7cLeix2hwHalCQ4zXTvfw5aMRvvcbb+GAo+hZ34BZBwN1nwAyIEhnXYfGM2I4l7brGrp06/YdxAT81f/9P/iTf/ZdfPWN1zDmDuwSPDkEyPR8Pj9H5WVlXFq6BICkDCajA3NAjRrf/M2v4d//x7/AD/7yR2gT4ZVXHqJLUfqlqavMs7iEcgRGcHl2B0Ddeg0HUEh44/4+/vT3v42joyMc1wG+C1q7GqrwZVhJ6kdOJIkXiRxcXgiHTJtfunML3/3Wt/Bf/8df4of/769B5HF6cheOZNAq44HTNQM9Jk+A6zpMKOHrj15Tt1on/vCulZgSEl+8OGzEWCC0YCR4klZO4BopeozHwGQ6xTuPn6CZtdibNrh7u0GVZDGSSJSpV1lnqtBxAjS8K6UKyTmAHKYHUibxl0+f4cfvvo9IHid374JZFjxrT4gJIF0TgfrSU5BBM4rQg5kxnY4QEvBkFvHB0w8BSEQFckNJnTNR1LqbF7CicPf3Gg2QhvpqND0wMSrySI7QdnPU5PD1f/gWfv3Nv4OJ00UDEBJxyZX2LDeIegB0uiQ2BqtI5J/i27/1DXSzOSjMJNslRvhcXEYd0TyIAliI56PsrGbUYFSyuifHzqWlpN6pvWVcXhr8vRgnOHif0uL7xYBxg79Xcete3Pj+4j780kZ7SygtfE89WGu2m+S6M2HkCP/i29+EY6kLSg7owhzOV6ps++9lV4C+otbyHNNGUkjvTAhHezVO9seYeEhHVA2VS5CppxyvWkNqWTIHmZkwwCmiaTxObk0x5hne/OLnUbWMmiNGXqZ6dd0gavQXIZXZQb4mWXkyMxA63B7X+Lf/5k+RkhSNB0nGl3oMxUfN2b5mSM5UQNIwoZhkMXdSAb/y4AS3qoh/+ju/g994/VUc1oTQzmU6rSv2IbSoqkojVYa/jdPjkxBCSoy333oDRz/4n/jz7/8XNI5w71iaDTrJLNBrr+4NsLo/xIKvGq81TTo0jQOHOeq6xttfeVUrdM3XyNJQFiQkMzj9W6XFMwMI2HMR3/362/jaN97G//7hj/DTH/01vvzwDkYcgdjCudX7byhjfqNVlw0MN1jD6F04fSycg/MVmIGD24f44OwZuvcf4+REwhddHAq706WcVO6H2hNYq6dBs1obAsg7PDmfYf5eC6Yap3fvwBFQ+woxtkgsRa6gx5INpATJdMuMa/EhP53N8OTJE+xNptgfA+hknSSFDpUakuGSTLMVhXt8fIz+iuQLIyMlOQdyBI+EyAm1c/B7UxkJ9dJS2rzDfDMDWekKYS6CW9cebdvKIgFJCcWqkhbal5GnJQD6rKKl1z+rSKxnh6/+/UcInURYOGKEmOArhtcFKlDSQCunDThVcSSZunUUEFKH/Qr449/9Du7cugXqohYeqhGo0ogGoPjM1e8qbiAvmYIgpNhhzMDdcYU/+t638Pabb6LR2UxkwjwEudETgMEsYuG88o3uK3XvBEhFURGyPGWEziTyjAKAuhccgpPShBUBiRkpPMPIEd54cBv/7s/+BHXjMXWMdnYuETNOaopIUoZkFVHZ5pprzxJZMnLAb/+Dt/Gfvv8XmFTAS8djVBwQuoSaHIoigroFSFbPGbJw5Vhu+nxOXddhfzLFs2fPBm63VUgjaIAEZlF8JaKGgYojPM20VgXwnbc+h/CVU9TpDJPYwXugVffJc0Opv/ZqnYIcXBLF4fI5J4ejk7v44bvvYf7sHN/4ysNBLzXS339xcAP6e5yQSj/DkXdomgZPn52h+3COg8Nb2JsA1EUJBgDKQqdspPyKK4ffaPWx8/M5fvKTd6TBqQe4VcPOVxLto10xLmLlKt49OdILoAsogxAMZgaHDgRgVHnUjuBTkhs2RfmnFy9/ZzlMYt0oPJlMEKO2LBmPi+8496a6CrLiuKpkP+sK13GS6RJHjMGYEiGGucxItHeU/IZJb3BCLMpWLCzJ7KnQRlnhrcMMX330Gl5/eCqFoiH957KiZsp+U3EjRGhyCdfIzQo9J/hujjHP8Nu/9ghfuAu4bg4nEaxwfiQRJJeE2QBiDLRti6ZpiuxI8Whe+f09ywCU+3xJS/ha2797EAE+zTFO5zgdBdxKM6kGB2i1LCk5SMQXKrqF4+sCxh74zbcf4bhhvHx7ghHEf1tVlRohuti6cLi6gKZ+1NqJQZLvy9lsdmkYUk9xwEBbrSLqQhRCi6mPuFNFNPPHOMAcTZzBpTkQw2WhpVcjy4RSYr0BcTexuAru3LmDDz74ELPZDJ97+SUsB5iw1h8B8gKv+FolZoRBmpDiSCJNnp3P8O57v8C9ew8QO0lnR0xwDhLhE0OZTayZ12oUCzAeN3h2PsfP33sfD+6fanigU7eEQxcTyPlLM81WLNw7h7dkSlOypvqFIe8AOAJFRujm/Ze0GlHxzSL7VXUlceEU5HLnCwYA89kzVDp6z2czjCoPjmFNaudmNgne1QXy0wtzRO0c4vyZlNrLwqRFhHzxIqpvVKey/fKSLpw6yTTacxFx9hSpC5iMx+hSXizsr7UkpojbSNJotVpXEkPAeYBTQIUAcAc/lzoFRIR5kjA0cQkl9SNvtrBqbWM+n8tUu+s6dO1Mb0iVRw1GIkgMaSIgkPhr2zagacZoY4fxaITUSb8tHxkcI5p6ggiPmKTzdI4AIECTOeQ4cmpz76OX/YzrBufn5zisxvhXf/hPEOYzTFwCOikVKkcoCy4OjGWJFauWkQuyO+fhnUPXdRiNRn0zycF++18jIerCnEZLl7ht0thp5xJiJwNW7ALgvfinO9LYWawz/K5NvzaQXUHZqGONaQdu3zoEJQYQ8fCll3T9QzJCwf1MIG9PjASVUifXzqUAn4C9/X28/8sneOfdX+C1t/4uKgCNZ+j6Gzh26nKV7FU5zbgwMADydDoe4b33H+PsfI7T4yOkKNUPYyuhZVU9QohB07wvuAbLLxyMp6tWgSrDlBJiJ47iihxq5zGq6pLW6dco26tYmLmtRc6iqqqqrF5ex0IdKtcyzTCFq7G6ASPHGDlJAmHikoboeLC6Osh4EhJYB9NEDjEyqpQwoYRJRVJQBwAx6TSVkdQ1Aah7jKis2jOzLkg4iV/lgJFLmNYiN5EBeIfASRtQxhUFtExWPESEtm1L+T6JrumVEelKcg4H8+rPHI+niJHByWPWJpCrJYEkRil52bYldAhIZW2BNR//wmvPCdy1GBEwpRZ/7/MP8GtvfAnUnokbY833ucQaDyxe3f+4bkRxadRQ27aXXB0sKBD5rTR6hByiem2a8QgpMcbjCZyrMZsHuGaM4HIc/c1BOutAgiQnOGDsCPeO9qXQzND2ZLfiu8kRVcxSsMdpwsL04ADv/uJ9zGYznJycoPEAgrjTiAgcpdllnmEMNzvcZ2Kxln/6s58hxoST4zsSg1zWJySSBK4BaX3mTaxcybpypZBJpm1bgGTUkyrz8j6ngNDNy/PyOksNzhLvuLxTzv/U/RADKEmL7VHlrzlV6lmnnD/rLgVALdmYUEFWdJlTPy1bus5Z+HrRkFjJlAI4Ecb1GG3oEBFV9rNlFuFZCsoUWHNukZBYFAMTpIsqsTTx9g2SJqO0oZOoDo1vJqfxwJfENgIioxUBk6ZGNzsvLq7a+YWiNUmTKHKYmeOEOGvh4VBXY9T1Hs7ahFRNEaoJZpFAldeYVKko1XWd+CUH4YUXwSzhRjV3GHEAZk9Rk7h6Rk0/ycyRJoO4AHHvlcUlLimolCSUcOjWyPdVnmpnJGwpoEoJdWQ0KaFKEVUKsn3nEAOQYoX5DOBUoWr2xB9+xRnmRfTRzsNjWrw+xICPwP3bB2jiDK8c38JeA00M6cMUaWkbxBJfnFsTAb37c//gEE+ePgN8hfun90BRXaLZ0Mir0qzfzUWEBmTZmexN8fTsDESEB3ePUSFJ0tNg4S+kHBuymZV3+4pTuh0QfNVI/cqFEofCJj9W3gRRPzHdeBBq3WZh6q2TdCWBXke+qKZwUTLFJIRFQq1ikIFR+l6IAhrWP+iz+4Bs1TlI9fy6rpGYxAoFow8pC4OBOgfwD9cBJKU3UUKA9PYCVYickBBRN402L51JLKRbd6uukjOqsi93PB5rLzqvCkN90QSp6kR92BsgU0NiKdzUti2aeozIQJcIVI+LJZljtiWOla48A3MgdO1MZxIBo0aC/omkPrQsLvaRHqz/sgGTlV5VSUxtVvRd111Lvp0ujBJLoR2tmiH1URyhqhs4X0vb8EEnkcsiba64d+T4+WEtC3lL3E01MU4Oxqi7J/jSS8eoGeDUIvjkfPEAAA/zSURBVCeHXwg7cXeW+56wt7cn+0kRpyf7oBgxris4hrZrcuALBpR8nM5JzQ9xexLuHY9kIIihZM9WteipGC6+WCs+XKQAcIKDK0IFaPye/KVB7A40KGgBLIYSlc2VkKPNijP3mxo+ByAhOC+oMM2lgDLbkKIj0jeLXKNvpkHIDiChehlNGADkRkclSR+c1OsgKae+fFa27zhbyCLMkWVSyojg7IpjB7CXJoxestCk2H2SWgCU3RiXn1+eXgPqvoia858SpCRnrjSXBiF+OaQwlRAlgtQYyG4MTwQK4n6pfbbULx8AVtYsHIHYS1ic00LtJMkgfbU5V8LcSolNTjr69Yk50rUCxa13Fd9qokqjE/IB5vNniQ7QqJ5Ok5KSFquptcofNKHgeRj6bBOr2uV8DED2n4YQ4CuH42mNb3/tbfzqo0cYEctvmAt0LMkpoLMCBogAohpdauE03Xd/ugeXIiaNw+0pUEXWwjUOKYoMO+ehdbKKH7eg14ngsD/dA8eI+6dH4j51El3CUYIIcp3ny8R1ReHWcOgG9n4ud7Z4omnN36v009MXn5YYz0fSBTCpE6I3cIlAgEpZhE6wAfQjex8p099spMo2kUioz79vtpDzNC8HClK/mNRvI+sJpwNq/77LMc46SHM+jucdd0tYmp4HpXKew6Pq8+AHnwVQYq5fcNzmwb1QEkqWP6NHlfL/S2hmGmQCXnO/kIFGZGBwnWXkAeBL/Gm5ViR1kXNI6FYM3DUyICSwq8WXGgN8Cvi973xT41vP4bV+iRv+NktI802RI4aD8xJBtdfUmHjCw9MjiT0PUWbpVS2zaI6SjLX827IrVj0xwAkY1R4NIh7cvo3GAZgHpFxq1TlNgc8utM2sKFwpNr08Hdf1Tt2W09XCctP0p77wuRfFnAHbgsqUWgJdBrOJEl0wvNq9F5EHN6rntLCwkAP8RSmSzoKoLKAty16ZouXnGmMb1YUhpRN7y4XhFxXmFVmWG9LebSCA4NTPuVQMu1hcfWB+fyyLqdgYnPdV6O+HxcVIeUUuVH6WLVGJG86fu1r42ToIgGMpfp+AkryQaHF678t7/QBD7MUPvyWlKwt2GMiFLNzGJD3TGkeIIWIyrtCGGSrn0deOXtwOBgpbvLximbOTsEIwcGc6As2e4OWjh6iCKGboTNqTVisD9Ld3i7OADCUgMY5v7aOJMzy8rxYuaSMF7WJ8nWuwQMw1AkgCyDcHPN/syqWxHRb88cVvubo4wCu+9nxj5g/0dSKyfze/lShPUCV+d2i9FMVSSj+ixJvSYFv5ZswRL1nZbWeFPEEK8vTRCTkCIB9Xf8xc/rnB8W+DvNU8aK07s3X+0stiOy/eqRZUGk7jl+pRlBlIiZ/WhIINi97PxXKtaHmx/DUaS08374DUztE4KXtKFzmQS7nG7JoheFdJDeCuw71bExz4gFdPj6TzNAGukiiCFMVy7V2ZgyidsmgsC8KNJ4xcwphnOJp4+ChXJaW0oGzdFYalNT5cBklvG/WLiD/ErfVdLf8Y+eZaenVlOrT+c8ZNwQsCT3zJTZz9thveLhaGfmA4oxGlrplrC8pqOF3PrgYGKKgCdsXXkIpFtXQzXJmlgYPySrekklOuVKWKKE/xc5SAXIPBOWX3y3UZpIP37rWlj6hRo7XByvccL16D6+x++FnKPmqk7FzQDyTk27+kTGPgM2caZHm9KEmVftKYlYGCV7qug4tSLnM0HqENnfZhI8DpDK2c4OA6UkKMAb4mrVMcQI4xbQjHU483Pn8fj774CqZek6h0zcJr4gUVl9jSdsv2JZHi3uEETXiKN77wMmrViZRrXSxElVz8SxEvLXP+/J0PJFXS+QvTdPPmF1l/Y5jC/WiR6WMf6hc1BXcYj5r9X4nUnzmYyi8v5mSGU275XG/NUnmdddkBqIMsXgUnCsgnsXKZIg5vH+CXHzxFiYdkh9zV4/pysqhwSYPZewWmRbhTr9Bz5ELSgu40sLqf28qjodUk5RcBIKfbFl95sXvUqlLLep0P/Xnow+IWXUJD3zoPFW75UF4AfTErP5HmLSaxHBM5lZUc11yjbQPGvtbElxYpBUw1czBsUEPq6AQcMO8CKj9Vl0HEPHRoRvsgkhoYtZcIG0D6u+V6Ss45BOrKWoPTmdfh4SEe//JDRNKazr7G3/z/d/Hg9D4mLD3hyHVSO0FLyGZ5Ojnd23gtVixc53QixWLCeFC/kqvwJZbHchFqeVx1J/c+4fWvl2MyxfxCZAWa01nLIsnKlNmphRnyM6Wfgi4vgOXtAWokEC8oLfnR40AARIClNrBGsOSQKAll0FYlopRc3vCQDQpodWDv/cxgGoSCueKXJF4806Ut9ueBa1iZy5lKkApbRY3x6inJtU3953XQWetXvCbDCmm9a6H3WfeKfSkEjBYH3ueldxfJ80CESL1yC6HFSLt5JwDRSeLKvJvJVSP1QQ8inhZcJEhoRjXAQNd28BVjUjtwewZOCWNH2h25AbsKBIl+kKywfMLrf13pyydW9Kv3j+EoodYaEKFLgFdLeXAPXHYtFl9w/Si8vZCqdOmBGDfLcMDsC5qssu51V26Wiy2dkk+gLLstclHy/nlO/6X+qG5CUNgBunA0PMNhLG5/rG7hHLZJSfRZfDUfDYBFY2WTG+K6lP5hCwPSkuValGr2X67+nttAjmW4UaelFRNIG17m+Gmv7ewvg7U+Qtd1aEYVmCNi12JcV6g1bViKyqQS659rbmQu2ouDlFCtEOFjhxA7KRurse1LZ3jhsa5YuJEjQH2TQzmjq7iDBx9fEpKr3Kyrnze2CQ9uMLm8vbXQX+6kr2++yZdL9C0iboBhVS43WGWPlKfMQJXyuvzg2yu/+/WUzfp1hl6ZbqxPvBB5sbr/a4vj0vVb9/3Fe2T5OOQ3ue59s4nhdVn8/Xqf+vKxrB7jC8B9p+3iwc1+ZYZ2dQGQgviNoySFcJK1pOFn8zEOr1WmdgQOHTw84AltiIDLVco8CAkVnM74+viG4jYprpeBzAzOgXTW77SVFTPgIf30pMvJ5b/V6qJZZgtTCePjxeU30PPd3Av3a643XF50K58rCuAKArptPu6D+c0e3u6v95DhwL7+d1jz+lV00LrPFCOxf291AFtn4V9l+0thagvu1ovZrHAN46bYpGiXFpkM49OGSbZhGMaOuJqF+xFM/YxPES9qsZr8GdvgMjm8bOa1BczCNQzD2BHmwzV2x1UtBfPlGjfBJrna4QzKJNowDGNHrLZJ399H1VTSxyxnT5haNl6EHCuzIbq8bTvUNTCdTlHXNYiAlKTIgVuts2MYL8Zy7BZhoQRtjLHIY9Nc3DLnuqwo3LOzM9DMS9WwpJXtl1tnGsZ1GFaj2oD3t3B2dlbagKckceBSqDts/J5hXJsll0LuXg30xbqIDnB2doaZ6sLrcHr39sb3VjPNolS7l506bXVuJq7xAiykjWKt4s2KllkyjJilWt1yNxDDeG7KwL/0ctLOy6XcI8H7fuDfpvytLV6D3K4EucXOxzw9x/h4s5JvvlmemBkY5Lnn54bxwmyQo1xXgYGV2gg3rnDzAWRFu+0dGsY6cu1lfVZk7qqNGg3jecmzK8Bpw85U5NE5t9VomY1hYUQER4uNJA3jJpAKTty35Ob+7+WqToaxbWKM6jrNnZgTYryZgX5F4TIzoL6LvFhmAm9slaVFNK/tpx1pB4KBy8Fkz7hpSkna0vnZFQUsXaC3t6/VJpKU2+sQyOJxjB0hrloePDfL1tgN6yxZ1llWdjVsi1ULV0IURLPrax/3knbGJ5t1Am/K1tgV62QtW7fbxlbDDMMwdoQpXMMwjB1hCtcwDGNHmMI1DMPYEaZwDcMwdoQpXMMwjB1hCtcwDGNHmMI1DMPYEaZwDcMwdoQpXMMwjB1hCtcwDGNHmMI1DMPYEaZwDcMwdoQpXMMwjB1hCtcwDGNHrBYgZ62JC6uDaxjGZ4g13aS3jVm4hmEYO2JjE0nDuHGG3VBtNmV81Cz12rsJzMI1DMPYEaZwDcMwdoQpXMMwjB1hCtcwDGNHmMI1DMPYEWsVbu7JfhN92Q1jGWZe+Ds/J6KF9wzjJtiljK2EhTEzOElYBEEE3hSvcZM450CEImemZI1dsmxc3qT0rShc5xzgnChaOKR089kXxmcUjXdMzGBgwbLNN4AN9sYLk+NqebMHlZl3kmm21sIFsyhalufOmavXuFmyK8GsXGPXFNlzi64tILu1trevFYU7tGidc3DOIXHY3h6Nzx4bM3hEuXrv4RzBecA5cWPJgO9EAe/A8jA+zegsidZrTir/p7Ju4ByBSOQxbdHJsKJwq6oCnEOMEcyMGOPGAzWMK1FMhPVyFEJACBEhBHjv9St86fcMY1vk2VUe7EOIovuAm7VwJ5MJfF2rDzePDNvboWEsE2PEeOzBfEsGfPRTOrF4P8qjMz7tDN0HABBjUHk8UHncngJcUbhnZ2eAk8Uygu9Dc0imePZoj9d+vAJEB3jy5ElRuNm6cLqAC+CjPw97/GQ/XiqDWeFGMO/jyZOnqOu6yOJV93P35PDqChdAv3ihi2ZlZ3CQ2Z092uN1Hi/HkYOjCkllm6CuhSTP9FMfk/Oxx0/m48VkVeeoQlXVcFQhBpbvYzv7IV5aDn7v54/BORSHBzsyjOfmcuvi8PAAH374ZMO7Jn/GNrjabAtYlsfryd/du3sb37tCPVyH6xyoYVzKuukdDV7nZQE3+TN2wFAuF+Rxe7vYrLqzC8EwDMPYCtbxwdgdV1xA22zpGsYWuao8bpH1Em2CbhiGsXXMwjV2x/JAvmxh2EBv7JJN8naDlu/6PX4EprZhGMannRWFW7IuHIOIYSvExouzYQGWHcAOBF/ib4eJDkR+/fcM41pcLQCgzz9wEv/NEhu+7SNZYKEu5KAYtGHcFCLo/d/AUA5twDdunk0NF7at/1bVNyUwS+UcuQsYsJqkxouwLLNr43ClPF5KEdkOSCn0N4G5uYzn5TKdSQkgAnOC6D0syOM2azKvtbN7KwNwLu+M7dEen+MRKtCp/3vpc6QDe67bQY4XP0/pY3Ae9vjJfMR6+Rs8Ls6qshwmtXqxtL1r7HcNa8szcggAElISl4Kn6uNRfMIeP3mPCySUhPXh5xIQQwukBGKWfwAI3FcG/ajPwx4/mY9r5W/pUWWOU5K1Kyak2AEpARylrsd19nsBK7UUYmSACMMmD+ZQMLYCY60wpQQ4V2S/l70NnzeM5yLL09IjJ4DcwBZQmUsJ2mtve4ewPATA+17Zsv5nGFthg+AS9dOx/LeUBN3NYRmfEWj9IxUtKIu32QZljltfvlpRuP2u1a9hUm/cMMN26MsLFBYlY+yKYePSm5K7FZeCYRiGcTNstHANwzCM7WIK1zAMY0eYwjUMw9gRpnANwzB2hClcwzCMHWEK1zAMY0eYwjUMw9gRpnANwzB2xN8C29iD1cAhivQAAAAASUVORK5CYII=;" vertex="1" parent="1">
          <mxGeometry x="438" y="360" width="348" height="189" as="geometry" />
        </mxCell>
        <mxCell id="fXdW1Djls__v9O5UNU6k-5" value="" style="shape=cross;whiteSpace=wrap;html=1;size=0.28889069733796297;strokeWidth=2;" vertex="1" parent="1">
          <mxGeometry x="580" y="310" width="42" height="43" as="geometry" />
        </mxCell>
        <mxCell id="fXdW1Djls__v9O5UNU6k-7" value="" style="shape=singleArrow;whiteSpace=wrap;html=1;arrowWidth=0.3795925841039541;arrowSize=0.2420001220703125;strokeWidth=2;" vertex="1" parent="1">
          <mxGeometry x="316" y="307" width="77" height="35" as="geometry" />
        </mxCell>
        <mxCell id="fXdW1Djls__v9O5UNU6k-8" value="&lt;b&gt;&lt;font style=&quot;font-size: 24px;&quot;&gt;Original&lt;/font&gt;&lt;/b&gt;" style="text;html=1;strokeColor=none;fillColor=none;align=center;verticalAlign=middle;whiteSpace=wrap;rounded=0;rotation=270;" vertex="1" parent="1">
          <mxGeometry x="-110" y="309.5" width="60" height="30" as="geometry" />
        </mxCell>
        <mxCell id="fXdW1Djls__v9O5UNU6k-9" value="&lt;b&gt;&lt;font style=&quot;font-size: 24px;&quot;&gt;Trend&lt;/font&gt;&lt;/b&gt;" style="text;html=1;strokeColor=none;fillColor=none;align=center;verticalAlign=middle;whiteSpace=wrap;rounded=0;rotation=270;" vertex="1" parent="1">
          <mxGeometry x="381" y="187.5" width="60" height="30" as="geometry" />
        </mxCell>
        <mxCell id="fXdW1Djls__v9O5UNU6k-10" value="&lt;span style=&quot;font-size: 24px;&quot;&gt;&lt;b&gt;Residue&lt;/b&gt;&lt;/span&gt;" style="text;html=1;strokeColor=none;fillColor=none;align=center;verticalAlign=middle;whiteSpace=wrap;rounded=0;rotation=270;" vertex="1" parent="1">
          <mxGeometry x="384" y="439.5" width="60" height="30" as="geometry" />
        </mxCell>
      </root>
    </mxGraphModel>
  </diagram>
</mxfile>
